<?xml version="1.0" encoding="UTF-8"?>
<svg id="Layer_2" data-name="Layer 2" xmlns="http://www.w3.org/2000/svg" viewBox="0 0 8.58 9.8">
  <defs>
    <style>
      .cls-1 {
        fill: #202124;
        stroke-width: 0px;
      }
    </style>
  </defs>
  <g id="Layer_1-2" data-name="Layer 1">
    <path class="cls-1" d="M5,8.83c.14-.09.22-.18.29-.18.06,0,.11.13.16.2.06.06.12.12.17.19.04-.08.1-.16.12-.25.02-.08,0-.18.02-.26.03-.06.11-.1.17-.14.04.06.1.11.12.18.02.08.01.17.02.25.03.01.06.02.09.03.06-.11.13-.22.19-.33.06-.12.09-.26.16-.36.04-.05.17-.08.22-.06.06.03.11.14.11.21,0,.09-.05.18-.1.26-.08.14-.19.25-.27.39-.05.08-.05.19-.08.29.1.01.21.04.31.04.11,0,.22-.04.32-.06.13-.02.19.04.2.17,0,.12-.01.22-.15.21-.55-.02-1.07.09-1.61.18-.27.05-.56-.06-.84-.09-.18-.02-.36-.03-.54-.05-.4-.04-.51-.21-.3-.59.17-.31.46-.55.72-.81.19-.19.4-.35.64-.56-.2-.09-.35-.15-.49-.22-.49-.23-.98-.45-1.46-.7-.33-.18-.68-.23-.98-.21-.34-.59-.67-1.15-.98-1.71-.21-.38-.56-.45-.93-.46-.05,0-.11.01-.14-.01-.07-.06-.16-.14-.18-.23-.02-.13.07-.21.21-.18.15.03.29.08.43.12.08.02.16.04.24.04-.17-.24-.36-.43-.65-.5-.08-.02-.17-.1-.2-.18-.02-.05.03-.19.07-.2.08-.02.21-.02.27.03.3.22.58.46.86.69.02-.02.04-.03.06-.04-.03-.06-.09-.11-.1-.18-.02-.07,0-.15,0-.22.07.03.17.04.2.09.08.13.12.27.17.41.04.11.09.21.14.32.02,0,.04,0,.06,0,.02-.08.02-.16.05-.23.05-.13.1-.27.19-.36.14-.14.32-.14.43.05.11.18.19.38.29.57.08.16.17.32.27.5.15-.58.3-1.12.45-1.68-.44-.14-.5-.55-.58-.92-.1-.45-.17-.9-.6-1.18-.13-.08-.25-.2-.32-.33-.05-.09-.05-.25,0-.33.07-.12.21-.08.3.02.08.1.15.21.22.3.08.1.17.19.25.29.02-.01.04-.03.06-.04-.09-.22-.19-.43-.27-.65-.03-.08-.08-.21-.04-.24.06-.06.19-.11.27-.08.07.02.12.14.14.23.09.3.16.6.24.9.03,0,.06-.02.09-.02-.02-.08-.05-.16-.06-.24,0-.09-.02-.19.02-.26.02-.04.17-.06.21-.03.06.05.09.16.09.24-.01.2-.07.39-.08.59-.02.21.06.36.26.46.08.04.13.15.2.23-.09.03-.17.06-.29.1.05.07.11.15.19.25.11-.17.18-.33.29-.43.21-.2.45-.39.69-.56.21-.14.38-.3.45-.55.1-.32.52-.42.74-.18.2.21.42.31.71.32.09,0,.19.03.27.08.21.11.27.34.11.52-.32.37-.66.72-.99,1.08-.06.07-.13.19-.12.27.05.26.12.52.23.76.06.13.2.25.33.32.11.06.25.05.38.07.02-.13.03-.26.05-.38,0-.08,0-.18.03-.24.03-.04.15-.04.21,0,.04.02.06.12.06.18,0,.13-.03.25-.05.43.3-.18.4-.41.49-.66.03-.08.11-.18.18-.19.06-.01.19.08.2.14.01.08-.05.18-.1.26-.11.19-.22.37-.34.55.03.03.05.06.08.08.17-.07.35-.15.52-.21.09-.03.21-.06.27-.01.06.05.11.19.09.27-.02.07-.14.13-.22.16-.28.11-.56.2-.84.29-.21.06-.42.14-.64.14-.42,0-.78-.3-.92-.72-.06-.19-.13-.37-.23-.54-.1-.18-.27-.18-.4,0-.08.11-.14.23-.2.35-.25.55-.53,1.08-.95,1.52-.04.05-.08.1-.11.15-.16.25-.15.26.09.43.18.13.33.29.51.42.15.12.33.21.48.33.21.17.43.34.61.55.14.16.09.42-.08.61-.15.17-.31.34-.46.51-.06.07-.12.15-.22.27"/>
  </g>
</svg>