<?xml version="1.0" encoding="UTF-8"?>
<svg id="Layer_2" data-name="Layer 2" xmlns="http://www.w3.org/2000/svg" viewBox="0 0 7.59 8.96">
  <defs>
    <style>
      .cls-1 {
        fill: #202124;
        stroke-width: 0px;
      }
    </style>
  </defs>
  <g id="Layer_1-2" data-name="Layer 1">
    <path class="cls-1" d="M3.22,1.88c0-.06,0-.11-.03-.16-.02-.03-.05-.06-.08-.07,0,0-.02,0-.02,0-.02.02-.05.04-.03.08.03,0,.05,0,.08,0,0,.03.01.05.02.07,0,.02.01.05.02.08,0,0,.02,0,.02,0h.03M4.23,1.69s.03.05.04.05c.06.02.08.06.09.11t.06.04s-.02-.02-.02-.03c0-.03,0-.06,0-.08,0-.05-.05-.08-.08-.11-.03-.02-.05,0-.07.01,0,0-.01,0-.03,0M3.04,2.17c-.06-.03-.11-.07-.12-.13-.03-.14-.06-.28.05-.4.04-.05.1-.07.16-.06.06.01.1.05.13.1.02.05.03.1.04.15,0,.05.01.11.02.16,0,0,.02,0,.02,0,.01-.03.03-.06.03-.09,0-.06,0-.12,0-.18,0-.11-.04-.21-.12-.28-.11-.11-.3-.08-.37.06-.06.12-.08.24-.08.37,0,.14.06.26.15.36.03-.02.06-.03.09-.05M4,2.06s-.01-.05-.01-.08c0-.06,0-.13,0-.19.01-.1.07-.17.16-.21.09-.04.25.02.28.12.02.05.04.11.05.17.02.12,0,.27-.17.32t0,0c.07.03.13.05.2.08.01-.06.02-.12.03-.18.03-.15.04-.31.02-.46-.01-.07-.03-.15-.09-.2-.12-.11-.27-.12-.42-.08-.15.04-.21.18-.21.3,0,.11.02.22.06.32.02.05.06.08.1.09M5.94,5.93s0-.02,0-.03c.09-.28.13-.57.12-.86-.01-.22-.08-.43-.22-.61-.08-.1-.17-.17-.29-.21-.03,0-.05,0-.06.03-.01.03.01.03.03.04.16.08.28.19.35.36.07.17.1.34.11.53,0,.26-.06.52-.15.76,0,.01-.01.02-.02.03-.1.04-.17.11-.24.2-.02.03-.05.07-.07.11,0,.01,0,.03,0,.05.01,0,.03,0,.04-.02.05-.05.09-.1.14-.15.08-.08.18-.12.29-.12.15,0,.29.02.42.08.07.03.13.06.17.13.03.05.06.1.09.14,0,.01.02.02.03.02,0-.01.02-.02.02-.03,0-.04-.01-.08-.03-.12-.05-.09-.12-.16-.22-.21-.1-.05-.21-.08-.33-.08-.06,0-.12-.02-.18-.02M2.87,2.69s0,0,0,0c.03.04.05.09.08.13.06.07.12.13.19.2.14.13.3.18.49.16.12-.02.24-.06.34-.12.19-.11.38-.23.57-.36.06-.04.11-.09.12-.17,0-.03,0-.07,0-.08-.03-.04-.07-.07-.11-.09-.04-.03-.09-.05-.13-.07-.14-.06-.27-.11-.41-.16-.08-.03-.16-.06-.25-.09-.13-.05-.26-.04-.39.02-.03.02-.06.03-.09.04-.14.06-.27.14-.36.25-.03.04-.05.09-.08.14,0,.01,0,.03,0,.04.02.03.03.07.06.09.11.1.23.18.38.22.15.04.3.02.45-.03.21-.07.39-.19.57-.31.01-.01.03-.02.04-.03,0,.03,0,.06.02.07,0,.01,0,.02-.01.03-.14.09-.28.18-.43.24-.14.06-.28.11-.43.11-.18,0-.35-.05-.5-.15-.04-.03-.08-.05-.11-.08M5.5,8.87s.05,0,.08,0c.17,0,.31-.1.44-.2.15-.12.3-.25.44-.37.23-.2.5-.33.78-.44.06-.02.13-.05.17-.09.08-.09.09-.21,0-.32-.06-.07-.14-.12-.22-.15-.09-.04-.16-.1-.22-.17-.07-.08-.11-.18-.13-.28-.02-.1-.04-.21-.06-.31-.02-.09-.04-.1-.13-.05,0,0-.02.01-.02.02-.03.03-.07.07-.11.1-.03.03-.07.06-.1.1-.06.07-.13.13-.21.17-.11.06-.23.07-.36.04-.15-.03-.26-.1-.32-.24-.03-.07-.05-.14-.07-.21-.01-.05-.04-.09-.08-.11-.07-.05-.16-.03-.21.03-.02.03-.04.06-.05.1-.02.09-.03.17-.04.26,0,.31-.01.62-.02.93,0,.03,0,.05-.01.08-.02.09-.03.18-.05.26,0,.06,0,.13-.01.19-.02.1-.04.2-.06.3,0,.01,0,.03,0,.05.12.21.3.31.54.32M2.82,8.34c0-.13-.02-.26-.07-.38-.09-.24-.23-.45-.38-.65-.12-.17-.25-.32-.35-.5-.07-.12-.14-.25-.21-.37-.08-.12-.18-.21-.3-.29-.08-.05-.17-.05-.25-.01-.08.03-.14.09-.17.17-.01.04-.02.07-.03.11-.01.07-.05.11-.12.13-.06.02-.13.02-.19.02-.1,0-.21.01-.31.02-.02,0-.05.01-.07.03-.08.09-.12.2-.11.33.01.09.03.17.04.26.02.11.03.21,0,.32-.02.09-.06.18-.11.26-.04.07-.07.14-.1.21-.02.06,0,.11.04.14.03.02.06.04.09.06.11.05.22.08.33.1.27.04.53.11.78.2.23.08.45.17.68.24.08.03.17.06.25.06.19,0,.35-.08.47-.22.04-.04.06-.08.06-.14,0-.03,0-.06,0-.09M2.11,4.33s-.02.02-.03.03c-.02.02-.03.04-.05.06-.14.24-.25.49-.35.75-.06.16-.1.33-.09.51.01.12.05.24.13.33.13.15.28.27.44.38.09.07.2.12.29.2.11.1.22.21.32.31.05.06.1.12.14.19.06.09.04.18-.04.25-.03.03-.06.05-.08.08-.05.04-.1.06-.16.07-.02,0-.03.01-.02.03.03.06.06.12.1.18.06.08.14.13.24.17.15.06.3.08.46.08.24,0,.48-.02.7-.1.36-.13.64-.36.86-.66,0,0,0-.02,0-.03,0-.05,0-.1,0-.15,0-.04-.02-.08-.02-.12,0-.12,0-.24.03-.35.02-.07.04-.14.09-.2.08-.12.2-.14.33-.07.01,0,.03.02.04.03,0-.09.02-.16.02-.24,0-.18.01-.37.02-.55,0-.16,0-.32-.04-.49-.03-.15-.07-.31-.14-.45-.05-.1-.12-.18-.17-.28-.05-.09-.11-.18-.15-.28-.04-.1-.06-.21-.06-.32,0-.02,0-.04-.01-.05-.11-.21-.22-.42-.31-.65-.02-.07-.05-.13-.08-.2-.01.01-.02.02-.03.02-.14.11-.28.22-.44.3-.21.12-.44.19-.69.15-.09-.01-.17-.04-.23-.11-.05-.05-.1-.1-.16-.14-.02-.01-.03-.03-.05-.04,0,.17-.09.31-.17.46-.06.11-.11.21-.16.32-.05.1-.09.21-.11.32,0,.04-.01.08-.03.11-.08.17-.17.33-.26.5-.1.19-.19.39-.25.59-.07.22-.11.44-.09.68,0,.02,0,.04,0,.06-.11-.08-.17-.17-.18-.3-.02-.13,0-.25.03-.37.09-.35.22-.68.45-.96.02-.02,0-.03,0-.04-.02,0-.04-.02-.06-.03M6.73,6.37c.06,0,.1.05.13.11.04.1.06.2.07.31,0,.07,0,.14.05.2.02.02.03.05.05.07.08.07.16.14.26.19.06.03.12.06.18.1.15.11.17.31.03.44-.06.06-.12.09-.2.12-.07.03-.13.06-.2.09-.23.09-.43.23-.62.39-.15.13-.3.26-.46.38-.09.08-.19.14-.31.17-.1.02-.2.02-.3,0-.19-.02-.35-.1-.48-.24-.03-.04-.05-.08-.08-.11,0-.01-.02-.02-.03-.02-.22-.03-.44-.05-.66-.08-.2-.02-.39-.03-.59-.02-.24,0-.47.04-.7.14-.01,0-.02.02-.03.02-.11.12-.25.21-.42.23-.12.01-.23,0-.34-.03-.19-.06-.39-.13-.58-.19-.24-.08-.47-.16-.72-.21-.12-.03-.25-.05-.38-.08-.11-.03-.22-.06-.32-.12-.05-.03-.09-.07-.1-.14,0-.07,0-.13.04-.19.05-.08.1-.17.14-.25.05-.08.05-.17.04-.27-.02-.15-.04-.3-.05-.44-.01-.15.02-.28.14-.38.05-.04.11-.07.17-.06.1,0,.2,0,.29,0,.05,0,.1-.02.14-.05,0,0,.01-.02.02-.02.03-.06.05-.12.08-.18.02-.03.05-.06.05-.1,0-.03-.02-.07-.02-.11,0-.12.02-.24.07-.36.06-.12.12-.23.18-.34.11-.19.22-.38.28-.58.04-.12.08-.24.11-.36.06-.23.18-.43.33-.61.15-.17.29-.34.44-.52.11-.13.18-.28.21-.45.02-.11.01-.21,0-.32-.02-.24-.04-.47-.05-.71,0-.22-.01-.44,0-.66,0-.23.06-.45.19-.65.1-.15.22-.29.39-.37.12-.05.24-.07.36-.09.15-.02.29-.02.44-.01.03,0,.07,0,.11.01.09.02.19.03.28.06.29.09.52.27.68.54.08.14.12.29.15.45.03.17.05.34.07.52.02.21.03.42.05.63.02.16.04.32.08.47.05.19.15.36.26.53.1.16.21.31.31.47.06.09.14.17.2.26.17.23.3.47.41.73.06.15.12.3.15.46.06.28.09.57.05.86-.02.13-.05.26-.07.39"/>
  </g>
</svg>