<?xml version="1.0" encoding="UTF-8"?>
<svg id="Layer_2" data-name="Layer 2" xmlns="http://www.w3.org/2000/svg" viewBox="0 0 8.39 8.62">
  <defs>
    <style>
      .cls-1 {
        fill: #202124;
        stroke-width: 0px;
      }
    </style>
  </defs>
  <g id="Layer_1-2" data-name="Layer 1">
    <path class="cls-1" d="M6.33,3.56c.6,0,1.2,0,1.8,0,.13,0,.19.02.21.18.14,1,0,1.95-.47,2.84-.53,1.01-1.37,1.66-2.48,1.91-1.6.36-3.02,0-4.17-1.18C.31,6.39-.09,5.25.02,3.95c.04-.5.17-.96.37-1.42C.91,1.34,1.81.61,3.02.2,3.64-.01,4.28-.04,4.91.04c.81.11,1.53.45,2.15.99.09.08.08.13,0,.21-.34.34-.68.68-1.02,1.02-.09.09-.14.05-.22,0-.46-.38-.99-.57-1.57-.55-1.08.05-1.83.59-2.3,1.55-.16.33-.26.67-.25,1.03.02,1.01.47,1.77,1.32,2.31.46.29.97.4,1.5.35.39-.03.76-.15,1.11-.33.53-.27.83-.69.99-1.24.06-.2.03-.25-.18-.25-.64,0-1.28,0-1.92,0-.16,0-.2-.05-.2-.2,0-.4,0-.8,0-1.2,0-.14.05-.17.18-.17.61,0,1.22,0,1.83,0"/>
  </g>
</svg>