<?xml version="1.0" encoding="UTF-8"?>
<svg id="Layer_2" data-name="Layer 2" xmlns="http://www.w3.org/2000/svg" viewBox="0 0 8.45 8.4">
  <defs>
    <style>
      .cls-1 {
        fill: #202124;
        stroke-width: 0px;
      }
    </style>
  </defs>
  <g id="Layer_1-2" data-name="Layer 1">
    <g>
      <path class="cls-1" d="M3.97,4.02c.18,0,.37-.02.55-.02,1.27,0,2.53-.01,3.8-.02.12,0,.12,0,.12-.12V.12c0-.11,0-.12-.11-.11-.21.02-.42.05-.64.08-.38.05-.75.11-1.13.17-.52.08-1.05.15-1.57.23-.34.05-.68.1-1.02.15-.11.02-.12.02-.12.13,0,1.05,0,2.1,0,3.15,0,.08.02.12.11.11"/>
      <path class="cls-1" d="M8.32,4.42h-2.17c-.73,0-1.45,0-2.18,0-.08,0-.12.02-.12.11,0,1.05,0,2.09,0,3.13,0,.08.03.11.11.12.53.07,1.06.14,1.59.22.42.06.83.12,1.25.17.5.07,1.01.14,1.51.21.13.02.14.02.14-.12v-3.72c0-.13,0-.13-.13-.13"/>
      <path class="cls-1" d="M0,3.9C0,4.03,0,4.03.14,4.03c.74,0,1.48-.01,2.21-.02.33,0,.65,0,.98,0,.11,0,.12,0,.12-.12V.83c0-.11-.02-.13-.13-.11-.44.06-.88.12-1.32.18-.62.09-1.25.18-1.87.26-.1.01-.12.05-.12.14,0,.87,0,1.74,0,2.61"/>
      <path class="cls-1" d="M3.34,4.39c-1.07,0-2.14-.01-3.22-.02Q0,4.37,0,4.5v1.52C0,6.39,0,6.77,0,7.15c0,.06.01.09.09.11.55.07,1.09.15,1.63.23.53.07,1.07.14,1.61.22.12.02.12.02.12-.1v-1.54c0-.52,0-1.04,0-1.56,0-.08-.03-.11-.11-.11"/>
    </g>
  </g>
</svg>