<?xml version="1.0" encoding="UTF-8"?>
<svg id="Layer_2" data-name="Layer 2" xmlns="http://www.w3.org/2000/svg" viewBox="0 0 12.92 7.9">
  <defs>
    <style>
      .cls-1 {
        fill: #202124;
        stroke-width: 0px;
      }
    </style>
  </defs>
  <g id="Layer_1-2" data-name="Layer 1">
    <g>
      <path class="cls-1" d="M4.28,1.1c.27.89.53,1.78.8,2.67.06.2.1.23.31.23h.27c.21,0,.25-.03.3-.23.16-.68.32-1.36.48-2.04.06-.24.11-.47.18-.74.02.05.03.07.03.09.2.82.39,1.64.58,2.46.12.5.07.46.57.46.29,0,.31-.01.39-.29.25-.83.51-1.66.76-2.49.09-.29.18-.58.27-.88.05-.19.02-.23-.17-.23h-.24c-.23,0-.28.04-.34.27-.18.7-.35,1.39-.53,2.09-.06.25-.13.49-.2.76-.02-.03-.03-.05-.03-.06-.21-.93-.43-1.85-.64-2.78-.05-.24-.09-.27-.33-.27-.08,0-.16,0-.24,0-.21,0-.25.04-.3.24-.13.54-.25,1.08-.38,1.61-.09.4-.19.8-.28,1.2-.01,0-.02,0-.03,0-.12-.49-.25-.98-.37-1.46-.11-.44-.22-.88-.33-1.33-.06-.23-.1-.26-.33-.26h-.27c-.18,0-.22.04-.17.22.07.26.15.51.23.77"/>
      <path class="cls-1" d="M11.53,5.9s-.06.02-.09.03c-1.87.78-3.82,1.11-5.84.95-1.25-.1-2.47-.36-3.64-.83-.59-.24-1.16-.55-1.74-.83-.07-.03-.16-.09-.21,0-.02.04.04.13.07.19.02.03.05.05.07.07.66.58,1.39,1.07,2.18,1.45,1.24.59,2.53.89,3.9.92,0,.02,0,.03,0,.04.59-.06,1.18-.09,1.77-.18,1.21-.2,2.35-.6,3.39-1.28.1-.07.21-.14.3-.22.07-.06.11-.14.07-.23-.05-.1-.14-.11-.23-.09"/>
      <path class="cls-1" d="M2.92,2.4c.09.71-.54,1.27-1.23,1.11-.24-.06-.4-.24-.42-.49-.03-.36.08-.61.35-.7.17-.06.36-.08.52-.11.25.04.47.07.68.11.04,0,.09.06.1.09M2.36,1.73c-.4-.05-.79-.05-1.17.13-.75.35-.93,1.39-.33,1.95.32.31.73.32,1.13.26.38-.06.7-.26.95-.56.09.15.17.28.27.41.08.11.18.13.3.05.06-.05.14-.09.2-.14.14-.1.15-.15.08-.3-.1-.2-.16-.4-.17-.63,0-.58,0-1.16-.03-1.73-.03-.58-.35-.96-.91-1.09C2.11-.06,1.54.02.99.25c-.17.07-.24.18-.23.37.01.29.03.31.3.2.36-.14.72-.24,1.11-.21.23.02.46.05.6.26.19.29.15.62.14.94-.19-.03-.37-.07-.54-.09"/>
      <path class="cls-1" d="M9.78,3.9c.34.15.7.21.97.22.58,0,.97-.13,1.27-.38.51-.45.53-1.4-.19-1.75-.12-.06-.26-.11-.39-.15-.3-.11-.61-.22-.91-.35-.18-.08-.24-.25-.22-.45.02-.19.13-.32.31-.36.18-.04.37-.09.55-.07.27.03.53.12.79.18.07.02.15.07.2-.04.09-.19,0-.47-.19-.55-.19-.08-.39-.14-.59-.17-.47-.08-.92-.04-1.32.24-.66.47-.62,1.4.09,1.8.16.09.33.14.5.2.25.09.5.17.74.26.14.05.23.15.27.3.06.25-.06.51-.33.58-.23.06-.47.1-.7.08-.29-.03-.57-.14-.86-.21-.08-.02-.16-.07-.21.04-.09.22,0,.48.22.57"/>
      <path class="cls-1" d="M12.67,4.99c-.33-.09-.67-.09-1.01-.06-.38.04-.74.14-1.06.37-.04.03-.06.09-.08.14.05.02.1.05.15.04.3-.02.61-.05.93-.08.16.02.34.03.51.06.17.04.23.12.22.29-.02.18-.05.37-.1.54-.09.3-.2.58-.3.88-.01.04,0,.09,0,.13.05,0,.1-.01.14-.03.02,0,.05-.03.06-.06.52-.53.75-1.18.79-1.91.01-.21-.05-.27-.25-.33"/>
    </g>
  </g>
</svg>