<?xml version="1.0" encoding="UTF-8"?>
<svg id="Layer_2" data-name="Layer 2" xmlns="http://www.w3.org/2000/svg" viewBox="0 0 9.41 7.61">
  <defs>
    <style>
      .cls-1 {
        fill: #202124;
        stroke-width: 0px;
      }
    </style>
  </defs>
  <g id="Layer_1-2" data-name="Layer 1">
    <path class="cls-1" d="M3.21,7.61H.46c-.25,0-.43-.15-.45-.37-.01-.13.02-.23.11-.33.5-.56.99-1.13,1.49-1.69.39-.44.77-.88,1.16-1.31.07-.07.06-.12,0-.18-.47-.52-.93-1.05-1.39-1.57C.95,1.67.52,1.18.1.7-.02.56-.03.41.05.25.12.1.25,0,.43,0c1.63,0,3.26,0,4.89,0,.24,0,.48-.03.72,0,.11.01.24.09.32.18.49.54.97,1.09,1.45,1.64.5.58,1,1.15,1.5,1.73.15.18.11.39-.02.54-.28.32-.56.65-.85.97-.38.44-.77.87-1.15,1.3-.31.35-.61.7-.91,1.05-.12.14-.26.19-.43.19h-2.74Z"/>
  </g>
</svg>