<?xml version="1.0" encoding="UTF-8"?>
<svg id="Layer_2" data-name="Layer 2" xmlns="http://www.w3.org/2000/svg" viewBox="0 0 9.51 6.84">
  <defs>
    <style>
      .cls-1 {
        fill: #202124;
        stroke-width: 0px;
      }
    </style>
  </defs>
  <g id="Layer_1-2" data-name="Layer 1">
    <path class="cls-1" d="M1,4.42c0,.14,0,.28,0,.42.01.25.09.47.23.67.17.23.46.31.72.23.26-.08.45-.26.59-.48.57-.9,1.13-1.81,1.68-2.72.03-.05.03-.18,0-.22-.27-.33-.52-.68-.83-.96-.44-.39-.97-.33-1.39.1-.09.09-.18.19-.25.3-.52.8-.73,1.7-.75,2.67M8.67,4.41c-.03-.29-.05-.57-.09-.84-.1-.81-.33-1.57-.84-2.19-.47-.58-1.13-.73-1.65-.23-.26.26-.47.58-.69.89-.03.04-.02.16.02.22.3.55.61,1.1.93,1.63.31.52.62,1.03.96,1.53.17.25.42.4.72.34.33-.06.5-.31.56-.65.04-.23.06-.47.09-.7M4.74,3.22c-.18.35-.34.66-.52.97-.33.58-.65,1.17-1.01,1.72-.27.41-.62.76-1.11.87-.86.2-1.66-.24-1.95-1.17C0,5.08-.02,4.53.02,3.98c.05-.8.24-1.56.58-2.27.28-.58.65-1.09,1.18-1.42.7-.44,1.57-.37,2.24.22.26.23.49.51.73.78.15.17.14.17.29,0,.26-.3.51-.63.82-.88.72-.6,1.53-.45,2.18.09.57.48.92,1.14,1.16,1.86.3.88.37,1.8.29,2.72-.05.55-.23,1.08-.66,1.44-.63.52-1.55.43-2.16-.22-.44-.47-.76-1.04-1.08-1.61-.24-.42-.47-.85-.7-1.27-.03-.06-.08-.11-.14-.2"/>
  </g>
</svg>