<?xml version="1.0" encoding="UTF-8"?>
<svg id="Layer_2" data-name="Layer 2" xmlns="http://www.w3.org/2000/svg" viewBox="0 0 8.98 9.62">
  <defs>
    <style>
      .cls-1 {
        fill: #202124;
        stroke-width: 0px;
      }
    </style>
  </defs>
  <g id="Layer_1-2" data-name="Layer 1">
    <path class="cls-1" d="M5.39,4.81c0-.16,0-.32,0-.48,0-.05-.02-.09-.06-.11-.26-.16-.52-.32-.78-.47-.04-.02-.07-.02-.11,0-.26.16-.52.32-.77.47-.05.03-.07.06-.07.12,0,.32,0,.63,0,.94,0,.05.02.09.06.11.26.16.52.32.78.47.04.02.07.02.11,0,.26-.16.52-.32.77-.47.05-.03.07-.06.06-.12,0-.15,0-.31,0-.46M7.87,3.46s.02-.07.02-.1c0-.12.01-.23,0-.35-.11-1.3-1.44-2.04-2.52-1.4-.57.34-1.14.69-1.71,1.04-.05.03-.06.06-.06.12,0,.25,0,.51,0,.76,0,.02,0,.05.01.08.03-.02.06-.03.08-.04.66-.41,1.33-.81,1.99-1.22.13-.08.25-.08.38,0,.58.35,1.15.71,1.73,1.06.02.01.05.03.09.05M5.91,4.59c0,.05,0,.09,0,.13,0,.79,0,1.59,0,2.38,0,.17-.06.29-.21.38-.58.35-1.15.7-1.72,1.05-.08.05-.08.06,0,.12.34.26.73.37,1.15.33.81-.07,1.51-.75,1.54-1.71.02-.71,0-1.43,0-2.14,0-.06-.02-.1-.07-.12-.21-.12-.41-.25-.62-.38-.02-.01-.04-.02-.08-.04M5.38,5.99s-.07.03-.09.05c-.66.4-1.31.8-1.97,1.2-.14.09-.26.09-.4,0-.57-.35-1.14-.7-1.72-1.05-.09-.05-.1-.05-.11.06-.04.44.06.84.29,1.2.49.76,1.46.99,2.22.54.58-.35,1.15-.7,1.72-1.05.05-.03.06-.06.06-.12,0-.25,0-.51,0-.76,0-.02,0-.05,0-.08M3.07,5.03c0-.05,0-.09,0-.12,0-.8,0-1.6,0-2.4,0-.17.06-.28.2-.36.57-.35,1.15-.7,1.72-1.05.09-.05.09-.06,0-.13-.34-.25-.72-.36-1.14-.33-.87.07-1.55.84-1.55,1.77,0,.69,0,1.37,0,2.06,0,.07.02.12.09.15.2.12.39.24.59.36.02.02.05.03.09.05M5.02,3.4s.05.04.07.05c.66.4,1.32.81,1.99,1.21.14.08.2.2.2.37,0,.7,0,1.39,0,2.09,0,.11,0,.12.11.07.59-.3.94-.79.99-1.48.06-.72-.22-1.29-.8-1.67-.57-.37-1.16-.71-1.74-1.07-.04-.03-.08-.03-.12,0-.21.13-.42.26-.63.38-.02.01-.04.03-.07.05M3.96,6.21s-.05-.04-.06-.05c-.13-.08-.26-.16-.39-.24-.55-.33-1.09-.67-1.64-1-.11-.06-.16-.16-.16-.29v-2.15c0-.1-.01-.11-.09-.07-.11.06-.22.12-.32.2-.96.74-.93,2.28.12,2.96.57.37,1.16.71,1.74,1.06.04.03.08.02.12,0,.21-.13.42-.26.63-.38.02-.01.04-.03.07-.05M4.99,9.62c-.67-.02-1.21-.25-1.67-.73-.04-.05-.08-.06-.15-.05-.81.13-1.52-.11-2.08-.74-.57-.65-.75-1.43-.54-2.29.02-.07.01-.12-.03-.18C-.37,4.46-.09,2.75,1.12,1.97c.19-.12.39-.21.6-.26.07-.02.1-.05.12-.12C2.19.69,2.81.16,3.72.03c.74-.11,1.38.13,1.92.69.06.06.11.08.19.07,1.29-.21,2.46.7,2.66,2.07.05.33.03.66-.06.98-.02.07-.01.12.03.17.9,1.15.62,2.86-.58,3.64-.19.12-.4.22-.62.27-.06.02-.1.05-.12.11-.35.9-.98,1.43-1.89,1.57-.09.02-.19.02-.26.02"/>
  </g>
</svg>