<?xml version="1.0" encoding="UTF-8"?>
<svg id="Layer_1" data-name="Layer 1" xmlns="http://www.w3.org/2000/svg" version="1.1" viewBox="0 0 48 48">
  <defs>
    <style>
      .cls-1 {
        fill: none;
        stroke: #5bdeb8;
      }

      .cls-2 {
        fill: #5bdeb8;
        stroke-width: 0px;
      }
    </style>
  </defs>
  <path class="cls-2" d="M17.8,13c-.9,0-1.9.3-2.6.8-.8.5-1.4,1.3-1.7,2.1-.4.9-.5,1.8-.3,2.7s.6,1.8,1.3,2.4c.7.7,1.5,1.1,2.4,1.3.9.2,1.9,0,2.7-.3.9-.4,1.6-1,2.1-1.7.5-.8.8-1.7.8-2.6s-.5-2.5-1.4-3.4c-.9-.9-2.1-1.4-3.4-1.4ZM17.8,21c-.6,0-1.3-.2-1.8-.5-.5-.4-1-.9-1.2-1.5-.2-.6-.3-1.2-.2-1.9.1-.6.4-1.2.9-1.7.5-.5,1-.8,1.7-.9.6-.1,1.3,0,1.9.2.6.2,1.1.7,1.5,1.2.4.5.5,1.2.5,1.8s0,.8-.2,1.2-.4.8-.7,1.1-.7.5-1.1.7-.8.2-1.2.2ZM29.8,22.5c.9,0,1.9-.3,2.6-.8.8-.5,1.4-1.3,1.7-2.1.4-.9.5-1.8.3-2.7-.2-.9-.6-1.8-1.3-2.4-.7-.7-1.5-1.1-2.4-1.3s-1.9,0-2.7.3c-.9.4-1.6,1-2.1,1.7-.5.8-.8,1.7-.8,2.6s.5,2.5,1.4,3.4c.9.9,2.1,1.4,3.4,1.4ZM29.8,14.5c.6,0,1.3.2,1.8.5.5.4,1,.9,1.2,1.5.2.6.3,1.2.2,1.9-.1.6-.4,1.2-.9,1.7-.5.5-1,.8-1.7.9-.6.1-1.3,0-1.9-.2-.6-.2-1.1-.7-1.5-1.2-.4-.5-.5-1.2-.5-1.8s.3-1.7,1-2.3c.6-.6,1.4-1,2.3-1ZM17.8,25c-.9,0-1.9.3-2.6.8-.8.5-1.4,1.3-1.7,2.1-.4.9-.5,1.8-.3,2.7s.6,1.8,1.3,2.4c.7.7,1.5,1.1,2.4,1.3.9.2,1.9,0,2.7-.3.9-.4,1.6-1,2.1-1.7.5-.8.8-1.7.8-2.6s-.5-2.5-1.4-3.4c-.9-.9-2.1-1.4-3.4-1.4ZM17.8,33c-.6,0-1.3-.2-1.8-.5-.5-.4-1-.9-1.2-1.5-.2-.6-.3-1.2-.2-1.9.1-.6.4-1.2.9-1.7.5-.5,1-.8,1.7-.9.6-.1,1.3,0,1.9.2.6.2,1.1.7,1.5,1.2.4.5.5,1.2.5,1.8s0,.8-.2,1.2-.4.8-.7,1.1-.7.5-1.1.7c-.4.2-.8.2-1.2.2ZM34.5,29.8c0,.2,0,.4-.2.5-.1.1-.3.2-.5.2h-3.2v3.2c0,.2,0,.4-.2.5-.1.1-.3.2-.5.2s-.4,0-.5-.2c-.1-.1-.2-.3-.2-.5v-3.2h-3.2c-.2,0-.4,0-.5-.2-.1-.1-.2-.3-.2-.5s0-.4.2-.5c.1-.1.3-.2.5-.2h3.2v-3.2c0-.2,0-.4.2-.5.1-.1.3-.2.5-.2s.4,0,.5.2c.1.1.2.3.2.5v3.2h3.2c.2,0,.4,0,.5.2.1.1.2.3.2.5Z"/>
  <path class="cls-1" d="M24,.5h0c13,0,23.5,10.5,23.5,23.5h0c0,13-10.5,23.5-23.5,23.5h0C11,47.5.5,37,.5,24h0C.5,11,11,.5,24,.5Z"/>
</svg>