<?xml version="1.0" encoding="UTF-8"?>
<svg id="Layer_1" data-name="Layer 1" xmlns="http://www.w3.org/2000/svg" version="1.1" viewBox="0 0 48 48">
  <defs>
    <style>
      .cls-1 {
        fill: none;
        stroke: #5bdeb8;
      }

      .cls-2 {
        fill: #5bdeb8;
        stroke-width: 0px;
      }
    </style>
  </defs>
  <path class="cls-2" d="M37,16.2h-3.2v-1.2c0-.5-.2-.9-.5-1.2s-.8-.5-1.2-.5h-16c-.5,0-.9.2-1.2.5s-.5.8-.5,1.2v1.2h-3.2c-.5,0-.9.2-1.2.5-.3.3-.5.8-.5,1.2v2c0,1.3.5,2.5,1.4,3.4.9.9,2.1,1.4,3.4,1.4h.6c.6,1.9,1.7,3.6,3.2,4.8,1.5,1.2,3.4,2,5.4,2.1v3.5h-3.2c-.2,0-.4,0-.5.2-.1.1-.2.3-.2.5s0,.4.2.5c.1.1.3.2.5.2h8c.2,0,.4,0,.5-.2.1-.1.2-.3.2-.5s0-.4-.2-.5c-.1-.1-.3-.2-.5-.2h-3.2v-3.5c4.1-.3,7.4-3.2,8.6-7h.7c1.3,0,2.5-.5,3.4-1.4.9-.9,1.4-2.1,1.4-3.4v-2c0-.5-.2-.9-.5-1.2s-.8-.5-1.2-.5ZM14,23.2c-.9,0-1.7-.3-2.3-1-.6-.6-1-1.4-1-2.3v-2c0,0,0-.1,0-.2s.1,0,.2,0h3.2v4.2c0,.4,0,.8,0,1.2h-.3ZM24.1,30.2c-1.1,0-2.2-.2-3.2-.6-1-.4-1.9-1-2.7-1.8-.8-.8-1.4-1.7-1.8-2.7-.4-1-.6-2.1-.6-3.2v-7c0,0,0-.1,0-.2s.1,0,.2,0h16c0,0,.1,0,.2,0,0,0,0,.1,0,.2v6.9c0,4.6-3.7,8.3-8.2,8.4ZM37.2,20c0,.9-.3,1.7-1,2.3-.6.6-1.4,1-2.3,1h-.3c0-.5,0-.9,0-1.4v-4.1h3.2c0,0,.1,0,.2,0,0,0,0,.1,0,.2v2Z"/>
  <path class="cls-1" d="M24,.5h0c13,0,23.5,10.5,23.5,23.5h0c0,13-10.5,23.5-23.5,23.5h0C11,47.5.5,37,.5,24h0C.5,11,11,.5,24,.5Z"/>
</svg>