<?xml version="1.0" encoding="UTF-8"?>
<svg id="Layer_2" data-name="Layer 2" xmlns="http://www.w3.org/2000/svg" viewBox="0 0 511.62 511.62">
  <defs>
    <style>
      .cls-1 {
        fill: #fff;
        font-family: PaytoneOne-Regular, 'Paytone One';
        font-size: 63px;
      }
    </style>
  </defs>
  <g id="Layer_1-2" data-name="Layer 1">
    <text class="cls-1" transform="translate(253.61 459.3) rotate(-174.2)"><tspan x="0" y="0">C</tspan></text>
    <text class="cls-1" transform="translate(218.88 455.6) rotate(-165.59)"><tspan x="0" y="0">r</tspan></text>
    <text class="cls-1" transform="translate(194.5 449.82) rotate(-157.51)"><tspan x="0" y="0">e</tspan></text>
    <text class="cls-1" transform="translate(164.29 437.99) rotate(-147.11)"><tspan x="0" y="0">a</tspan></text>
    <text class="cls-1" transform="translate(129.83 415.08) rotate(-137.96)"><tspan x="0" y="0">t</tspan></text>
    <text class="cls-1" transform="translate(111.87 398.9) rotate(-131.67)"><tspan x="0" y="0">i</tspan></text>
    <text class="cls-1" transform="translate(98.63 384.99) rotate(-124.39)"><tspan x="0" y="0">v</tspan></text>
    <text class="cls-1" transform="translate(79.68 357.62) rotate(-115.14)"><tspan x="0" y="0">e</tspan></text>
    <text class="cls-1" transform="translate(66.1 327.48) rotate(-109.03)"><tspan x="0" y="0"> </tspan></text>
    <text class="cls-1" transform="translate(62.17 318.3) rotate(-102.87)"><tspan x="0" y="0">T</tspan></text>
    <text class="cls-1" transform="translate(55.23 289.77) rotate(-94.62)"><tspan x="0" y="0">e</tspan></text>
    <text class="cls-1" transform="translate(52.62 257.16) rotate(-86.21)"><tspan x="0" y="0">c</tspan></text>
    <text class="cls-1" transform="translate(53.67 229.65) rotate(-76.59)"><tspan x="0" y="0">h</tspan></text>
    <text class="cls-1" transform="translate(62.79 190.19) rotate(-65.1)"><tspan x="0" y="0">n</tspan></text>
    <text class="cls-1" transform="translate(79.81 153.37) rotate(-54.18)"><tspan x="0" y="0">o</tspan></text>
    <text class="cls-1" transform="translate(101.94 123.4) rotate(-45.94)"><tspan x="0" y="0">l</tspan></text>
    <text class="cls-1" transform="translate(116.11 107.69) rotate(-37.8)"><tspan x="0" y="0">o</tspan></text>
    <text class="cls-1" transform="translate(144.95 84.71) rotate(-26.77)"><tspan x="0" y="0">g</tspan></text>
    <text class="cls-1" transform="translate(182.55 66.46) rotate(-17.96)"><tspan x="0" y="0">i</tspan></text>
    <text class="cls-1" transform="translate(202 59.85) rotate(-11.24)"><tspan x="0" y="0">s</tspan></text>
    <text class="cls-1" transform="translate(228.17 54.6) rotate(-4.08)"><tspan x="0" y="0">t</tspan></text>
    <text class="cls-1" transform="translate(252.46 53.08) rotate(.93)"><tspan x="0" y="0"> </tspan></text>
    <text class="cls-1" transform="translate(262.36 52.07) rotate(7.99)"><tspan x="0" y="0">&amp;</tspan></text>
    <text class="cls-1" transform="translate(303.84 58.79) rotate(15.33)"><tspan x="0" y="0"> </tspan></text>
    <text class="cls-1" transform="translate(313.59 60.08) rotate(23.1)"><tspan x="0" y="0">D</tspan></text>
    <text class="cls-1" transform="translate(354.37 78.34) rotate(32.28)"><tspan x="0" y="0">i</tspan></text>
    <text class="cls-1" transform="translate(371.77 88.14) rotate(40.91)"><tspan x="0" y="0">g</tspan></text>
    <text class="cls-1" transform="translate(402.95 116.01) rotate(49.61)"><tspan x="0" y="0">i</tspan></text>
    <text class="cls-1" transform="translate(416.04 131.03) rotate(55.72)"><tspan x="0" y="0">t</tspan></text>
    <text class="cls-1" transform="translate(429.86 149.66) rotate(64.75)"><tspan x="0" y="0">a</tspan></text>
    <text class="cls-1" transform="translate(446.97 187.34) rotate(73.66)"><tspan x="0" y="0">l</tspan></text>
    <text class="cls-1" transform="translate(453.01 208.54) rotate(78.24)"><tspan x="0" y="0"> </tspan></text>
    <text class="cls-1" transform="translate(455.32 218.53) rotate(82.48)"><tspan x="0" y="0">I</tspan></text>
    <text class="cls-1" transform="translate(458.79 236.9) rotate(90.93)"><tspan x="0" y="0">n</tspan></text>
    <text class="cls-1" transform="translate(458.47 277.51) rotate(102.14)"><tspan x="0" y="0">n</tspan></text>
    <text class="cls-1" transform="translate(450.02 317.17) rotate(113.12)"><tspan x="0" y="0">o</tspan></text>
    <text class="cls-1" transform="translate(435.74 350.85) rotate(122.98)"><tspan x="0" y="0">v</tspan></text>
    <text class="cls-1" transform="translate(418.21 378.99) rotate(133.36)"><tspan x="0" y="0">a</tspan></text>
    <text class="cls-1" transform="translate(389.44 408.72) rotate(142.49)"><tspan x="0" y="0">t</tspan></text>
    <text class="cls-1" transform="translate(371.44 423.42) rotate(150.91)"><tspan x="0" y="0">o</tspan></text>
    <text class="cls-1" transform="translate(338.85 441.26) rotate(159.85)"><tspan x="0" y="0">r</tspan></text>
    <text class="cls-1" transform="translate(313.93 450.09) rotate(165.05)"><tspan x="0" y="0"> </tspan></text>
    <text class="cls-1" transform="translate(304.79 453.74) rotate(172.39)"><tspan x="0" y="0">&amp;</tspan></text>
    <text class="cls-1" transform="translate(263.13 458.36) rotate(179.07)"><tspan x="0" y="0"> </tspan></text>
  </g>
</svg>