<?xml version="1.0" encoding="UTF-8"?>
<svg id="Layer_2" xmlns="http://www.w3.org/2000/svg" viewBox="0 0 520.13 138.68">
  <defs>
    <style>
      .cls-1 {
        fill: #fff;
      }
    </style>
  </defs>
  <g id="Layer_1-2" data-name="Layer_1">
    <g>
      <path class="cls-1" d="M129.24,75.87l2.2-9.99h13.48l1.97,9.99h17.79l-14.15-48.92c2.28-4.48,4.11-9.2,5.57-13.86,1.05-3.87,2.31-7.85,2.14-11.9.05,1.01-.14,2-.33,2.99-1.67,7.08-4.42,13.97-8.1,20.29-1.85,3.18-3.93,6.22-6.23,9.06-1.38,1.65-2.87,3.21-4.46,4.65-.78.7-1.57,1.38-2.4,2.02-2.43,1.87-5.09,3.43-7.99,4.52-2.9.93-5.85,1.82-8.71,2.88-.46.17-.92.33-1.37.51-5.99,2.44-11.85,5.47-17.13,9.27,0-.1-.01-.21-.01-.31-17.72,11.68-32.15,27.12-44.44,44.9-1.54,2.23-3.08,4.45-5.31,7.68-.53-1.2-.72-1.82-1.06-2.34-8.7-13.64-19.66-25.14-32.55-34.88-3.08-2.33-3.54-5.59-1.65-8.22,2.03-2.82,5.42-3.51,8.53-.93,7.48,6.2,14.72,12.7,21.98,19.16,1.64,1.46,3,3.25,4.7,5.11,2.93-3.56,5.59-6.83,8.3-10.06,16.89-20.1,36.87-35.25,63.06-41.01.41-.09.82-.19,1.24-.27,4.58-.95,9.1-3.55,12.96-6.34,2.54-1.83,4.84-3.88,6.96-6.07,4.95-5.12,8.86-11.13,11.91-17.75.76-1.64,1.32-3.36,2.35-6.03-1.48.78-1.9.86-2.1,1.12-1.39,1.77-2.76,3.55-4.08,5.37-5.4,7.46-11.68,13.43-19.31,17.3-2.29,1.16-4.7,2.13-7.24,2.9-2.69.81-5.52,1.4-8.52,1.72-10.02,1.09-19.61,3.87-28.09,9.61-1.7,1.15-2.76.68-4.24-.48-17-13.41-39.26-15.13-57.97-4.6C8.47,43.36-2.2,64.53.38,85.69c2.58,21.04,17.91,38.77,38.39,44.38,39.01,10.68,74.05-24.43,64.18-64.45-.12-.49-.19-.93-.24-1.35,4.67-4.34,10.03-7.92,15.7-10.87l-6.21,22.48h17.03ZM135.61,45.13c1.51-1.07,2.93-2.24,4.26-3.5l3.22,14.93h-10.07l2.58-11.43Z"/>
      <polygon class="cls-1" points="196.55 75.87 212.83 23.78 194.96 23.78 186.93 56.26 178.91 23.78 161.8 23.78 177.24 75.87 196.55 75.87"/>
      <path class="cls-1" d="M224.18,23.78l-14.38,52.09h17.03l2.2-9.99h13.48l1.97,9.99h17.79l-15.07-52.09h-23.02ZM230.62,56.57l5.15-22.79,4.92,22.79h-10.07Z"/>
      <rect class="cls-1" x="267.26" y="23.78" width="17.49" height="52.09"/>
      <polygon class="cls-1" points="329.04 64.36 310.95 64.36 310.95 23.78 294.59 23.78 294.59 75.87 329.04 75.87 329.04 64.36"/>
      <path class="cls-1" d="M350.01,65.88h13.48l1.97,9.99h17.79l-15.07-52.09h-23.01l-14.39,52.09h17.04l2.2-9.99ZM356.75,33.78l4.92,22.79h-10.07l5.15-22.79Z"/>
      <path class="cls-1" d="M407.93,76.78c9.59,0,16.67-1.54,21.24-4.62,4.57-3.08,6.85-7.12,6.85-12.11,0-7.22-3.53-11.38-10.6-12.49,2.78-.71,4.85-1.96,6.21-3.75,1.36-1.79,2.04-4.25,2.04-7.38,0-2.52-.83-4.74-2.5-6.66-1.66-1.92-3.97-3.39-6.93-4.43-2.95-1.03-6.27-1.55-9.96-1.55h-26.04v52.16c4.64.35,8.3.58,10.98.68,2.68.1,5.58.15,8.71.15ZM405.13,33.85h6.13c4.44,0,6.66,1.79,6.66,5.38,0,1.51-.64,2.75-1.93,3.71-1.29.96-2.92,1.44-4.88,1.44h-5.98v-10.52ZM405.05,52.7h6.51c2.52,0,4.47.54,5.83,1.63,1.36,1.09,2.04,2.64,2.04,4.66,0,1.87-.75,3.32-2.23,4.35-1.49,1.04-3.62,1.55-6.4,1.55-1.57,0-3.48-.08-5.76-.23v-11.96Z"/>
      <polygon class="cls-1" points="477.28 64.36 459.19 64.36 459.19 23.78 442.83 23.78 442.83 75.87 477.28 75.87 477.28 64.36"/>
      <polygon class="cls-1" points="520.13 35.29 520.13 23.78 483.56 23.78 483.56 75.87 520.13 75.87 520.13 64.36 501.96 64.36 501.96 54.29 518.54 54.29 518.54 44.75 501.96 44.75 501.96 35.29 520.13 35.29"/>
      <path class="cls-1" d="M125.87,113.16c0,3.29-1.33,4.93-3.98,4.93-1.11,0-2.45-.28-4.04-.83l-2.79,7.36c3.17,2.1,6.57,3.15,10.21,3.15,4.15,0,7.42-1.3,9.79-3.89,2.37-2.59,3.56-6.16,3.56-10.71v-28.9h-12.76v28.9Z"/>
      <path class="cls-1" d="M168.3,101.82c-.91-2.29-2.25-4.01-4.01-5.16-1.76-1.15-3.67-1.72-5.73-1.72-2.53,0-4.93.65-7.18,1.96-2.25,1.31-4.06,3.12-5.4,5.43-1.35,2.31-2.02,4.9-2.02,7.74s.67,5.51,2.02,7.86c1.34,2.35,3.14,4.21,5.37,5.58,2.24,1.37,4.64,2.05,7.21,2.05,4.51,0,7.75-2,9.73-5.99v5.52h12.46v-30.15h-12.46v6.88ZM168.3,110.49c-.08,1.54-.68,2.88-1.81,4.01-1.13,1.13-2.48,1.69-4.06,1.69s-3.03-.57-4.21-1.72c-1.19-1.15-1.78-2.55-1.78-4.21s.58-3.02,1.75-4.18c1.17-1.17,2.58-1.75,4.24-1.75,1.5,0,2.84.55,4.01,1.66,1.17,1.11,1.79,2.45,1.87,4.04v.47Z"/>
      <path class="cls-1" d="M209.6,94.94c-4.98,0-8.63,2.3-10.92,6.88v-6.05h-11.93v29.32h12.52v-13.89c0-1.46.29-2.77.86-3.92.57-1.15,1.32-2.03,2.23-2.64.91-.61,1.84-.92,2.79-.92,1.31,0,2.32.46,3.06,1.37.73.91,1.1,2.22,1.1,3.92v16.08h12.46v-14.84c0-4.79-1.08-8.54-3.23-11.25-2.16-2.71-5.13-4.06-8.93-4.06Z"/>
      <path class="cls-1" d="M246.81,112.15c0,1.31-.35,2.32-1.04,3.06-.69.73-1.57,1.1-2.64,1.1s-2.03-.37-2.76-1.1c-.73-.73-1.1-1.75-1.1-3.06v-16.8h-12.23v16.97c0,2.57.67,4.87,2.02,6.88,1.35,2.02,3.23,3.58,5.67,4.69,2.43,1.11,5.21,1.66,8.34,1.66s5.82-.55,8.19-1.66c2.37-1.11,4.22-2.66,5.55-4.66,1.32-2,1.99-4.3,1.99-6.91v-16.97h-11.99v16.8Z"/>
      <path class="cls-1" d="M287.41,101.82c-.91-2.29-2.25-4.01-4.01-5.16-1.76-1.15-3.67-1.72-5.73-1.72-2.53,0-4.93.65-7.18,1.96-2.25,1.31-4.06,3.12-5.4,5.43-1.35,2.31-2.02,4.9-2.02,7.74s.67,5.51,2.02,7.86c1.34,2.35,3.14,4.21,5.37,5.58,2.24,1.37,4.64,2.05,7.21,2.05,4.51,0,7.75-2,9.73-5.99v5.52h12.46v-30.15h-12.46v6.88ZM287.41,110.49c-.08,1.54-.68,2.88-1.81,4.01-1.13,1.13-2.48,1.69-4.06,1.69s-3.03-.57-4.21-1.72c-1.19-1.15-1.78-2.55-1.78-4.21s.58-3.02,1.75-4.18c1.17-1.17,2.58-1.75,4.24-1.75,1.5,0,2.84.55,4.01,1.66,1.17,1.11,1.79,2.45,1.87,4.04v.47Z"/>
      <path class="cls-1" d="M322.09,96.63c-1.56,1.13-2.8,2.86-3.71,5.19v-6.05h-12.52v29.32h12.52v-15.43c0-1.74.88-3.02,2.64-3.83,1.76-.81,4.52-1.22,8.28-1.22l-1.72-9.67c-2.1,0-3.93.56-5.49,1.69Z"/>
      <path class="cls-1" d="M353.46,110.49c0,1.86-.43,3.36-1.28,4.51-.85,1.15-1.95,1.72-3.29,1.72s-2.33-.44-3.09-1.33c-.75-.89-1.13-2.01-1.13-3.35v-16.68h-12.46v14.84c0,4.79,1.08,8.54,3.24,11.25,2.16,2.71,5.15,4.06,8.99,4.06,4.55,0,7.85-1.98,9.91-5.93-.04,3.88-.67,6.52-1.9,7.92-1.23,1.4-3.01,2.11-5.34,2.11-1.31,0-2.73-.12-4.27-.36l-.95,8.78c1.98.43,4.06.65,6.23.65,5.74,0,10.15-1.8,13.23-5.4,3.09-3.6,4.63-8.84,4.63-15.73v-22.2h-12.52v15.13Z"/>
      <path class="cls-1" d="M404.81,108.1c2.38-3.06,3.56-6.36,3.56-9.9,0-2.38-.55-4.49-1.64-6.34-1.09-1.85-2.66-3.31-4.7-4.38s-4.43-1.61-7.16-1.61c-2.3,0-4.49.27-6.57.82s-4.2,1.36-6.34,2.45l2.86,8.7c2.61-1.52,5.12-2.28,7.54-2.28,1.29,0,2.31.33,3.07.99.76.66,1.14,1.62,1.14,2.86,0,1.91-1.17,4.3-3.5,7.19-2.34,2.88-5.8,6.39-10.4,10.51v8.24h25.47v-8.53h-14.08c4.79-2.77,8.37-5.68,10.75-8.73Z"/>
      <path class="cls-1" d="M440.36,88.06c-2.78-1.73-5.91-2.6-9.38-2.6s-6.65.87-9.44,2.6c-2.78,1.73-4.96,4.13-6.54,7.19-1.58,3.06-2.37,6.51-2.37,10.37s.79,7.37,2.37,10.43c1.58,3.06,3.76,5.45,6.54,7.19,2.78,1.73,5.93,2.6,9.44,2.6s6.65-.87,9.43-2.6c2.78-1.73,4.96-4.14,6.51-7.21,1.56-3.08,2.34-6.54,2.34-10.4s-.79-7.26-2.37-10.34c-1.58-3.08-3.76-5.48-6.54-7.22ZM436.41,110.99c-.55,1.6-1.29,2.85-2.25,3.77-.96.92-2.02,1.37-3.18,1.37-1.83,0-3.34-.98-4.53-2.95-1.19-1.97-1.78-4.49-1.78-7.57s.58-5.64,1.72-7.57c1.15-1.93,2.68-2.89,4.59-2.89s3.33.97,4.5,2.92c1.17,1.95,1.75,4.46,1.75,7.54,0,1.99-.27,3.78-.82,5.37Z"/>
      <path class="cls-1" d="M475.55,108.1c2.38-3.06,3.56-6.36,3.56-9.9,0-2.38-.55-4.49-1.64-6.34-1.09-1.85-2.66-3.31-4.7-4.38s-4.43-1.61-7.16-1.61c-2.3,0-4.49.27-6.57.82s-4.2,1.36-6.34,2.45l2.86,8.7c2.61-1.52,5.12-2.28,7.54-2.28,1.29,0,2.31.33,3.07.99.76.66,1.14,1.62,1.14,2.86,0,1.91-1.17,4.3-3.5,7.19-2.34,2.88-5.8,6.39-10.4,10.51v8.24h25.47v-8.53h-14.08c4.79-2.77,8.37-5.68,10.75-8.73Z"/>
      <path class="cls-1" d="M505.32,101c-1.81-1.13-3.85-1.69-6.1-1.69-1.32,0-2.49.14-3.51.41-1.01.27-2.04.74-3.1,1.4l.76-6.48h13.79l.88-8.35h-22.55l-1.52,21.56,6.08,2.63c2.26-1.56,4.19-2.34,5.78-2.34,1.13,0,2.04.4,2.74,1.2.7.8,1.05,1.84,1.05,3.13,0,1.44-.49,2.59-1.46,3.45-.97.86-2.38,1.29-4.21,1.29-1.25,0-2.67-.16-4.26-.47-1.6-.31-3.18-.76-4.73-1.34l-.76,8.24c3.82,1.68,7.51,2.51,11.1,2.51,3.04,0,5.75-.58,8.15-1.75,2.4-1.17,4.27-2.79,5.64-4.88,1.36-2.08,2.04-4.43,2.04-7.04s-.52-4.74-1.55-6.75c-1.03-2-2.45-3.57-4.26-4.7Z"/>
    </g>
  </g>
</svg>