<?xml version="1.0" encoding="UTF-8"?>
<svg id="Layer_2" xmlns="http://www.w3.org/2000/svg" viewBox="0 0 434.98 23.89">
  <defs>
    <style>
      .cls-1 {
        fill: #fff;
      }
    </style>
  </defs>
  <g id="Layer_6">
    <g>
      <path class="cls-1" d="M11.89,23.89c-2.39,0-4.48-.48-6.26-1.45-1.78-.96-3.17-2.32-4.15-4.07-.99-1.75-1.48-3.79-1.48-6.11s.52-4.51,1.54-6.35c1.03-1.84,2.45-3.28,4.25-4.34,1.81-1.05,3.88-1.58,6.23-1.58,2.61,0,4.66.51,6.15,1.53l-.9,5.28c-.64-.31-1.31-.54-2.01-.68s-1.36-.22-1.98-.22c-1.82,0-3.25.54-4.29,1.63-1.04,1.09-1.56,2.59-1.56,4.52,0,1.82.5,3.24,1.51,4.27,1.01,1.03,2.41,1.55,4.2,1.55.71,0,1.36-.07,1.94-.2.59-.13,1.31-.38,2.18-.73l.93,5.25c-1.93,1.13-4.03,1.7-6.31,1.7Z"/>
      <path class="cls-1" d="M30.27,23.89c-2.41,0-4.54-.51-6.38-1.53-1.84-1.02-3.27-2.43-4.3-4.22-1.03-1.79-1.54-3.85-1.54-6.18s.52-4.42,1.54-6.21c1.03-1.79,2.46-3.2,4.3-4.22,1.84-1.02,3.96-1.53,6.38-1.53s4.54.5,6.38,1.51c1.84,1.01,3.27,2.41,4.3,4.2,1.03,1.79,1.55,3.88,1.55,6.25s-.52,4.39-1.55,6.18c-1.03,1.79-2.46,3.2-4.3,4.22-1.84,1.02-3.97,1.53-6.38,1.53ZM30.27,17.84c1.4,0,2.54-.54,3.44-1.63.9-1.08,1.35-2.51,1.35-4.29,0-1.2-.21-2.25-.61-3.16-.41-.91-.98-1.62-1.69-2.14-.72-.52-1.56-.78-2.51-.78-1.4,0-2.54.56-3.42,1.68-.89,1.12-1.33,2.59-1.33,4.4s.44,3.2,1.33,4.29c.89,1.09,2.04,1.63,3.46,1.63Z"/>
      <path class="cls-1" d="M44.52,23.36V.5h6.91l5.71,11.1L62.73.5h6.91v22.86h-6.91v-11.96l-4.22,7.97h-2.82l-4.25-7.97v11.96h-6.91Z"/>
      <path class="cls-1" d="M72.63,23.36V.5h6.91l5.71,11.1L90.84.5h6.91v22.86h-6.91v-11.96l-4.22,7.97h-2.82l-4.25-7.97v11.96h-6.91Z"/>
      <path class="cls-1" d="M112,23.89c-2.41,0-4.54-.51-6.38-1.53-1.84-1.02-3.27-2.43-4.3-4.22-1.03-1.79-1.54-3.85-1.54-6.18s.52-4.42,1.54-6.21c1.03-1.79,2.46-3.2,4.3-4.22,1.84-1.02,3.96-1.53,6.38-1.53s4.54.5,6.38,1.51c1.84,1.01,3.27,2.41,4.3,4.2,1.03,1.79,1.55,3.88,1.55,6.25s-.52,4.39-1.55,6.18c-1.03,1.79-2.46,3.2-4.3,4.22-1.84,1.02-3.97,1.53-6.38,1.53ZM112,17.84c1.4,0,2.54-.54,3.44-1.63.9-1.08,1.35-2.51,1.35-4.29,0-1.2-.21-2.25-.61-3.16-.41-.91-.98-1.62-1.69-2.14-.72-.52-1.56-.78-2.51-.78-1.4,0-2.54.56-3.42,1.68-.89,1.12-1.33,2.59-1.33,4.4s.44,3.2,1.33,4.29c.89,1.09,2.04,1.63,3.46,1.63Z"/>
      <path class="cls-1" d="M126.25,23.36V.5h6.65l8.97,12.13V.5h6.11v22.86h-6.65l-8.97-11.63v11.63h-6.11Z"/>
      <path class="cls-1" d="M155.09,23.36L149.91.5h7.48l2.16,14.25,2.23-10.37h7.74l2.26,10.37,2.16-14.25h7.48l-5.18,22.86h-7.74l-2.82-12.53-2.82,12.53h-7.74Z"/>
      <path class="cls-1" d="M183.33,23.36V.5h16.05v5.05h-7.97v4.05h7.28v4.19h-7.28v4.35h7.97v5.22h-16.05Z"/>
      <path class="cls-1" d="M200.01,23.36L206.33.5h10.76l6.61,22.86h-8.14l-.86-4.39h-5.91l-.96,4.39h-7.81ZM209.48,14.88h4.42l-2.16-10-2.26,10Z"/>
      <path class="cls-1" d="M224.83,23.36V.5h7.18v17.61h8.11l-.33,5.25h-14.95Z"/>
      <path class="cls-1" d="M243.51,23.36V5.75h-5.15V.5h18.04v5.25h-5.15v17.61h-7.74Z"/>
      <path class="cls-1" d="M257.83,23.36V.5h7.48v8.61h7.08V.5h7.51v22.86h-7.51v-9h-7.08v9h-7.48Z"/>
      <path class="cls-1" d="M299.36,23.89c-2.39,0-4.48-.48-6.26-1.45-1.78-.96-3.17-2.32-4.15-4.07s-1.48-3.79-1.48-6.11.52-4.51,1.54-6.35c1.03-1.84,2.45-3.28,4.25-4.34,1.81-1.05,3.88-1.58,6.23-1.58,2.61,0,4.66.51,6.15,1.53l-.9,5.28c-.64-.31-1.31-.54-2.01-.68-.7-.14-1.36-.22-1.98-.22-1.82,0-3.25.54-4.29,1.63-1.04,1.09-1.56,2.59-1.56,4.52,0,1.82.5,3.24,1.51,4.27,1.01,1.03,2.41,1.55,4.2,1.55.71,0,1.36-.07,1.94-.2.59-.13,1.31-.38,2.18-.73l.93,5.25c-1.93,1.13-4.03,1.7-6.31,1.7Z"/>
      <path class="cls-1" d="M324.71,23.89c-1.59,0-2.91-.24-3.95-.71-1.04-.48-1.87-1.13-2.49-1.98s-1.09-1.83-1.4-2.96c-.31-1.13-.52-2.35-.63-3.66h-1.56v8.77h-7.28V.5h9.4c3.63,0,6.25.64,7.86,1.91,1.61,1.27,2.41,3,2.41,5.17,0,1.31-.35,2.48-1.06,3.51-.71,1.03-1.85,1.89-3.42,2.58.09.49.17.89.23,1.2.07.31.17.65.3,1.03.29.8.65,1.35,1.08,1.66.43.31,1.02.47,1.78.47.49,0,.97-.07,1.46-.2l.4,5.45c-.44.18-.91.33-1.41.45-.5.12-1.07.18-1.71.18ZM314.67,10.03h1.26c1.64,0,2.8-.18,3.47-.55.67-.37,1.01-.99,1.01-1.88,0-.75-.28-1.3-.83-1.65-.55-.34-1.43-.51-2.62-.51h-2.29v4.58Z"/>
      <path class="cls-1" d="M329.19,23.36V.5h16.05v5.05h-7.97v4.05h7.28v4.19h-7.28v4.35h7.97v5.22h-16.05Z"/>
      <path class="cls-1" d="M345.87,23.36l6.31-22.86h10.77l6.61,22.86h-8.14l-.86-4.39h-5.92l-.96,4.39h-7.81ZM355.34,14.88h4.42l-2.16-10-2.26,10Z"/>
      <path class="cls-1" d="M372.62,23.36V5.75h-5.15V.5h18.04v5.25h-5.15v17.61h-7.74Z"/>
      <path class="cls-1" d="M386.94,23.36V.5h7.51v22.86h-7.51Z"/>
      <path class="cls-1" d="M402.35,23.36l-6.78-22.86h7.84l3.52,14.25,3.52-14.25h7.51l-7.14,22.86h-8.47Z"/>
      <path class="cls-1" d="M418.93,23.36V.5h16.05v5.05h-7.97v4.05h7.28v4.19h-7.28v4.35h7.97v5.22h-16.05Z"/>
    </g>
  </g>
</svg>