<?xml version="1.0" encoding="UTF-8"?>
<svg id="Layer_2" xmlns="http://www.w3.org/2000/svg" viewBox="0 0 302.07 302.07">
  <defs>
    <style>
      .cls-1 {
        fill: #fff;
      }
    </style>
  </defs>
  <g id="outline">
    <g>
      <path class="cls-1" d="M155.24.06C71.99-2.26,2.38,63.58.06,146.83c-2.32,83.25,63.52,152.86,146.77,155.18,83.25,2.32,152.86-63.52,155.18-146.77C304.33,71.99,238.49,2.38,155.24.06ZM294.02,155.02c-2.2,78.84-68.12,141.19-146.96,139C68.21,291.82,5.86,225.89,8.06,147.05,10.25,68.21,76.18,5.86,155.02,8.06c78.84,2.2,141.19,68.12,139,146.96Z"/>
      <path class="cls-1" d="M62.33,77.71c1.12,0,2.22-.46,3.02-1.37,10.02-11.49,21.99-20.7,35.57-27.38,1.98-.98,2.8-3.37,1.82-5.35-.98-1.98-3.37-2.8-5.35-1.82-14.54,7.15-27.34,17.01-38.07,29.3-1.45,1.66-1.28,4.19.38,5.64.76.66,1.7.99,2.63.99Z"/>
      <path class="cls-1" d="M201.16,48.96c13.58,6.68,25.55,15.89,35.57,27.38.79.91,1.9,1.37,3.02,1.37.93,0,1.87-.32,2.63-.99,1.66-1.45,1.84-3.98.38-5.64-10.72-12.29-23.53-22.15-38.07-29.3-1.98-.98-4.38-.16-5.35,1.82-.98,1.98-.16,4.38,1.82,5.35Z"/>
      <path class="cls-1" d="M151.04,245.04c51.83,0,94-42.17,94-94s-42.17-94-94-94-94,42.17-94,94,42.17,94,94,94ZM151.04,65.04c47.42,0,86,38.58,86,86s-38.58,86-86,86-86-38.58-86-86,38.58-86,86-86Z"/>
      <path class="cls-1" d="M185.27,139.14c2.77,0,5.01-2.24,5.01-5.01v-10.64h-33.18v10.02h23.16v.63c0,2.77,2.24,5.01,5.01,5.01Z"/>
      <path class="cls-1" d="M95.13,178.58h16.67s10.01,0,10.01,0h0s22.74,0,22.74,0v-10.02h-22.74s-10.01,0-10.01,0h0s-11.66,0-11.66,0v-35.05h44.42v-10.02h-49.43c-2.77,0-5.01,2.24-5.01,5.01v45.07c0,2.77,2.24,5.01,5.01,5.01Z"/>
      <path class="cls-1" d="M206.94,185.46c-2.77,0-5.01,2.24-5.01,5.01v.63h-30.55v.05h-17.88v-.05h-31.69v-11.25h-10.01v16.26c0,2.77,2.24,5.01,5.01,5.01h95.14v-10.64c0-2.77-2.24-5.01-5.01-5.01Z"/>
      <polygon class="cls-1" points="155.83 182.51 155.83 178.58 155.83 168.56 155.83 164.63 155.83 157.32 145.82 157.32 145.82 164.63 145.82 168.56 145.82 178.58 145.82 182.51 145.82 189.89 155.83 189.89 155.83 182.51"/>
      <path class="cls-1" d="M190.27,167.94c0-2.77-2.24-5.01-5.01-5.01s-5.01,2.24-5.01,5.01v.63h-23.16v10.02h33.18v-10.64Z"/>
      <path class="cls-1" d="M155.83,146.03h-39.03c-2.77,0-5.01,2.24-5.01,5.01v16.26h10.01v-11.25h24s10.02.01,10.02.01h0s46.1-.01,46.1-.01v.63c0,2.77,2.24,5.01,5.01,5.01s5.01-2.24,5.01-5.01v-10.64h-56.12Z"/>
      <path class="cls-1" d="M95.13,116.61c2.77,0,5.01-2.24,5.01-5.01v-.63h45.73v33.79h10.02v-33.79h51.06c2.77,0,5.01-2.24,5.01-5.01v-5.01h-116.82c-2.77,0-5.01,2.24-5.01,5.01v5.63c0,2.77,2.24,5.01,5.01,5.01Z"/>
      <path class="cls-1" d="M146.35,35.71l-.42,2.45c-.13.75.18,1.51.8,1.96.62.45,1.43.51,2.11.15l2.2-1.16,2.2,1.16c.29.15.61.23.93.23.41,0,.83-.13,1.18-.38.62-.45.92-1.21.79-1.96l-.42-2.45,1.78-1.74c.54-.53.74-1.33.51-2.05s-.86-1.25-1.62-1.36l-2.46-.36-1.1-2.23c-.34-.68-1.03-1.11-1.79-1.11s-1.46.43-1.79,1.11l-1.1,2.23-2.46.36c-.75.11-1.38.64-1.61,1.36-.23.72-.04,1.52.51,2.05l1.78,1.74Z"/>
      <path class="cls-1" d="M173.35,39.71l-.42,2.45c-.13.75.18,1.51.79,1.96.62.45,1.43.51,2.11.15l2.2-1.16,2.2,1.16c.29.15.61.23.93.23.41,0,.83-.13,1.18-.38.62-.45.92-1.21.79-1.96l-.42-2.45,1.78-1.74c.54-.53.74-1.33.51-2.05s-.86-1.25-1.62-1.36l-2.46-.36-1.1-2.23c-.34-.68-1.03-1.11-1.79-1.11s-1.46.43-1.79,1.11l-1.1,2.23-2.46.36c-.75.11-1.38.64-1.62,1.36s-.04,1.52.51,2.05l1.78,1.74Z"/>
      <path class="cls-1" d="M119.35,39.71l-.42,2.45c-.13.75.18,1.51.8,1.96.62.45,1.43.51,2.11.15l2.2-1.16,2.2,1.16c.29.15.61.23.93.23.41,0,.83-.13,1.18-.38.62-.45.92-1.21.8-1.96l-.42-2.45,1.78-1.74c.55-.53.74-1.33.51-2.05-.24-.72-.86-1.25-1.61-1.36l-2.46-.36-1.1-2.23c-.34-.68-1.03-1.11-1.79-1.11s-1.46.43-1.79,1.11l-1.1,2.23-2.46.36c-.75.11-1.38.64-1.61,1.36-.23.72-.04,1.52.51,2.05l1.78,1.74Z"/>
      <polygon class="cls-1" points="44.66 112.46 49.38 114.43 56.12 98.31 51.39 96.34 49.54 100.78 32.89 93.82 29.87 101.06 46.51 108.02 44.66 112.46"/>
      <path class="cls-1" d="M37.12,130.63c1.76-.87,2.88-2.35,3.34-4.45.3-1.38.25-2.63-.16-3.74-.41-1.11-1.14-2.04-2.2-2.77l9.6,2.11.5-7.16-21.67-4.75-1.52,6.94,7.69,1.69c.81.18,1.5.5,2.07.95.57.46.96.97,1.19,1.55.23.58.29,1.13.17,1.66-.16.72-.53,1.23-1.13,1.53-.59.29-1.36.34-2.3.13l-8.91-1.95-1.51,6.9,8.22,1.8c2.65.58,4.86.44,6.62-.43Z"/>
      <path class="cls-1" d="M25.86,144.33c.04-.99.25-1.78.62-2.37.37-.59.96-1.01,1.75-1.24l.9,10.14c.18.05.47.09.87.1,1.55.06,2.96-.17,4.22-.7,1.27-.53,2.29-1.37,3.07-2.52.78-1.15,1.2-2.55,1.27-4.21.07-1.73-.22-3.31-.88-4.75-.66-1.44-1.63-2.61-2.92-3.49-1.29-.88-2.79-1.36-4.49-1.43-1.66-.07-3.16.28-4.51,1.03-1.34.75-2.42,1.84-3.23,3.25-.81,1.42-1.25,3.05-1.33,4.92-.1,2.49.26,4.79,1.1,6.92l4.54-.66c-.71-1.8-1.04-3.47-.98-4.99ZM33.66,141.41c.59.5.86,1.15.83,1.95-.06,1.35-.8,2.17-2.22,2.47l-.93-5.26c.96.06,1.74.34,2.32.84Z"/>
      <path class="cls-1" d="M29.95,174.38c-.23-.58-.41-1.21-.53-1.89-.3-1.79-.02-3.28.86-4.47.88-1.19,2.26-1.94,4.14-2.26,1.92-.33,3.48-.1,4.67.67s1.94,2.05,2.24,3.82c.22,1.28.16,2.77-.16,4.47l5.3.02c.39-.91.63-1.96.73-3.16.09-1.2.04-2.4-.17-3.59-.38-2.21-1.23-4.12-2.56-5.71-1.33-1.6-2.99-2.75-4.98-3.46-1.99-.71-4.11-.87-6.37-.49-2.21.38-4.14,1.24-5.79,2.61-1.65,1.36-2.84,3.03-3.59,5.01-.74,1.98-.93,4.08-.55,6.29.39,2.28,1.31,4.29,2.76,6.02l5.09-1.82c-.5-.8-.87-1.49-1.1-2.07Z"/>
      <path class="cls-1" d="M40.04,197.09c1.61-.57,2.89-1.45,3.85-2.65.96-1.2,1.53-2.61,1.73-4.24.2-1.63-.03-3.34-.66-5.14-.63-1.78-1.53-3.24-2.7-4.38-1.17-1.15-2.51-1.89-4.02-2.23-1.51-.34-3.08-.23-4.68.34-1.61.57-2.89,1.46-3.86,2.67s-1.55,2.63-1.75,4.27c-.21,1.63,0,3.34.64,5.11.64,1.8,1.55,3.27,2.73,4.41s2.52,1.88,4.04,2.21c1.51.33,3.08.21,4.71-.37ZM33.35,189.21c-.31-.87-.24-1.7.21-2.48.45-.79,1.18-1.36,2.19-1.72s1.94-.37,2.79-.04c.84.33,1.42.93,1.73,1.8s.24,1.7-.21,2.49c-.45.79-1.18,1.36-2.19,1.72-1.02.36-1.94.37-2.79.04-.84-.33-1.42-.93-1.73-1.8Z"/>
      <path class="cls-1" d="M61.38,223.4c.81-1.17,1.23-2.35,1.28-3.55.05-1.2-.28-2.34-.99-3.43-1.49-2.29-3.66-3.38-6.49-3.25.67-1.03,1.02-2.13,1.04-3.31.02-1.18-.33-2.32-1.05-3.43-.73-1.13-1.64-1.93-2.71-2.4-1.07-.47-2.37-.66-3.89-.58l2.88-1.87-3.69-5.67-13.94,9.08,3.88,5.95,7.16-4.67c.77-.5,1.58-.71,2.42-.61.84.1,1.47.46,1.88,1.1.39.6.45,1.23.18,1.87-.27.65-.89,1.28-1.85,1.91l-7.05,4.59,3.84,5.9,7.16-4.67c.77-.5,1.58-.7,2.42-.59.85.11,1.48.48,1.89,1.12.38.58.43,1.2.16,1.85-.27.65-.89,1.28-1.85,1.91l-7.05,4.59,3.88,5.95,7.05-4.59c1.49-.97,2.63-2.04,3.44-3.2Z"/>
      <path class="cls-1" d="M87.39,242.33c-.3-1.16-.94-2.16-1.94-3-2.09-1.77-4.48-2.18-7.15-1.24.35-1.18.36-2.33.04-3.47s-.98-2.13-1.99-2.99c-1.03-.87-2.12-1.38-3.28-1.52-1.16-.14-2.46.05-3.89.57l2.22-2.62-5.17-4.37-10.73,12.7,5.42,4.58,5.52-6.53c.59-.7,1.31-1.13,2.14-1.28s1.54.02,2.12.51c.55.46.78,1.04.71,1.74-.08.7-.48,1.49-1.22,2.36l-5.43,6.43,5.37,4.54,5.52-6.53c.59-.7,1.31-1.12,2.15-1.27.84-.14,1.55.03,2.13.53.53.45.76,1.02.68,1.72-.08.7-.48,1.49-1.22,2.36l-5.43,6.43,5.42,4.58,5.43-6.43c1.14-1.35,1.94-2.71,2.37-4.06.44-1.35.51-2.61.21-3.77Z"/>
      <path class="cls-1" d="M106.21,255.49c-.14-1.53-.7-2.95-1.68-4.26-.98-1.31-2.33-2.4-4.03-3.26-1.68-.85-3.34-1.28-4.98-1.3-1.64-.02-3.12.37-4.45,1.17-1.33.8-2.38,1.96-3.15,3.48-.77,1.52-1.08,3.05-.94,4.6.14,1.54.7,2.97,1.68,4.29.98,1.32,2.31,2.41,3.99,3.26,1.7.86,3.38,1.29,5.02,1.3,1.64,0,3.12-.39,4.44-1.19,1.32-.8,2.37-1.98,3.15-3.52.77-1.52,1.08-3.05.95-4.57ZM99.46,257.14c-.48.96-1.15,1.62-1.99,1.96-.84.34-1.67.31-2.49-.11-.82-.41-1.34-1.06-1.57-1.94-.22-.88-.09-1.8.39-2.76s1.15-1.61,1.99-1.96c.84-.34,1.67-.31,2.49.11.82.41,1.34,1.06,1.57,1.94.22.88.09,1.8-.39,2.76Z"/>
      <path class="cls-1" d="M122.89,256.43c-2.72-.78-5.06-.1-7.03,2.04l.95-3.3-6.5-1.87-4.59,15.98,6.83,1.96,2.17-7.57c.23-.8.59-1.46,1.08-2,.49-.54,1.03-.9,1.63-1.09.59-.19,1.15-.21,1.66-.06.71.2,1.2.61,1.45,1.22.26.61.25,1.38-.01,2.31l-2.52,8.77,6.79,1.95,2.32-8.09c.75-2.61.75-4.82,0-6.64-.75-1.82-2.16-3.02-4.23-3.61Z"/>
      <polygon class="cls-1" points="148.47 271.49 146.87 260.15 141.1 259.76 138.04 270.52 136.86 259.48 130.01 259.02 132.57 276.09 140.33 276.61 142.71 267.83 143.99 276.86 152.02 277.4 156.65 260.81 151.14 260.44 148.47 271.49"/>
      <path class="cls-1" d="M168.94,271.34c-.98.12-1.79.05-2.44-.22s-1.15-.78-1.51-1.52l9.86-2.56c.02-.18,0-.48-.04-.88-.19-1.54-.66-2.89-1.39-4.05-.74-1.16-1.73-2.03-2.99-2.61-1.26-.58-2.71-.76-4.36-.55-1.71.22-3.23.77-4.54,1.66-1.31.89-2.3,2.04-2.96,3.46s-.88,2.97-.67,4.66c.21,1.65.79,3.07,1.76,4.27.97,1.2,2.21,2.08,3.74,2.65,1.53.57,3.22.73,5.07.5,2.47-.31,4.69-1.05,6.64-2.23l-1.4-4.37c-1.66,1-3.25,1.6-4.76,1.79ZM164.78,264.13c.39-.66.99-1.04,1.79-1.14,1.34-.17,2.27.43,2.8,1.78l-5.03,1.79c-.1-.96.05-1.77.44-2.43Z"/>
      <path class="cls-1" d="M187.47,253.95l1.17,3.73c-.88-1.09-1.9-1.79-3.04-2.12s-2.28-.31-3.39.04c-1.37.43-2.56,1.19-3.56,2.28-1,1.09-1.67,2.37-2,3.85-.34,1.48-.26,2.99.22,4.53.49,1.56,1.3,2.87,2.42,3.92s2.41,1.75,3.85,2.11c1.44.36,2.86.32,4.25-.11,2.44-.76,3.86-2.39,4.25-4.89l.93,2.99,6.75-2.11-5.1-16.32-6.75,2.11ZM189.8,264.85c-.42.8-1.06,1.34-1.91,1.6-.88.27-1.74.2-2.57-.22-.84-.42-1.4-1.08-1.68-1.98-.27-.88-.2-1.73.24-2.56.43-.83,1.1-1.38,2-1.67.81-.25,1.63-.18,2.45.22s1.38,1.03,1.7,1.87l.08.26c.22.85.12,1.67-.3,2.47Z"/>
      <path class="cls-1" d="M209.63,257.31c-.69.34-1.23.44-1.62.33-.39-.12-.73-.46-1.01-1.03l-7.15-14.6-5.92,4.06,6.91,14.12c.92,1.88,2.11,3.12,3.57,3.74,1.46.62,3.05.51,4.77-.33,1.67-.82,3.02-1.9,4.03-3.25l-2.28-4.13c-.37.48-.8.84-1.3,1.09Z"/>
      <path class="cls-1" d="M221.45,250.13c-.55.35-1.06.49-1.53.41-.47-.07-.86-.35-1.16-.82l-3.06-4.83,3.3-2.09-2.24-3.53-3.3,2.09-3.41-5.37-2.87,1.82.76,7.05-2.25,1.42,2.24,3.53,1.82-1.15,3.52,5.54c1.07,1.69,2.37,2.71,3.91,3.08,1.54.37,3.14.02,4.8-1.03.7-.45,1.37-1,2-1.65.63-.66,1.1-1.27,1.39-1.86l-2.75-3.84c-.27.49-.66.9-1.18,1.22Z"/>
      <path class="cls-1" d="M233.04,228.2c-1.93-.34-3.71.2-5.33,1.62-1.06.94-1.75,1.97-2.08,3.11-.33,1.14-.28,2.32.13,3.54l-6.5-7.37-4.64,5.48,14.67,16.64,5.33-4.7-5.21-5.91c-.55-.62-.92-1.29-1.1-1.99s-.2-1.36-.04-1.96c.16-.6.44-1.08.84-1.44.56-.49,1.16-.68,1.81-.57.65.11,1.3.53,1.94,1.25l6.03,6.84,5.3-4.67-5.56-6.31c-1.79-2.04-3.66-3.23-5.59-3.57Z"/>
      <path class="cls-1" d="M255.61,214.13c-.24.57-.56,1.14-.97,1.71-1.05,1.48-2.31,2.33-3.77,2.54-1.46.21-2.97-.23-4.52-1.34-1.59-1.13-2.53-2.39-2.82-3.79s.08-2.82,1.13-4.28c.75-1.06,1.85-2.07,3.28-3.04l-3.72-3.77c-.92.36-1.84.94-2.75,1.72-.91.78-1.72,1.67-2.43,2.65-1.3,1.83-2.05,3.78-2.24,5.84-.19,2.07.16,4.06,1.07,5.96.9,1.91,2.28,3.53,4.15,4.85,1.83,1.3,3.81,2.05,5.93,2.26,2.13.21,4.16-.13,6.08-1s3.54-2.22,4.85-4.05c1.34-1.88,2.11-3.95,2.31-6.21l-4.88-2.32c-.21.92-.44,1.67-.68,2.24Z"/>
      <path class="cls-1" d="M255.44,199.03l-3.06-1.56-3.22,6.33,14.82,7.55,3.22-6.33-7.8-3.97c-.88-.45-1.3-1.22-1.25-2.32s.55-2.6,1.52-4.5l-5.33-1.62c-.54,1.06-.73,2.13-.56,3.21.17,1.08.72,2.15,1.67,3.21Z"/>
      <path class="cls-1" d="M270.69,180.89c.17,1.93,0,3.62-.49,5.06-.32.93-.74,1.63-1.27,2.09s-1.2.69-2.03.69l2.03-9.98c-.16-.1-.42-.22-.81-.35-1.47-.5-2.88-.68-4.25-.53-1.37.15-2.59.66-3.66,1.54-1.07.88-1.88,2.1-2.41,3.67-.56,1.64-.73,3.24-.51,4.81.22,1.57.83,2.96,1.81,4.18.98,1.21,2.28,2.1,3.9,2.65,1.57.54,3.11.64,4.61.3s2.85-1.07,4.03-2.2c1.18-1.13,2.07-2.57,2.67-4.33.81-2.36,1.11-4.67.92-6.94l-4.54-.66ZM263.88,187.99c-.91-.33-1.57-.82-1.99-1.46-.42-.64-.5-1.35-.24-2.11.44-1.27,1.38-1.85,2.83-1.73l-.61,5.31Z"/>
      <path class="cls-1" d="M262.71,161.69l3.86.59c-1.37.31-2.44.92-3.24,1.8-.79.89-1.28,1.91-1.46,3.06-.22,1.42-.06,2.82.48,4.19.54,1.38,1.4,2.54,2.58,3.49,1.18.95,2.57,1.55,4.17,1.8,1.62.25,3.15.1,4.58-.46,1.44-.55,2.63-1.4,3.59-2.53s1.55-2.43,1.77-3.87c.39-2.53-.45-4.52-2.53-5.97l3.09.47,1.07-6.99-16.9-2.59-1.07,6.99ZM267.47,165.79c.13-.84.55-1.54,1.28-2.1.72-.56,1.53-.79,2.42-.7l.27.04c.86.18,1.56.63,2.09,1.36.54.73.74,1.54.6,2.42-.14.91-.58,1.65-1.33,2.21-.75.57-1.58.78-2.52.64-.91-.14-1.64-.59-2.2-1.34-.55-.75-.76-1.6-.62-2.53Z"/>
      <path class="cls-1" d="M274.98,140.37c.28.49.42,1.04.43,1.64.01.65-.14,1.16-.45,1.52-.31.36-.74.55-1.3.56l-5.72.09-.06-3.9-4.17.07.06,3.9-6.36.1.06,3.4,6.41,3.03.04,2.66,4.17-.07-.04-2.15,6.56-.11c2-.03,3.55-.61,4.67-1.73,1.12-1.12,1.66-2.66,1.62-4.64-.01-.83-.13-1.69-.36-2.57-.23-.88-.51-1.6-.86-2.16l-4.71.35Z"/>
      <path class="cls-1" d="M274.19,128.91c.05.45-.05.82-.29,1.14-.25.31-.63.5-1.14.55l-10,1.15.82,7.09,10.3-1.19c2.07-.24,3.65-.95,4.73-2.14,1.08-1.19,1.52-2.72,1.3-4.59-.1-.85-.29-1.65-.58-2.42-.29-.77-.66-1.38-1.09-1.82l-4.61.9c.32.44.51.88.56,1.32Z"/>
      <path class="cls-1" d="M259.98,138.36c.57-.8.8-1.72.68-2.77-.12-1-.54-1.85-1.27-2.53-.73-.68-1.59-.97-2.57-.86-.91.11-1.66.57-2.25,1.39-.58.82-.82,1.75-.7,2.77.11.98.54,1.81,1.27,2.5.73.68,1.58.97,2.54.86.96-.11,1.72-.57,2.3-1.37Z"/>
      <polygon class="cls-1" points="259.79 117.25 270.2 117.3 261 122.22 262.86 129.8 277.92 120.4 275.98 112.46 258.32 111.26 259.79 117.25"/>
      <path class="cls-1" d="M257.34,107.02c1.21,1.02,2.59,1.66,4.13,1.92,1.54.25,3.1.05,4.67-.61,1.53-.64,2.75-1.59,3.64-2.85.9-1.25,1.41-2.69,1.54-4.32.13-1.63-.16-3.3-.88-5.01-.96-2.3-2.28-4.23-3.93-5.8l-3.83,2.52c1.41,1.33,2.41,2.7,3,4.11.38.91.53,1.71.45,2.41s-.44,1.32-1.06,1.87l-5.12-8.8c-.18.03-.46.12-.83.28-1.43.6-2.6,1.41-3.52,2.43-.92,1.02-1.49,2.21-1.71,3.58-.22,1.37,0,2.82.64,4.35.67,1.59,1.61,2.9,2.82,3.93ZM259.24,98.34l3.08,4.37c-.9.35-1.72.43-2.46.23s-1.27-.67-1.58-1.42c-.52-1.24-.2-2.3.96-3.18Z"/>
      <polygon class="cls-1" points="144.06 88.58 140.41 88.58 140.41 86.56 143.74 86.56 143.74 84.64 140.41 84.64 140.41 82.74 144.06 82.74 144.06 80.43 136.72 80.43 136.72 90.89 144.06 90.89 144.06 88.58"/>
      <path class="cls-1" d="M147.89,86.69c.67.19,1.17.35,1.51.49s.56.25.67.36c.11.11.17.23.17.37,0,.21-.1.37-.31.48-.21.11-.54.16-.98.16-.82,0-1.75-.19-2.8-.56l-.76,2.36c.98.53,2.19.79,3.62.79s2.51-.3,3.24-.9c.73-.6,1.1-1.47,1.1-2.59,0-.81-.27-1.51-.82-2.09-.55-.58-1.35-1.02-2.42-1.3-.68-.19-1.13-.35-1.35-.48-.22-.13-.33-.28-.33-.46,0-.37.33-.55,1-.55.4,0,.8.04,1.22.13.42.09.92.23,1.48.42l.82-2.3c-.49-.26-1.04-.46-1.67-.6-.63-.14-1.27-.21-1.92-.21-1.25,0-2.24.29-2.97.86-.74.57-1.1,1.42-1.1,2.53,0,.72.23,1.36.68,1.91.46.55,1.1.95,1.92,1.19Z"/>
      <polygon class="cls-1" points="156.4 90.89 159.94 90.89 159.94 82.74 162.12 82.74 162.12 80.43 154.22 80.43 154.22 82.74 156.4 82.74 156.4 90.89"/>
      <path class="cls-1" d="M164.11,90.98c.55,0,.97-.14,1.26-.42.29-.28.44-.66.44-1.13,0-.43-.16-.79-.47-1.09-.31-.3-.73-.45-1.23-.45s-.93.14-1.25.43c-.31.28-.47.65-.47,1.11s.15.82.46,1.11c.3.29.73.44,1.26.44Z"/>
      <path class="cls-1" d="M139.66,216.86c.61-.78.91-1.62.91-2.53,0-.61-.14-1.15-.42-1.62-.28-.47-.68-.85-1.2-1.12-.52-.27-1.13-.41-1.83-.41-.59,0-1.15.07-1.68.21-.53.14-1.07.35-1.62.63l.73,2.22c.67-.39,1.31-.58,1.92-.58.33,0,.59.09.78.25.19.17.29.41.29.73,0,.49-.3,1.1-.9,1.84-.6.74-1.48,1.63-2.66,2.69v2.1h6.51v-2.18h-3.6c1.22-.71,2.14-1.45,2.75-2.23Z"/>
      <path class="cls-1" d="M148.74,211.74c-.71-.44-1.51-.66-2.4-.66s-1.7.22-2.41.66c-.71.44-1.27,1.05-1.67,1.84-.4.78-.6,1.66-.6,2.65s.2,1.88.6,2.66c.4.78.96,1.39,1.67,1.84.71.44,1.52.66,2.41.66s1.7-.22,2.41-.66c.71-.44,1.27-1.06,1.67-1.84.4-.79.6-1.67.6-2.66s-.2-1.86-.6-2.64c-.4-.79-.96-1.4-1.67-1.84ZM147.73,217.6c-.14.41-.33.73-.57.96-.24.23-.52.35-.81.35-.47,0-.85-.25-1.16-.75-.3-.5-.46-1.15-.46-1.93s.15-1.44.44-1.93c.29-.49.68-.74,1.17-.74s.85.25,1.15.75c.3.5.45,1.14.45,1.92,0,.51-.07.97-.21,1.37Z"/>
      <path class="cls-1" d="M157.73,216.86c.61-.78.91-1.62.91-2.53,0-.61-.14-1.15-.42-1.62-.28-.47-.68-.85-1.2-1.12-.52-.27-1.13-.41-1.83-.41-.59,0-1.15.07-1.68.21-.53.14-1.07.35-1.62.63l.73,2.22c.67-.39,1.31-.58,1.93-.58.33,0,.59.09.78.25.19.17.29.41.29.73,0,.49-.3,1.1-.9,1.84-.6.74-1.48,1.63-2.66,2.69v2.1h6.51v-2.18h-3.6c1.22-.71,2.14-1.45,2.75-2.23Z"/>
      <path class="cls-1" d="M166.82,211.29h-3.34l-3.97,5.46v2.09h4.13v2.43h3.18v-2.42h1.43v-2.07h-1.43v-5.49ZM163.64,216.78h-1.94l1.94-2.95v2.95Z"/>
    </g>
  </g>
</svg>