<?xml version="1.0" encoding="UTF-8"?>
<svg id="Layer_2" xmlns="http://www.w3.org/2000/svg" xmlns:xlink="http://www.w3.org/1999/xlink" viewBox="0 0 584.8 155.72">
  <defs>
    <style>
      .cls-1 {
        fill: url(#linear-gradient);
      }

      .cls-2 {
        fill: #ffecbb;
      }

      .cls-3 {
        fill: #fff;
      }
    </style>
    <linearGradient id="linear-gradient" x1="400.5" y1="-75.17" x2="400.5" y2="-4.21" gradientTransform="translate(0 76)" gradientUnits="userSpaceOnUse">
      <stop offset=".13" stop-color="#ffda81"/>
      <stop offset=".39" stop-color="#ffcd3f"/>
      <stop offset=".74" stop-color="#f1b21d"/>
      <stop offset=".92" stop-color="#df991e"/>
    </linearGradient>
  </defs>
  <g id="Layer_3">
    <g>
      <path class="cls-2" d="M344.55,69.9c-2.8-36.5,25.4-61.9,55.9-61.9s58.4,25.2,56,61.4c2.5,1.2,4.9,2.5,7.1,3.8.5-3.1.7-6.2.7-9.4,0-35.2-28.6-63.8-63.8-63.8s-63.8,28.6-63.8,63.8c0,3.3.3,6.6.7,9.8,2.4-1.3,4.8-2.5,7.2-3.7Z"/>
      <path class="cls-1" d="M385.65,66.2c.9-6.9,6.6-12.3,13.7-12.3s12.8,5.2,13.8,12c21.8,1.2,42.8,5.7,59.5,13.7-4.7-3.9-10.2-7.3-16.2-10.2,2.5-36.2-25.6-61.4-56-61.4s-58.7,25.4-55.9,61.9c-5.9,2.7-11.4,6-16.2,9.7,16.7-7.4,36.7-11.9,57.3-13.4Z"/>
    </g>
    <g>
      <path class="cls-3" d="M0,80.82l1.65-17.28,1.54-1.34h58.95l1.44,1.34,1.75,17.28h-2.16c-3.43-10.7-10.05-16.05-19.86-16.05h-3.5v51.85c0,1.65.24,3.34.72,5.09.48,1.75,1.49,3.43,3.04,5.04,1.54,1.61,3.48,2.42,5.81,2.42v1.96H15.95v-1.96c3.29,0,5.71-1.39,7.25-4.17,1.54-2.78,2.31-5.57,2.31-8.39v-51.85h-3.5c-9.81,0-16.43,5.35-19.86,16.05H0Z"/>
      <path class="cls-3" d="M65.02,67.75v-1.44l19.34-7.2h1.23v27.68c3.98-3.98,9.26-5.93,15.84-5.86,3.29,0,6.12.5,8.49,1.49,2.37,1,4.12,2.31,5.25,3.96,1.13,1.65,1.94,3.26,2.42,4.84.48,1.58.72,3.19.72,4.84v22.43c0,2.61.46,4.77,1.39,6.48.93,1.72,1.83,2.85,2.73,3.4.89.55,1.71.82,2.47.82v1.96h-27.98v-1.96c1.58,0,3.22-.88,4.94-2.62,1.71-1.75,2.57-4.54,2.57-8.38v-23.15c0-2.4-.88-4.71-2.62-6.94-1.75-2.23-4.37-3.24-7.87-3.04-1.78.14-3.46.82-5.04,2.06-1.58,1.23-2.67,2.98-3.29,5.25v25.93c0,3.71.93,6.45,2.78,8.23,1.85,1.78,3.5,2.67,4.94,2.67v1.96h-28.29v-1.96c1.44,0,2.91-.89,4.42-2.67,1.51-1.78,2.26-4.63,2.26-8.54v-40.33c0-3.43-.46-5.92-1.39-7.46-.93-1.54-2.69-2.35-5.3-2.42Z"/>
      <path class="cls-3" d="M125.21,106.85c0-8.16,2.42-14.54,7.25-19.14,4.84-4.59,11.4-6.89,19.7-6.89,6.72,0,12.02,2.18,15.9,6.53,3.87,4.36,5.71,9.93,5.5,16.72h-34.57c.48,7.41,3.26,13.07,8.33,16.98,2.95,2.33,6.76,3.5,11.42,3.5,5.83,0,10.49-1.65,13.99-4.94l1.03.72c-2.26,3.7-5.44,6.6-9.52,8.69-4.08,2.09-8.76,3.14-14.04,3.14-7.55,0-13.6-2.33-18.16-7-4.56-4.66-6.84-10.77-6.84-18.31ZM138.9,101.91l22.02-1.23c0-5.01-1.1-9.24-3.29-12.71-2.2-3.46-5.08-4.99-8.64-4.58-1.92.27-3.58,1.05-4.99,2.31-1.41,1.27-2.45,2.85-3.14,4.73-.69,1.89-1.18,3.76-1.49,5.61s-.46,3.7-.46,5.56v.31Z"/>
      <path class="cls-3" d="M175.11,131.13v-1.96c1.58,0,3.26-.88,5.04-2.62,1.78-1.75,2.67-4.54,2.67-8.38v-19.55c0-3.43-.46-5.92-1.39-7.46-.93-1.54-2.73-2.35-5.4-2.42v-1.34l19.34-6.48h1.34v13.07c4.05-8.71,9.88-13.07,17.49-13.07,3.84,0,6.38,1.72,7.61,5.14,1.03,2.88.79,5.39-.72,7.51-.96,1.17-2.13,1.78-3.5,1.85-1.58,0-3.46-.72-5.66-2.16-2.2-1.44-4.15-2.16-5.86-2.16-3.36,0-6.48,2.33-9.36,7v20.37c0,3.7.91,6.41,2.73,8.13,1.82,1.72,3.45,2.57,4.89,2.57v1.96h-29.22Z"/>
      <path class="cls-3" d="M234.89,131.54c-4.05,0-7.32-1.12-9.83-3.34-2.5-2.23-3.72-5.3-3.65-9.21.21-5.83,3.05-10.22,8.54-13.17,4.87-2.54,11.69-4.8,20.47-6.79.62-.14,1.06-.24,1.34-.31v-.62c0-2.12-.05-3.79-.15-4.99-.1-1.2-.38-2.71-.82-4.53-.45-1.82-1.27-3.17-2.47-4.06-1.2-.89-2.76-1.34-4.68-1.34-2.88.07-4.8,1.05-5.76,2.93-.96,1.89-1.44,4.54-1.44,7.97v3.6c0,1.23-1.23,2.02-3.7,2.37-3.22.48-5.66-.21-7.3-2.06-.96-1.1-1.37-2.5-1.23-4.22.21-2.47.94-4.58,2.21-6.33,1.27-1.75,2.9-3.07,4.89-3.96,1.99-.89,4.01-1.54,6.07-1.95s4.25-.62,6.58-.62c14.61-.34,21.92,4.56,21.92,14.71v23.25c0,2.4.67,4.05,2.01,4.94,1.34.89,3.1.79,5.3-.31l.62,1.23c-2.33,4.53-6.48,6.79-12.45,6.79-2.47,0-4.61-.77-6.43-2.32-1.82-1.54-2.86-3.75-3.14-6.64-3.29,5.97-8.92,8.95-16.87,8.95ZM235.61,117.55c0,2.33.57,4.27,1.7,5.81,1.13,1.54,2.73,2.35,4.78,2.42,2.26.07,4.39-.79,6.38-2.57,1.99-1.78,3.09-3.81,3.29-6.07v-16.26c-4.25,1.44-7.72,3.26-10.39,5.45-3.7,3.02-5.62,6.76-5.76,11.21Z"/>
      <path class="cls-3" d="M300.94,155.72h-29.32v-1.96c1.51,0,3.17-.91,4.99-2.73,1.82-1.82,2.73-4.58,2.73-8.28v-43.32c0-2.06-.12-3.7-.36-4.94-.24-1.23-.89-2.37-1.96-3.4-1.06-1.03-2.56-1.58-4.48-1.65v-1.34l19.34-7.2h1.34v4.94c3.02-3.43,7.61-5.08,13.79-4.94,6.72.07,12.05,2.37,16,6.89,3.94,4.53,5.98,10.29,6.12,17.28.07,4.18-.6,8.2-2.01,12.04-1.41,3.84-3.41,6.93-6.02,9.26-4.46,3.91-9.88,5.86-16.26,5.86-4.39,0-8.27-.76-11.63-2.26v12.76c0,1.99.31,3.75.93,5.3.62,1.54,1.39,2.69,2.31,3.45.93.75,1.78,1.32,2.57,1.7.79.38,1.42.57,1.9.57v1.96ZM293.22,119.5c0,3.29.84,5.8,2.52,7.51,1.68,1.71,3.79,2.61,6.33,2.67,2.26,0,4.41-.65,6.43-1.95s3.58-3.26,4.68-5.87c1.58-3.77,2.3-8.03,2.16-12.76-.07-5.69-1.41-10.73-4.01-15.12-2.61-4.39-6.41-6.58-11.42-6.58-2.74,0-4.97.55-6.69,1.65v30.45Z"/>
      <path class="cls-3" d="M329.75,87.4l17.18-6.48h1.23l18.62,41.05c1.65-2.74,3.21-6.22,4.68-10.44,1.47-4.22,2.21-7.94,2.21-11.16,0-2.13-.51-4.01-1.54-5.66-1.03-1.65-2.02-3.15-2.98-4.53-.96-1.37-1.44-2.85-1.44-4.42,0-2.4,1.37-4.01,4.12-4.84,3.02-.96,5.66-.51,7.92,1.34,1.71,1.44,2.57,3.46,2.57,6.07,0,4.46-2.02,11.25-6.07,20.37-2.06,4.53-4.18,8.71-6.38,12.55-2.26,3.98-5.73,9.81-10.39,17.49-.34.62-1.03,1.8-2.06,3.55-1.03,1.75-1.82,3.07-2.37,3.96-.55.89-1.37,2.04-2.47,3.45-1.1,1.41-2.11,2.47-3.04,3.19-.93.72-2.09,1.37-3.5,1.96-1.41.58-2.86.88-4.37.88-2.06-.07-3.74-.74-5.04-2.01-1.3-1.27-1.92-3.14-1.85-5.61,0-1.58.51-2.97,1.54-4.17,1.03-1.2,2.33-1.8,3.91-1.8,1.1.07,2.26.55,3.5,1.44,1.23.89,2.16,1.47,2.78,1.75,3.22,1.17,6.02,0,8.39-3.5,2.37-3.5,2.69-7.07.98-10.7l-16.15-33.85c-1.44-3.15-2.81-5.35-4.12-6.58-1.3-1.23-3.26-1.89-5.87-1.95v-1.34Z"/>
      <path class="cls-3" d="M392.82,68.18v49.98c0,3.7-.91,6.46-2.73,8.28s-3.48,2.73-4.99,2.73v1.96h29.22v-1.96c-.48,0-1.12-.19-1.9-.57-.79-.38-1.63-.94-2.52-1.7-.89-.75-1.65-1.9-2.26-3.45s-.93-3.31-.93-5.3v-49.98c-1.89.85-3.92,1.33-5.99,1.33-.11,0-.22-.01-.34-.02-.67.19-1.36.34-2.05.44"/>
      <path class="cls-3" d="M428.52,131.54c-4.05,0-7.32-1.12-9.83-3.34-2.5-2.23-3.72-5.3-3.65-9.21.21-5.83,3.05-10.22,8.54-13.17,4.87-2.54,11.69-4.8,20.47-6.79.62-.14,1.06-.24,1.34-.31v-.62c0-2.12-.05-3.79-.15-4.99-.1-1.2-.38-2.71-.82-4.53-.45-1.82-1.27-3.17-2.47-4.06-1.2-.89-2.76-1.34-4.68-1.34-2.88.07-4.8,1.05-5.76,2.93-.96,1.89-1.44,4.54-1.44,7.97v3.6c0,1.23-1.23,2.02-3.7,2.37-3.23.48-5.66-.21-7.31-2.06-.96-1.1-1.37-2.5-1.23-4.22.21-2.47.94-4.58,2.21-6.33,1.27-1.75,2.9-3.07,4.89-3.96,1.99-.89,4.01-1.54,6.07-1.95,2.06-.41,4.25-.62,6.58-.62,14.61-.34,21.92,4.56,21.92,14.71v23.25c0,2.4.67,4.05,2.01,4.94,1.34.89,3.1.79,5.3-.31l.62,1.23c-2.33,4.53-6.48,6.79-12.45,6.79-2.47,0-4.61-.77-6.43-2.32-1.82-1.54-2.86-3.75-3.14-6.64-3.29,5.97-8.92,8.95-16.87,8.95ZM429.24,117.55c0,2.33.57,4.27,1.7,5.81s2.73,2.35,4.78,2.42c2.26.07,4.39-.79,6.38-2.57,1.99-1.78,3.09-3.81,3.29-6.07v-16.26c-4.25,1.44-7.72,3.26-10.39,5.45-3.7,3.02-5.62,6.76-5.76,11.21Z"/>
      <path class="cls-3" d="M467.41,88.74v-1.34l19.34-6.48h1.23v5.97c3.98-4.05,9.29-6.04,15.95-5.97,3.29,0,6.12.5,8.49,1.49,2.37,1,4.12,2.31,5.25,3.96,1.13,1.65,1.94,3.26,2.42,4.84.48,1.58.72,3.19.72,4.84v22.43c0,2.61.46,4.77,1.39,6.48.93,1.72,1.83,2.85,2.73,3.4.89.55,1.71.82,2.47.82v1.96h-27.98v-1.96c1.58,0,3.22-.88,4.94-2.62,1.71-1.75,2.57-4.54,2.57-8.38v-23.15c0-2.4-.88-4.71-2.62-6.94-1.75-2.23-4.37-3.24-7.87-3.04-1.78.14-3.5.87-5.14,2.21-1.65,1.34-2.74,3.17-3.29,5.5v25.72c0,3.7.93,6.41,2.78,8.13,1.85,1.72,3.5,2.57,4.94,2.57v1.96h-28.29v-1.96c1.51,0,3-.86,4.48-2.57,1.47-1.71,2.21-4.53,2.21-8.44v-19.55c0-3.43-.46-5.92-1.39-7.46-.93-1.54-2.69-2.35-5.3-2.42Z"/>
      <path class="cls-3" d="M529.14,107.98c-.14-8.09,2.14-14.64,6.84-19.65,4.7-5.01,10.92-7.51,18.67-7.51,4.46,0,7.92,1.1,10.39,3.29v-6.48c0-3.09-.41-5.49-1.24-7.2-.82-1.71-2.64-2.61-5.45-2.67v-1.44l19.34-7.2h1.23v58.03c0,2.81.43,4.97,1.29,6.48.86,1.51,2.38,2.47,4.58,2.88v1.44l-17.59,4.32-1.96-5.76c-3.43,3.84-8.09,5.73-13.99,5.66-6.79-.07-12.16-2.38-16.1-6.95-3.95-4.56-5.95-10.3-6.02-17.23ZM545.91,88.74c-2.4,3.98-3.46,9.12-3.19,15.43.14,3.36.7,6.58,1.7,9.67.99,3.09,2.69,5.85,5.09,8.28,2.4,2.44,5.31,3.65,8.75,3.65,2.61,0,4.87-.48,6.79-1.44v-30.04c0-2.95-.89-5.5-2.68-7.67-1.78-2.16-4.12-3.24-7-3.24-4.12,0-7.27,1.78-9.46,5.35Z"/>
    </g>
    <path class="cls-3" d="M407.56,68.1c0,4.3-3.5,7.9-7.9,7.9s-7.8-3.6-7.8-7.9,3.4-8,7.8-8c4.4-.1,7.9,3.6,7.9,8Z"/>
  </g>
</svg>