<?xml version="1.0" encoding="UTF-8"?>
<svg id="Layer_2" data-name="Layer 2" xmlns="http://www.w3.org/2000/svg" viewBox="0 0 85.88 76.38">
  <defs>
    <style>
      .cls-1 {
        fill: #fff;
        stroke-width: 0px;
      }
    </style>
  </defs>
  <g id="Layer_6" data-name="Layer 6">
    <g>
      <path class="cls-1" d="m0,0v75.5l.26.08C10.78,50.43,21.3,25.28,31.87,0H0Z"/>
      <path class="cls-1" d="m54.49.03c10.43,24.96,20.8,49.77,31.17,74.58l.21-.09V.03h-31.38Z"/>
      <path class="cls-1" d="m29.21,61.07c4.64,0,8.93.08,13.22-.04,1.4-.04,1.93.48,2.39,1.68,1.58,4.18,3.23,8.34,4.93,12.47.2.49.85,1.14,1.31,1.15,4.03.09,8.05.05,12.44.05-6.79-16.09-13.46-31.92-20.32-48.19-4.74,11.17-9.29,21.88-13.96,32.88Z"/>
    </g>
  </g>
</svg>