<?xml version="1.0" encoding="UTF-8"?>
<svg id="Layer_2" xmlns="http://www.w3.org/2000/svg" viewBox="0 0 1058.9 180">
  <defs>
    <style>
      .cls-1 {
        fill: #fff;
      }

      .cls-2 {
        fill: #88e75e;
      }

      .cls-3 {
        fill: #75cc4c;
      }

      .cls-4 {
        fill: #80da55;
      }
    </style>
  </defs>
  <g id="Layer_2-2" data-name="Layer_2">
    <g id="Capa_1">
      <g>
        <g>
          <path class="cls-3" d="M90.81,168.23c0,4.77,2.23,9.02,5.71,11.77,3.47-2.75,5.71-7,5.71-11.77s-2.23-9.02-5.71-11.77c-3.47,2.75-5.71,7-5.71,11.77Z"/>
          <path class="cls-3" d="M82.94,169.22c3.38-3.38,4.8-7.96,4.29-12.36-4.4-.51-8.98.91-12.36,4.29s-4.8,7.96-4.29,12.36c4.4.51,8.98-.91,12.36-4.29Z"/>
          <path class="cls-3" d="M110.09,169.22c-3.38-3.38-4.8-7.96-4.29-12.36,4.4-.51,8.98.91,12.36,4.29,3.38,3.38,4.8,7.96,4.29,12.36-4.4.51-8.98-.91-12.36-4.29Z"/>
          <path class="cls-2" d="M149.75,43.18c-14.52,0-26.3,11.77-26.3,26.3,0,13.12,3.19,16.37,3.19,16.37,0,0-10.89-5.45-18.78,3.57-7.89,9.02-4.88,23.86-4.88,23.86-2.44-4.32-13.9-8.08-13.9,11.08,0,13.74,6.7,15.9,10.49,16.03.85-.05,1.7-.12,2.54-.22-.02-.35-.03-.69-.03-1.04,0-9.06,6.91-16.53,15.73-17.43-.38-1.7-.57-3.45-.57-5.22,0-12.95,10.4-23.52,23.28-23.81-.41-1.72-.62-3.5-.62-5.32,0-12.61,10.26-22.86,22.86-22.86,4.94,0,9.52,1.58,13.27,4.26,0,0,4.41-23.03-3.29-25.56-4.75-1.56-7.38,1.58-8.7,4.23-4.11-2.67-9.02-4.23-14.29-4.23h0Z"/>
          <path class="cls-2" d="M30.27,64.48c12.61,0,22.86,10.26,22.86,22.86,0,1.82-.21,3.6-.62,5.32,12.89.28,23.28,10.85,23.28,23.81,0,1.77-.19,3.52-.57,5.22,3.51.36,6.71,1.78,9.3,3.9-.01-.41-.02-.82-.02-1.24,0-5.11.88-13.36,6.1-17.16.07-5.13-.79-12.47-5.44-17.78-7.89-9.02-18.78-3.57-18.78-3.57,0,0,3.19-3.25,3.19-16.37,0-14.52-11.77-26.3-26.3-26.3-5.27,0-10.18,1.55-14.29,4.23-1.32-2.64-3.94-5.79-8.7-4.23-7.7,2.53-3.29,25.56-3.29,25.56,3.74-2.68,8.32-4.26,13.27-4.26h0Z"/>
          <path class="cls-4" d="M109.92,52.41c-4.88,8.64,0,15.78,0,15.78,0,0-8.27-3.94-11.08,7.7-1.67,6.91-.57,14.55.61,19.62,1-3.18,2.56-6.34,4.97-9.1,4.62-5.28,10.32-6.83,15.24-6.74-.47-2.66-.78-6-.78-10.19,0-17.02,13.84-30.86,30.86-30.86,4.2,0,8.2.82,11.83,2.31,0,0,1.15-16.74-7.35-23.83-4.87-4.06-8.11-2.36-9.99-.17-8.1-5.68-16.86-7.85-21.34-3.04-10.32,11.08,0,31.93,0,31.93,0,0-8.09-2.07-12.97,6.57v.02Z"/>
          <path class="cls-3" d="M76.68,41.67c3.63,1.02,7.55,3.47,10.39,8.5s3.1,9.69,2.51,13.31c.5.15,1.01.35,1.51.59,2.24,1.06,4.05,2.82,5.42,5.23,1.37-2.41,3.18-4.17,5.42-5.23.51-.24,1.01-.44,1.51-.59-.59-3.61-.34-8.27,2.51-13.31,3.05-5.39,7.17-7.62,10.39-8.51-2.42-7.32-4.89-19.6,1.44-28.65-2.8-5.44-6.19-8.66-9.11-8.04-2.14.46-3.67,2.9-4.47,6.57-1.53-6.9-4.4-11.54-7.68-11.54s-6.14,4.64-7.68,11.54c-.8-3.67-2.33-6.12-4.47-6.57-2.93-.62-6.31,2.6-9.11,8.04,6.33,9.06,3.85,21.35,1.43,28.66h-.01Z"/>
          <path class="cls-3" d="M189.74,74.13c-5.23-2.68-9.4-.33-12.17,2.46-3.33-4.58-8.72-7.55-14.81-7.55-10.11,0-18.3,8.19-18.3,18.3,0,4.28,1.47,8.22,3.94,11.33-2.27-.94-4.75-1.46-7.35-1.46-10.63,0-19.25,8.62-19.25,19.25,0,4.09,1.28,7.88,3.45,10.99-1.71-.83-3.62-1.3-5.64-1.3-7.16,0-12.96,5.8-12.96,12.96,0,1.68.33,3.28.92,4.76-3.46.75-7.14,1.16-11.04,1.16s-7.58-.41-11.04-1.16c.59-1.47.92-3.07.92-4.76,0-7.16-5.8-12.96-12.96-12.96-2.02,0-3.93.48-5.64,1.3,2.17-3.12,3.45-6.9,3.45-10.99,0-10.63-8.62-19.25-19.25-19.25-2.6,0-5.09.52-7.35,1.46,2.46-3.12,3.94-7.05,3.94-11.33,0-10.11-8.19-18.3-18.3-18.3-6.09,0-11.48,2.98-14.81,7.55-2.76-2.79-6.94-5.14-12.17-2.46-9.83,5.05,2.91,34.8,28.16,55.12h0c17.27,14.41,43.08,20.73,65.07,20.73s47.8-6.33,65.07-20.73h0c25.24-20.32,37.98-50.07,28.16-55.12h-.04Z"/>
          <path class="cls-4" d="M43.28,38.62c17.02,0,30.86,13.84,30.86,30.86,0,4.19-.31,7.54-.78,10.19,4.92-.09,10.62,1.46,15.24,6.74,2.42,2.76,3.98,5.92,4.97,9.1,1.18-5.07,2.28-12.71.61-19.62-2.82-11.65-11.08-7.7-11.08-7.7,0,0,4.88-7.14,0-15.78s-12.97-6.57-12.97-6.57c0,0,10.32-20.85,0-31.93-4.48-4.81-13.24-2.64-21.34,3.04-1.88-2.19-5.12-3.89-9.99.17-8.5,7.08-7.35,23.83-7.35,23.83,3.64-1.49,7.63-2.31,11.83-2.31v-.02Z"/>
        </g>
        <g>
          <g>
            <g>
              <path class="cls-1" d="M268.37,157.19c2.47,0,4.48-2.01,4.48-4.48v-83.84l42.18,67.31c8.19,13.07,22.53,21.01,37.95,21.01h2.38c2.47,0,4.48-2.01,4.48-4.48V27.53c0-2.6-2.11-4.71-4.71-4.71h-20.76c-2.47,0-4.48,2.01-4.48,4.48v77.2l-37.29-60.42c-8.16-13.22-22.58-21.27-38.12-21.27h-21.22c-2.47,0-4.48,2.01-4.48,4.48v19.42c0,2.6,2.11,4.71,4.71,4.71h9.59v101.28c0,2.47,2.01,4.48,4.48,4.48h20.81Z"/>
              <path class="cls-1" d="M451.08,160.03c37.72,0,69.75-27.48,69.75-69.94s-32.03-70.12-69.75-70.12-69.94,27.48-69.94,70.12,32.03,69.94,69.94,69.94ZM451.08,49.17c18.57,0,38.67,12.7,38.67,40.74s-20.09,40.56-38.67,40.56-38.85-12.5-38.85-40.56,20.09-40.74,38.85-40.74Z"/>
            </g>
            <g>
              <path class="cls-1" d="M661.48,22.82h-21.72c-2.02,0-3.81,1.29-4.46,3.2l-30.95,91.37-24.63-71.86c-4.65-13.58-17.42-22.7-31.78-22.7h-11.41c-2.6,0-4.71,2.11-4.71,4.71v19.19c0,2.6,2.11,4.71,4.71,4.71h9.27c2.2,0,4.16,1.37,4.91,3.43l35.64,97.18c1.13,3.09,4.08,5.15,7.37,5.15h19.92c3.3,0,6.24-2.06,7.37-5.16l44.89-122.89c1.12-3.07-1.15-6.33-4.42-6.33h0Z"/>
              <path class="cls-1" d="M793.39,128.58h-9.47c-2.19,0-4.14-1.36-4.9-3.41l-27.25-73.19c-6.53-17.53-23.27-29.16-41.98-29.16h-20.31c-2.6,0-4.71,2.11-4.71,4.71v19.19c0,2.6,2.11,4.71,4.71,4.71h5.97l-37.43,99.39c-1.16,3.08,1.12,6.37,4.41,6.37h21.32c1.99,0,3.77-1.26,4.44-3.14l8.56-24.15h51.93l1.74,4.91c4.75,13.41,17.44,22.37,31.67,22.37h11.31c2.6,0,4.71-2.11,4.71-4.71v-19.19c0-2.6-2.11-4.71-4.71-4.71h0ZM706.6,102.61l16.49-46.44,16.11,46.44h-32.6Z"/>
            </g>
          </g>
          <g>
            <path class="cls-3" d="M945.69,22.82h-60.63c-9.9,0-17.92,8.02-17.92,17.92v113.31c0,1.73,1.41,3.14,3.14,3.14h12.29c1.73,0,3.14-1.41,3.14-3.14v-53.34h54.1c1.73,0,3.14-1.41,3.14-3.14v-11.16c0-1.73-1.41-3.14-3.14-3.14h-54.1v-43.21h59.97c1.73,0,3.14-1.41,3.14-3.14v-10.96c0-1.73-1.41-3.14-3.14-3.14h.01Z"/>
            <path class="cls-3" d="M1055.76,140.71h-1.55c-16.73,0-18.29-31.91-34.33-42.64,20.22-3.8,34-15.96,34-35.27,0-22.18-15.73-39.98-41.13-39.98h-47.46c-1.73,0-3.14,1.41-3.14,3.14v128.09c0,1.73,1.41,3.14,3.14,3.14h12.48c1.73,0,3.14-1.41,3.14-3.14v-53.17h11.71c34.21,0,25.01,56.31,56.9,56.31h6.24c1.73,0,3.14-1.41,3.14-3.14v-10.2c0-1.73-1.41-3.14-3.14-3.14h0ZM1009.35,85.56h-28.43v-46.07h28.43c15.16,0,25.39,9.11,25.39,23.32s-10.23,22.75-25.39,22.75Z"/>
          </g>
          <rect class="cls-3" x="798.1" y="83.47" width="44.54" height="17.24" rx="2.98" ry="2.98"/>
        </g>
      </g>
    </g>
  </g>
</svg>