<?xml version="1.0" encoding="UTF-8"?>
<svg id="Layer_2" data-name="Layer 2" xmlns="http://www.w3.org/2000/svg" viewBox="0 0 69.28 95.54">
  <defs>
    <style>
      .cls-1 {
        fill: #fff;
        stroke-width: 0px;
      }
    </style>
  </defs>
  <g id="Layer_6" data-name="Layer 6">
    <path class="cls-1" d="m7.44,62.44c-8.64-6.77-11.08-19.93-.09-29.38-3.48-2.87-6-6.35-6.94-10.84C-1.77,11.83,5.71,1.47,16.37.36,20.04-.02,23.76.06,27.46.07c8.23.01,16.48-.29,24.68.28,8.04.56,13.7,5.15,16.18,12.87,2.47,7.67.03,14.14-5.95,19.37-.15.13-.28.29-.55.58,4.49,3.78,7.32,8.43,7.39,14.47.04,4.13-1.25,7.82-3.76,11.07-6.16,7.99-15.03,9.37-27.1,4.04,0,1.04.02,1.96,0,2.88-.12,5.06.34,10.23-.51,15.17-1.65,9.56-11.38,15.92-21.24,14.57C6.62,93.99-.5,85.65.05,75.85c.26-4.73,2.35-8.67,5.75-11.93.49-.47,1-.91,1.64-1.48Zm23.42-25.47c-4.19,0-8.08-.05-11.98.01-6.02.09-10.92,4.6-11.33,10.35-.38,5.36,4.05,10.53,10,11.11,4.01.39,8.08.22,12.12.19.4,0,1.13-.78,1.14-1.2.07-6.71.05-13.42.05-20.46Zm-.09-29.25c-4.2,0-8.17-.07-12.14.02-5.63.12-10.27,4.29-11,9.75-.66,4.96,2.87,10.33,8.37,11.3,4.78.84,9.76.56,14.77.78V7.71Zm7.71,21.54c4.41,0,8.65.23,12.87-.06,5.75-.39,10.1-4.98,10.33-10.4.21-5.15-3.95-10.26-9.58-10.87-4.45-.48-8.99-.1-13.62-.1v21.43Zm-7.87,36.99c-4.23,0-8.35-.2-12.45.05-6.11.37-11,5.73-10.6,11.25.41,5.68,5.08,10.04,11.12,10.41,5.59.33,11.14-3.58,11.82-9.01.51-4.09.1-8.3.1-12.7Zm19.37-7.58c6.28.06,11.7-4.98,11.7-10.88,0-5.83-5.26-10.78-11.51-10.82-6.39-.04-11.71,4.8-11.8,10.74-.09,5.88,5.24,10.9,11.62,10.96Z"/>
  </g>
</svg>