<?xml version="1.0" encoding="UTF-8"?>
<svg id="Layer_2" data-name="Layer 2" xmlns="http://www.w3.org/2000/svg" viewBox="0 0 95.54 95.54">
  <defs>
    <style>
      .cls-1 {
        fill: #fff;
        stroke-width: 0px;
      }
    </style>
  </defs>
  <g id="Layer_6" data-name="Layer 6">
    <g>
      <path class="cls-1" d="m78.95,51.88c2.1-7.06.83-13.62-2.9-19.82-.83-1.38-1.74-2.72-2.48-4.15-.71-1.37-1.46-2.78-1.81-4.26-1.43-6.02,1.34-9.98,8.04-11.34C67.91,2.24,54.55-1.87,39.38.79,26.08,3.12,15.77,10.17,7.85,21.61c1.48,0,2.46.04,3.43,0,3.97-.21,7.94-.45,11.92-.68,1.34-.08,2.4.37,2.53,1.84.12,1.48-.84,2.08-2.2,2.2-1.6.15-3.19.32-4.96.51,5.76,17.12,11.48,34.12,17.35,51.57,3.5-10.52,6.85-20.51,10.13-30.53.2-.62,0-1.46-.23-2.12-1.71-4.79-3.7-9.49-5.15-14.36-1.02-3.45-2.57-5.55-6.44-5.07-.18.02-.45.04-.54-.06-.54-.6-1.49-1.26-1.45-1.85.05-.72.82-1.54,1.49-2.03.39-.29,1.2-.01,1.82,0,5.09.12,10.18.3,15.27.32,2.79,0,5.59-.28,8.38-.42,1.29-.07,2.26.45,2.4,1.79.15,1.46-.76,2.13-2.14,2.26-1.6.15-3.21.31-5.03.49,5.69,16.92,11.36,33.74,17.1,50.81.26-.43.42-.62.48-.83,2.32-7.85,4.62-15.71,6.95-23.56Z"/>
      <path class="cls-1" d="m34.33,93.53c9.88,2.93,19.52,2.63,29.22-.72-4.97-13.57-9.87-26.94-14.95-40.79-4.85,14.1-9.53,27.74-14.27,41.52Z"/>
      <path class="cls-1" d="m26.81,90.41c-7.54-20.64-15.02-41.12-22.59-61.82-10.77,22.93-.14,51.52,22.59,61.82Z"/>
      <path class="cls-1" d="m89.92,25.96c.44,6.55-.65,12.69-2.68,18.66-2.92,8.56-5.95,17.09-8.92,25.64-2.11,6.08-4.22,12.16-6.47,18.63,25.3-14.99,28.6-45.37,18.07-62.93Z"/>
    </g>
  </g>
</svg>