<?xml version="1.0" encoding="UTF-8"?>
<svg id="Layer_2" xmlns="http://www.w3.org/2000/svg" xmlns:xlink="http://www.w3.org/1999/xlink" viewBox="0 0 396.13 79.64">
  <defs>
    <style>
      .cls-1 {
        fill: url(#radial-gradient-7);
      }

      .cls-2 {
        fill: url(#radial-gradient-6);
      }

      .cls-3 {
        fill: url(#radial-gradient-5);
      }

      .cls-4 {
        fill: url(#radial-gradient-4);
      }

      .cls-5 {
        fill: url(#radial-gradient-9);
      }

      .cls-6 {
        fill: url(#radial-gradient-8);
      }

      .cls-7 {
        fill: url(#radial-gradient-3);
      }

      .cls-8 {
        fill: url(#radial-gradient-2);
      }

      .cls-9 {
        fill: url(#radial-gradient);
      }

      .cls-10 {
        fill: url(#radial-gradient-16);
      }

      .cls-11 {
        fill: url(#radial-gradient-12);
      }

      .cls-12 {
        fill: url(#radial-gradient-14);
      }

      .cls-13 {
        fill: url(#radial-gradient-13);
      }

      .cls-14 {
        fill: url(#radial-gradient-10);
      }

      .cls-15 {
        fill: url(#radial-gradient-17);
      }

      .cls-16 {
        fill: url(#radial-gradient-19);
      }

      .cls-17 {
        fill: url(#radial-gradient-11);
      }

      .cls-18 {
        fill: url(#radial-gradient-18);
      }

      .cls-19 {
        fill: url(#radial-gradient-15);
      }

      .cls-20 {
        fill: url(#radial-gradient-48);
      }

      .cls-21 {
        fill: url(#radial-gradient-47);
      }

      .cls-22 {
        fill: url(#radial-gradient-56);
      }

      .cls-23 {
        fill: url(#radial-gradient-58);
      }

      .cls-24 {
        fill: url(#radial-gradient-57);
      }

      .cls-25 {
        fill: url(#radial-gradient-44);
      }

      .cls-26 {
        fill: url(#radial-gradient-43);
      }

      .cls-27 {
        fill: url(#radial-gradient-49);
      }

      .cls-28 {
        fill: url(#radial-gradient-42);
      }

      .cls-29 {
        fill: url(#radial-gradient-40);
      }

      .cls-30 {
        fill: url(#radial-gradient-41);
      }

      .cls-31 {
        fill: url(#radial-gradient-46);
      }

      .cls-32 {
        fill: url(#radial-gradient-45);
      }

      .cls-33 {
        fill: url(#radial-gradient-25);
      }

      .cls-34 {
        fill: url(#radial-gradient-54);
      }

      .cls-35 {
        fill: url(#radial-gradient-59);
      }

      .cls-36 {
        fill: url(#radial-gradient-53);
      }

      .cls-37 {
        fill: url(#radial-gradient-52);
      }

      .cls-38 {
        fill: url(#radial-gradient-51);
      }

      .cls-39 {
        fill: url(#radial-gradient-50);
      }

      .cls-40 {
        fill: url(#radial-gradient-55);
      }

      .cls-41 {
        fill: url(#radial-gradient-35);
      }

      .cls-42 {
        fill: url(#radial-gradient-34);
      }

      .cls-43 {
        fill: url(#radial-gradient-22);
      }

      .cls-44 {
        fill: url(#radial-gradient-28);
      }

      .cls-45 {
        fill: url(#radial-gradient-23);
      }

      .cls-46 {
        fill: url(#radial-gradient-20);
      }

      .cls-47 {
        fill: url(#radial-gradient-24);
      }

      .cls-48 {
        fill: url(#radial-gradient-26);
      }

      .cls-49 {
        fill: url(#radial-gradient-29);
      }

      .cls-50 {
        fill: url(#radial-gradient-27);
      }

      .cls-51 {
        fill: url(#radial-gradient-21);
      }

      .cls-52 {
        fill: url(#radial-gradient-39);
      }

      .cls-53 {
        fill: url(#radial-gradient-38);
      }

      .cls-54 {
        fill: url(#radial-gradient-33);
      }

      .cls-55 {
        fill: url(#radial-gradient-32);
      }

      .cls-56 {
        fill: url(#radial-gradient-31);
      }

      .cls-57 {
        fill: url(#radial-gradient-30);
      }

      .cls-58 {
        fill: url(#radial-gradient-37);
      }

      .cls-59 {
        fill: url(#radial-gradient-36);
      }

      .cls-60 {
        fill: url(#radial-gradient-94);
      }

      .cls-61 {
        fill: url(#radial-gradient-96);
      }

      .cls-62 {
        fill: url(#radial-gradient-91);
      }

      .cls-63 {
        fill: url(#radial-gradient-92);
      }

      .cls-64 {
        fill: url(#radial-gradient-98);
      }

      .cls-65 {
        fill: url(#radial-gradient-93);
      }

      .cls-66 {
        fill: url(#radial-gradient-95);
      }

      .cls-67 {
        fill: url(#radial-gradient-97);
      }

      .cls-68 {
        fill: url(#radial-gradient-99);
      }

      .cls-69 {
        fill: url(#radial-gradient-90);
      }

      .cls-70 {
        fill: url(#radial-gradient-62);
      }

      .cls-71 {
        fill: url(#radial-gradient-64);
      }

      .cls-72 {
        fill: url(#radial-gradient-65);
      }

      .cls-73 {
        fill: url(#radial-gradient-63);
      }

      .cls-74 {
        fill: url(#radial-gradient-67);
      }

      .cls-75 {
        fill: url(#radial-gradient-68);
      }

      .cls-76 {
        fill: url(#radial-gradient-69);
      }

      .cls-77 {
        fill: url(#radial-gradient-70);
      }

      .cls-78 {
        fill: url(#radial-gradient-72);
      }

      .cls-79 {
        fill: url(#radial-gradient-75);
      }

      .cls-80 {
        fill: url(#radial-gradient-78);
      }

      .cls-81 {
        fill: url(#radial-gradient-77);
      }

      .cls-82 {
        fill: url(#radial-gradient-79);
      }

      .cls-83 {
        fill: url(#radial-gradient-61);
      }

      .cls-84 {
        fill: url(#radial-gradient-66);
      }

      .cls-85 {
        fill: url(#radial-gradient-60);
      }

      .cls-86 {
        fill: url(#radial-gradient-71);
      }

      .cls-87 {
        fill: url(#radial-gradient-74);
      }

      .cls-88 {
        fill: url(#radial-gradient-73);
      }

      .cls-89 {
        fill: url(#radial-gradient-76);
      }

      .cls-90 {
        fill: url(#radial-gradient-82);
      }

      .cls-91 {
        fill: url(#radial-gradient-85);
      }

      .cls-92 {
        fill: url(#radial-gradient-80);
      }

      .cls-93 {
        fill: url(#radial-gradient-83);
      }

      .cls-94 {
        fill: url(#radial-gradient-86);
      }

      .cls-95 {
        fill: url(#radial-gradient-89);
      }

      .cls-96 {
        fill: url(#radial-gradient-84);
      }

      .cls-97 {
        fill: url(#radial-gradient-87);
      }

      .cls-98 {
        fill: url(#radial-gradient-88);
      }

      .cls-99 {
        fill: url(#radial-gradient-81);
      }

      .cls-100 {
        fill: #fff;
      }
    </style>
    <radialGradient id="radial-gradient" cx="274.6" cy="-14.04" fx="274.6" fy="-14.04" r="169.85" gradientTransform="translate(.24 4.37) rotate(-.85) scale(1 1.02)" gradientUnits="userSpaceOnUse">
      <stop offset="0" stop-color="#3e92b4"/>
      <stop offset=".22" stop-color="#1ec1cd"/>
      <stop offset=".46" stop-color="#29edd1"/>
      <stop offset=".7" stop-color="#c387cd"/>
      <stop offset="1" stop-color="#a10ce3"/>
    </radialGradient>
    <radialGradient id="radial-gradient-2" cx="274.6" cy="-14.04" fx="274.6" fy="-14.04" r="169.85" gradientUnits="userSpaceOnUse">
      <stop offset="0" stop-color="#3e92b4"/>
      <stop offset=".22" stop-color="#1ec1cd"/>
      <stop offset=".46" stop-color="#29edd1"/>
      <stop offset=".7" stop-color="#c387cd"/>
      <stop offset="1" stop-color="#a10ce3"/>
    </radialGradient>
    <radialGradient id="radial-gradient-3" cx="274.6" cy="-14.04" fx="274.6" fy="-14.04" r="169.85" xlink:href="#radial-gradient-2"/>
    <radialGradient id="radial-gradient-4" cx="274.6" cy="-14.04" fx="274.6" fy="-14.04" r="169.85" xlink:href="#radial-gradient-2"/>
    <radialGradient id="radial-gradient-5" cx="274.6" cy="-14.04" fx="274.6" fy="-14.04" r="169.85" xlink:href="#radial-gradient-2"/>
    <radialGradient id="radial-gradient-6" cx="274.6" cy="-14.04" fx="274.6" fy="-14.04" r="169.85" xlink:href="#radial-gradient-2"/>
    <radialGradient id="radial-gradient-7" cx="274.6" cy="-14.04" fx="274.6" fy="-14.04" r="169.85" xlink:href="#radial-gradient-2"/>
    <radialGradient id="radial-gradient-8" cx="274.6" cy="-14.04" fx="274.6" fy="-14.04" r="169.85" xlink:href="#radial-gradient-2"/>
    <radialGradient id="radial-gradient-9" cx="274.6" cy="-14.04" fx="274.6" fy="-14.04" r="169.85" xlink:href="#radial-gradient-2"/>
    <radialGradient id="radial-gradient-10" cx="274.6" cy="-14.04" fx="274.6" fy="-14.04" r="169.85" xlink:href="#radial-gradient-2"/>
    <radialGradient id="radial-gradient-11" cx="274.6" cy="-14.04" fx="274.6" fy="-14.04" r="169.85" xlink:href="#radial-gradient-2"/>
    <radialGradient id="radial-gradient-12" cx="274.6" cy="-14.04" fx="274.6" fy="-14.04" r="169.85" xlink:href="#radial-gradient-2"/>
    <radialGradient id="radial-gradient-13" cx="274.6" cy="-14.04" fx="274.6" fy="-14.04" r="169.85" xlink:href="#radial-gradient-2"/>
    <radialGradient id="radial-gradient-14" cx="274.6" cy="-14.04" fx="274.6" fy="-14.04" r="169.85" xlink:href="#radial-gradient-2"/>
    <radialGradient id="radial-gradient-15" cx="274.6" cy="-14.04" fx="274.6" fy="-14.04" r="169.85" xlink:href="#radial-gradient-2"/>
    <radialGradient id="radial-gradient-16" cx="274.6" cy="-14.04" fx="274.6" fy="-14.04" r="169.85" xlink:href="#radial-gradient-2"/>
    <radialGradient id="radial-gradient-17" cx="274.6" cy="-14.04" fx="274.6" fy="-14.04" r="169.85" xlink:href="#radial-gradient-2"/>
    <radialGradient id="radial-gradient-18" cx="274.6" cy="-14.04" fx="274.6" fy="-14.04" r="169.85" xlink:href="#radial-gradient-2"/>
    <radialGradient id="radial-gradient-19" cx="274.6" cy="-14.04" fx="274.6" fy="-14.04" r="169.85" xlink:href="#radial-gradient-2"/>
    <radialGradient id="radial-gradient-20" cx="274.6" cy="-14.04" fx="274.6" fy="-14.04" r="169.85" xlink:href="#radial-gradient-2"/>
    <radialGradient id="radial-gradient-21" cx="274.6" cy="-14.04" fx="274.6" fy="-14.04" r="169.85" xlink:href="#radial-gradient-2"/>
    <radialGradient id="radial-gradient-22" cx="274.6" cy="-14.04" fx="274.6" fy="-14.04" r="169.85" xlink:href="#radial-gradient-2"/>
    <radialGradient id="radial-gradient-23" cx="274.6" cy="-14.04" fx="274.6" fy="-14.04" r="169.85" xlink:href="#radial-gradient-2"/>
    <radialGradient id="radial-gradient-24" cx="274.6" cy="-14.04" fx="274.6" fy="-14.04" r="169.85" xlink:href="#radial-gradient-2"/>
    <radialGradient id="radial-gradient-25" cx="274.6" cy="-14.04" fx="274.6" fy="-14.04" r="169.85" xlink:href="#radial-gradient-2"/>
    <radialGradient id="radial-gradient-26" cx="274.6" cy="-14.04" fx="274.6" fy="-14.04" r="169.85" xlink:href="#radial-gradient-2"/>
    <radialGradient id="radial-gradient-27" cx="274.6" cy="-14.04" fx="274.6" fy="-14.04" r="169.85" xlink:href="#radial-gradient-2"/>
    <radialGradient id="radial-gradient-28" cx="274.6" cy="-14.04" fx="274.6" fy="-14.04" r="169.85" xlink:href="#radial-gradient-2"/>
    <radialGradient id="radial-gradient-29" cx="274.6" cy="-14.04" fx="274.6" fy="-14.04" r="169.85" xlink:href="#radial-gradient-2"/>
    <radialGradient id="radial-gradient-30" cx="274.6" cy="-14.04" fx="274.6" fy="-14.04" r="169.85" xlink:href="#radial-gradient-2"/>
    <radialGradient id="radial-gradient-31" cx="274.6" cy="-14.04" fx="274.6" fy="-14.04" r="169.85" xlink:href="#radial-gradient-2"/>
    <radialGradient id="radial-gradient-32" cx="274.6" cy="-14.04" fx="274.6" fy="-14.04" r="169.85" xlink:href="#radial-gradient-2"/>
    <radialGradient id="radial-gradient-33" cx="274.6" cy="-14.04" fx="274.6" fy="-14.04" r="169.85" xlink:href="#radial-gradient-2"/>
    <radialGradient id="radial-gradient-34" cx="274.6" cy="-14.04" fx="274.6" fy="-14.04" r="169.85" xlink:href="#radial-gradient-2"/>
    <radialGradient id="radial-gradient-35" cx="274.6" cy="-14.04" fx="274.6" fy="-14.04" r="169.85" xlink:href="#radial-gradient-2"/>
    <radialGradient id="radial-gradient-36" cx="274.6" cy="-14.04" fx="274.6" fy="-14.04" r="169.85" xlink:href="#radial-gradient-2"/>
    <radialGradient id="radial-gradient-37" cx="274.6" cy="-14.04" fx="274.6" fy="-14.04" r="169.85" xlink:href="#radial-gradient-2"/>
    <radialGradient id="radial-gradient-38" cx="274.6" cy="-14.04" fx="274.6" fy="-14.04" r="169.85" xlink:href="#radial-gradient-2"/>
    <radialGradient id="radial-gradient-39" cx="274.6" cy="-14.04" fx="274.6" fy="-14.04" r="169.85" xlink:href="#radial-gradient-2"/>
    <radialGradient id="radial-gradient-40" cx="274.6" cy="-14.04" fx="274.6" fy="-14.04" r="169.85" xlink:href="#radial-gradient-2"/>
    <radialGradient id="radial-gradient-41" cx="274.6" cy="-14.04" fx="274.6" fy="-14.04" r="169.85" xlink:href="#radial-gradient-2"/>
    <radialGradient id="radial-gradient-42" cx="274.6" cy="-14.04" fx="274.6" fy="-14.04" r="169.85" xlink:href="#radial-gradient-2"/>
    <radialGradient id="radial-gradient-43" cx="274.6" cy="-14.04" fx="274.6" fy="-14.04" r="169.85" xlink:href="#radial-gradient-2"/>
    <radialGradient id="radial-gradient-44" cx="274.6" cy="-14.04" fx="274.6" fy="-14.04" r="169.85" xlink:href="#radial-gradient-2"/>
    <radialGradient id="radial-gradient-45" cx="274.6" cy="-14.04" fx="274.6" fy="-14.04" r="169.85" xlink:href="#radial-gradient-2"/>
    <radialGradient id="radial-gradient-46" cx="274.6" cy="-14.04" fx="274.6" fy="-14.04" r="169.85" xlink:href="#radial-gradient-2"/>
    <radialGradient id="radial-gradient-47" cx="274.6" cy="-14.04" fx="274.6" fy="-14.04" r="169.85" xlink:href="#radial-gradient-2"/>
    <radialGradient id="radial-gradient-48" cx="274.6" cy="-14.04" fx="274.6" fy="-14.04" r="169.85" xlink:href="#radial-gradient-2"/>
    <radialGradient id="radial-gradient-49" cx="274.6" cy="-14.04" fx="274.6" fy="-14.04" r="169.85" xlink:href="#radial-gradient-2"/>
    <radialGradient id="radial-gradient-50" cx="274.6" fx="274.6" r="169.85" xlink:href="#radial-gradient-2"/>
    <radialGradient id="radial-gradient-51" cx="274.6" cy="-14.04" fx="274.6" fy="-14.04" r="169.85" xlink:href="#radial-gradient-2"/>
    <radialGradient id="radial-gradient-52" cx="274.6" cy="-14.04" fx="274.6" fy="-14.04" r="169.85" xlink:href="#radial-gradient-2"/>
    <radialGradient id="radial-gradient-53" cx="274.6" cy="-14.04" fx="274.6" fy="-14.04" r="169.85" xlink:href="#radial-gradient-2"/>
    <radialGradient id="radial-gradient-54" cx="274.6" cy="-14.04" fx="274.6" fy="-14.04" r="169.85" xlink:href="#radial-gradient-2"/>
    <radialGradient id="radial-gradient-55" cx="274.6" cy="-14.04" fx="274.6" fy="-14.04" r="169.85" xlink:href="#radial-gradient-2"/>
    <radialGradient id="radial-gradient-56" cx="274.6" cy="-14.04" fx="274.6" fy="-14.04" r="169.85" xlink:href="#radial-gradient-2"/>
    <radialGradient id="radial-gradient-57" cx="274.6" cy="-14.04" fx="274.6" fy="-14.04" r="169.85" xlink:href="#radial-gradient-2"/>
    <radialGradient id="radial-gradient-58" cx="274.6" cy="-14.04" fx="274.6" fy="-14.04" r="169.85" xlink:href="#radial-gradient-2"/>
    <radialGradient id="radial-gradient-59" cx="274.6" cy="-14.04" fx="274.6" fy="-14.04" r="169.85" xlink:href="#radial-gradient-2"/>
    <radialGradient id="radial-gradient-60" cx="274.6" cy="-14.04" fx="274.6" fy="-14.04" r="169.85" xlink:href="#radial-gradient-2"/>
    <radialGradient id="radial-gradient-61" cx="274.6" cy="-14.04" fx="274.6" fy="-14.04" r="169.85" xlink:href="#radial-gradient-2"/>
    <radialGradient id="radial-gradient-62" cx="274.6" cy="-14.04" fx="274.6" fy="-14.04" r="169.85" xlink:href="#radial-gradient-2"/>
    <radialGradient id="radial-gradient-63" cx="274.6" cy="-14.04" fx="274.6" fy="-14.04" r="169.85" xlink:href="#radial-gradient-2"/>
    <radialGradient id="radial-gradient-64" cx="274.6" cy="-14.04" fx="274.6" fy="-14.04" r="169.85" xlink:href="#radial-gradient-2"/>
    <radialGradient id="radial-gradient-65" cx="274.6" cy="-14.04" fx="274.6" fy="-14.04" r="169.85" xlink:href="#radial-gradient-2"/>
    <radialGradient id="radial-gradient-66" cx="274.6" cy="-14.04" fx="274.6" fy="-14.04" r="169.85" xlink:href="#radial-gradient-2"/>
    <radialGradient id="radial-gradient-67" cx="274.6" cy="-14.04" fx="274.6" fy="-14.04" r="169.85" xlink:href="#radial-gradient-2"/>
    <radialGradient id="radial-gradient-68" cx="274.6" cy="-14.04" fx="274.6" fy="-14.04" r="169.85" xlink:href="#radial-gradient-2"/>
    <radialGradient id="radial-gradient-69" cx="274.6" cy="-14.04" fx="274.6" fy="-14.04" r="169.85" xlink:href="#radial-gradient-2"/>
    <radialGradient id="radial-gradient-70" cx="274.6" cy="-14.04" fx="274.6" fy="-14.04" r="169.85" xlink:href="#radial-gradient-2"/>
    <radialGradient id="radial-gradient-71" cx="274.6" cy="-14.04" fx="274.6" fy="-14.04" r="169.85" xlink:href="#radial-gradient-2"/>
    <radialGradient id="radial-gradient-72" cx="274.6" cy="-14.04" fx="274.6" fy="-14.04" r="169.85" xlink:href="#radial-gradient-2"/>
    <radialGradient id="radial-gradient-73" cx="274.6" cy="-14.04" fx="274.6" fy="-14.04" r="169.85" xlink:href="#radial-gradient-2"/>
    <radialGradient id="radial-gradient-74" cx="274.6" cy="-14.04" fx="274.6" fy="-14.04" r="169.85" xlink:href="#radial-gradient-2"/>
    <radialGradient id="radial-gradient-75" cx="274.6" fx="274.6" r="169.85" xlink:href="#radial-gradient-2"/>
    <radialGradient id="radial-gradient-76" cx="274.6" cy="-14.04" fx="274.6" fy="-14.04" r="169.85" xlink:href="#radial-gradient-2"/>
    <radialGradient id="radial-gradient-77" cx="274.6" cy="-14.04" fx="274.6" fy="-14.04" r="169.85" xlink:href="#radial-gradient-2"/>
    <radialGradient id="radial-gradient-78" cx="274.6" cy="-14.04" fx="274.6" fy="-14.04" r="169.85" xlink:href="#radial-gradient-2"/>
    <radialGradient id="radial-gradient-79" cx="274.6" cy="-14.04" fx="274.6" fy="-14.04" r="169.85" xlink:href="#radial-gradient-2"/>
    <radialGradient id="radial-gradient-80" cx="274.6" cy="-14.04" fx="274.6" fy="-14.04" r="169.85" xlink:href="#radial-gradient-2"/>
    <radialGradient id="radial-gradient-81" cx="274.6" fx="274.6" r="169.85" xlink:href="#radial-gradient-2"/>
    <radialGradient id="radial-gradient-82" cy="-14.04" fy="-14.04" r="169.85" xlink:href="#radial-gradient-2"/>
    <radialGradient id="radial-gradient-83" cx="274.6" cy="-14.04" fx="274.6" fy="-14.04" r="169.85" xlink:href="#radial-gradient-2"/>
    <radialGradient id="radial-gradient-84" cx="274.6" cy="-14.04" fx="274.6" fy="-14.04" r="169.85" xlink:href="#radial-gradient-2"/>
    <radialGradient id="radial-gradient-85" cx="274.6" fx="274.6" r="169.85" xlink:href="#radial-gradient-2"/>
    <radialGradient id="radial-gradient-86" cx="274.6" cy="-14.04" fx="274.6" fy="-14.04" r="169.85" xlink:href="#radial-gradient-2"/>
    <radialGradient id="radial-gradient-87" cx="274.6" cy="-14.04" fx="274.6" fy="-14.04" r="169.85" xlink:href="#radial-gradient-2"/>
    <radialGradient id="radial-gradient-88" cx="274.6" cy="-14.04" fx="274.6" fy="-14.04" r="169.85" xlink:href="#radial-gradient-2"/>
    <radialGradient id="radial-gradient-89" cx="274.6" cy="-14.04" fx="274.6" fy="-14.04" r="169.85" xlink:href="#radial-gradient-2"/>
    <radialGradient id="radial-gradient-90" cx="274.6" cy="-14.04" fx="274.6" fy="-14.04" r="169.85" xlink:href="#radial-gradient-2"/>
    <radialGradient id="radial-gradient-91" cx="274.6" cy="-14.04" fx="274.6" fy="-14.04" r="169.85" xlink:href="#radial-gradient-2"/>
    <radialGradient id="radial-gradient-92" cx="274.6" cy="-14.04" fx="274.6" fy="-14.04" r="169.85" xlink:href="#radial-gradient-2"/>
    <radialGradient id="radial-gradient-93" cx="274.6" cy="-14.04" fx="274.6" fy="-14.04" r="169.85" xlink:href="#radial-gradient-2"/>
    <radialGradient id="radial-gradient-94" cx="274.6" cy="-14.04" fx="274.6" fy="-14.04" r="169.85" xlink:href="#radial-gradient-2"/>
    <radialGradient id="radial-gradient-95" cx="274.6" cy="-14.04" fx="274.6" fy="-14.04" r="169.85" xlink:href="#radial-gradient-2"/>
    <radialGradient id="radial-gradient-96" cx="274.6" cy="-14.04" fx="274.6" fy="-14.04" r="169.85" xlink:href="#radial-gradient-2"/>
    <radialGradient id="radial-gradient-97" cx="274.6" cy="-14.04" fx="274.6" fy="-14.04" r="169.85" xlink:href="#radial-gradient-2"/>
    <radialGradient id="radial-gradient-98" cx="274.6" cy="-14.04" fx="274.6" fy="-14.04" r="169.85" xlink:href="#radial-gradient-2"/>
    <radialGradient id="radial-gradient-99" cx="274.6" cy="-14.04" fx="274.6" fy="-14.04" r="169.85" xlink:href="#radial-gradient-2"/>
  </defs>
  <g id="Layer_1-2" data-name="Layer_1">
    <g>
      <g>
        <path class="cls-9" d="M274.53,30.99c0-1.92,1.51-3.42,3.44-3.43,1.95,0,3.53,1.55,3.47,3.52-.06,1.95-1.5,3.36-3.51,3.41-1.85.05-3.41-1.64-3.4-3.51Z"/>
        <path class="cls-8" d="M313.27,43.29c-1.93-.01-3.45-1.52-3.42-3.44.02-1.76,1.21-3.37,3.42-3.49,1.9-.1,3.52,1.6,3.49,3.53-.03,1.88-1.6,3.42-3.49,3.4Z"/>
        <path class="cls-7" d="M304.48,54.09c1.9,0,3.47,1.53,3.44,3.42-.02,1.7-1.21,3.41-3.54,3.5-1.84.07-3.34-1.59-3.35-3.54,0-1.9,1.5-3.38,3.45-3.38Z"/>
        <path class="cls-4" d="M316.76,31.02c0,1.75-1.29,3.44-3.44,3.45-1.93,0-3.38-1.28-3.47-3.41-.08-1.94,1.54-3.51,3.49-3.5,1.9,0,3.42,1.55,3.41,3.46Z"/>
        <path class="cls-3" d="M304.45,27.56c1.97,0,3.56,1.55,3.47,3.51-.1,2.22-1.64,3.43-3.48,3.4-2.16-.03-3.38-1.71-3.42-3.47-.05-1.81,1.62-3.51,3.43-3.44Z"/>
        <path class="cls-2" d="M322.17,43.29c-1.97.02-3.51-1.51-3.47-3.5.05-2.28,1.66-3.31,3.33-3.43,1.89-.14,3.54,1.55,3.54,3.46,0,1.92-1.5,3.44-3.41,3.46Z"/>
        <path class="cls-1" d="M277.98,43.29c-1.91-.01-3.42-1.54-3.46-3.42-.04-1.55,1.2-3.5,3.4-3.5,2.12,0,3.45,1.42,3.52,3.49.06,1.86-1.6,3.43-3.46,3.42Z"/>
        <path class="cls-6" d="M263.76,31.02c.11,1.64-1.29,3.45-3.42,3.47-1.84.01-3.33-1.2-3.48-3.42-.13-1.83,1.52-3.42,3.38-3.51,1.84-.09,3.63,1.64,3.52,3.47Z"/>
        <path class="cls-5" d="M339.73,43.29c-1.87-.01-3.45-1.6-3.46-3.46,0-1.88,1.65-3.53,3.55-3.52,1.8.01,3.48,1.72,3.46,3.5-.02,1.96-1.59,3.49-3.55,3.48Z"/>
        <path class="cls-14" d="M290.26,39.98c-.04,1.86-1.65,3.38-3.56,3.31-2.13-.08-3.4-1.76-3.34-3.52.08-2.13,1.61-3.35,3.5-3.37,1.96-.01,3.44,1.6,3.4,3.59Z"/>
        <path class="cls-17" d="M277.96,1.04c1.9-.04,3.49,1.42,3.47,3.51-.02,1.86-1.38,3.32-3.38,3.38-1.91.06-3.49-1.47-3.52-3.33-.03-1.97,1.49-3.54,3.43-3.56Z"/>
        <path class="cls-11" d="M313.27,16.76c-1.97-.01-3.5-1.55-3.46-3.53.04-2.06,1.61-3.36,3.36-3.42,1.96-.07,3.59,1.57,3.59,3.44,0,1.95-1.56,3.52-3.5,3.5Z"/>
        <path class="cls-13" d="M290.26,4.56c-.04,1.91-1.61,3.43-3.53,3.37-2.08-.07-3.38-1.56-3.37-3.52.01-2.09,1.77-3.41,3.53-3.37,1.9.04,3.41,1.6,3.37,3.53Z"/>
        <path class="cls-12" d="M278.03,78.6c-2.03,0-3.51-1.43-3.51-3.43,0-1.84,1.59-3.53,3.45-3.44,2.15.1,3.4,1.5,3.46,3.43.06,1.91-1.5,3.43-3.4,3.44Z"/>
        <path class="cls-19" d="M263.76,13.31c.1,2.03-1.82,3.53-3.41,3.47-1.91-.07-3.55-1.54-3.5-3.42.07-2.34,1.86-3.49,3.44-3.45,2,.04,3.46,1.45,3.46,3.4Z"/>
        <path class="cls-10" d="M251.43,16.76c-1.89-.02-3.42-1.58-3.41-3.47.02-1.97,1.56-3.41,3.61-3.37,1.85.03,3.41,1.56,3.35,3.4-.07,2.26-1.96,3.6-3.55,3.45Z"/>
        <path class="cls-15" d="M251.51,54.09c1.55-.12,3.52,1.3,3.45,3.42-.06,2.06-1.35,3.43-3.43,3.47-2.09.04-3.49-1.51-3.49-3.5,0-1.98,1.68-3.51,3.46-3.39Z"/>
        <path class="cls-18" d="M366.28,27.55c1.83-.21,3.51,1.76,3.5,3.4,0,1.92-1.65,3.54-3.55,3.52-1.87-.02-3.46-1.61-3.47-3.45-.01-1.97,1.52-3.47,3.53-3.46Z"/>
        <path class="cls-16" d="M290.27,66.34c0,1.88-1.54,3.46-3.41,3.48-1.91.02-3.54-1.6-3.51-3.51.02-1.86,1.61-3.46,3.48-3.42,2.08.04,3.49,1.75,3.44,3.45Z"/>
        <path class="cls-46" d="M304.38,16.76c-1.64.16-3.45-1.68-3.44-3.47.01-1.56,1.63-3.57,3.47-3.49,2.12.1,3.49,1.43,3.52,3.52.02,2-1.56,3.51-3.55,3.44Z"/>
        <path class="cls-51" d="M322.01,16.76c-1.88,0-3.39-1.59-3.35-3.51.04-1.94,1.53-3.45,3.43-3.47,1.49-.02,3.52,1.35,3.48,3.56-.04,2.28-2.01,3.57-3.56,3.41Z"/>
        <path class="cls-43" d="M251.54,78.6c-2.04.17-3.51-1.76-3.52-3.34,0-1.9,1.63-3.67,3.49-3.54,2.2.14,3.34,1.51,3.47,3.45.12,1.86-1.82,3.63-3.44,3.43Z"/>
        <path class="cls-45" d="M260.41,54.09c1.55-.13,3.4,1.43,3.36,3.49-.04,1.82-1.46,3.48-3.47,3.4-2.18-.08-3.36-1.43-3.43-3.46-.07-2.23,1.94-3.58,3.54-3.43Z"/>
        <path class="cls-47" d="M331.01,43.29c-1.98.01-3.53-1.5-3.54-3.46-.01-1.85,1.6-3.61,3.4-3.52,2.17.11,3.47,1.4,3.55,3.5.07,1.79-1.33,3.42-3.41,3.48Z"/>
        <path class="cls-33" d="M251.47,1.04c2.04-.02,3.45,1.55,3.51,3.5.05,1.79-1.58,3.36-3.39,3.39-1.96.03-3.55-1.5-3.56-3.44-.01-1.85,1.58-3.44,3.45-3.45Z"/>
        <path class="cls-48" d="M366.24,16.77c-1.71.14-3.5-1.54-3.47-3.42.04-2.09,1.47-3.51,3.5-3.52,2.05-.01,3.47,1.48,3.46,3.55,0,1.79-1.54,3.48-3.5,3.39Z"/>
        <path class="cls-50" d="M304.45,25.6c-1.98,0-3.43-1.52-3.41-3.57.02-1.86,1.52-3.25,3.45-3.28,1.83-.03,3.42,1.38,3.44,3.43.02,1.64-1.39,3.49-3.48,3.42Z"/>
        <path class="cls-44" d="M313.28,18.73c2.17-.1,3.5,1.79,3.49,3.36,0,1.97-1.55,3.53-3.49,3.52-1.96-.01-3.47-1.55-3.47-3.53,0-1.94,1.47-3.36,3.47-3.35Z"/>
        <path class="cls-49" d="M366.23,25.61c-2.21.02-3.5-2.02-3.48-3.43.03-1.92,1.52-3.37,3.43-3.46,2.15-.11,3.61,1.87,3.6,3.42-.01,1.96-1.59,3.49-3.55,3.48Z"/>
        <path class="cls-57" d="M313.32,62.86c1.88.01,3.44,1.57,3.45,3.46.01,1.93-1.59,3.51-3.53,3.49-1.87-.02-3.42-1.59-3.42-3.47,0-1.99,1.52-3.5,3.51-3.48Z"/>
        <path class="cls-56" d="M251.44,62.88c2.06.04,3.46,1.55,3.52,3.39.06,1.99-1.56,3.49-3.35,3.54-1.91.05-3.52-1.46-3.58-3.44-.06-1.82,1.58-3.47,3.42-3.5Z"/>
        <path class="cls-55" d="M339.78,78.6c-1.6.21-3.52-1.42-3.51-3.49,0-1.88,1.59-3.4,3.5-3.38,2.24.03,3.46,1.78,3.51,3.39.05,1.86-1.64,3.67-3.49,3.48Z"/>
        <path class="cls-54" d="M286.76,16.76c-1.9-.01-3.46-1.59-3.41-3.48.04-1.93,1.56-3.38,3.52-3.36,1.94.01,3.42,1.53,3.4,3.47-.03,2.02-1.78,3.51-3.5,3.37Z"/>
        <path class="cls-42" d="M366.2,52.07c-1.97.15-3.45-1.78-3.44-3.42.01-2.01,1.48-3.37,3.56-3.42,1.75-.04,3.36,1.31,3.45,3.43.09,1.91-1.57,3.43-3.57,3.41Z"/>
        <path class="cls-41" d="M339.72,1.03c2.07-.19,3.54,1.89,3.56,3.33.02,1.91-1.55,3.55-3.46,3.58-1.92.02-3.55-1.55-3.55-3.48,0-1.7,1.43-3.5,3.45-3.43Z"/>
        <path class="cls-59" d="M295.64,9.91c1.92,0,3.4,1.43,3.43,3.31.03,2.01-1.46,3.55-3.44,3.54-1.96-.01-3.45-1.49-3.44-3.43.01-1.95,1.48-3.42,3.44-3.42Z"/>
        <path class="cls-58" d="M295.61,62.88c1.87-.02,3.46,1.55,3.47,3.44.01,1.91-1.51,3.47-3.41,3.49-1.91.02-3.43-1.49-3.46-3.43-.03-1.89,1.51-3.49,3.4-3.5Z"/>
        <path class="cls-53" d="M263.76,66.38c-.02,1.92-1.55,3.45-3.46,3.44-1.75-.01-3.41-1.33-3.43-3.48-.02-1.92,1.61-3.47,3.47-3.46,1.87.01,3.44,1.62,3.42,3.5Z"/>
        <path class="cls-52" d="M343.28,31.1c-.1,1.76-1.44,3.34-3.55,3.35-2.22,0-3.46-1.89-3.45-3.57.01-1.48,1.39-3.37,3.55-3.37,1.64,0,3.5,1.6,3.45,3.59Z"/>
        <path class="cls-29" d="M357.47,16.77c-2.02,0-3.49-1.46-3.49-3.47,0-2.03,1.44-3.37,3.53-3.42,1.69-.04,3.41,1.39,3.42,3.58.01,1.78-1.63,3.31-3.46,3.31Z"/>
        <path class="cls-30" d="M357.47,1.03c1.77-.12,3.41,1.44,3.46,3.42.05,1.91-1.64,3.52-3.54,3.49-1.98-.03-3.44-1.56-3.41-3.56.02-1.92,1.54-3.37,3.49-3.35Z"/>
        <path class="cls-28" d="M286.75,78.6c-1.57.19-3.4-1.37-3.41-3.47,0-1.89,1.59-3.39,3.52-3.37,1.94.02,3.39,1.54,3.4,3.48,0,1.9-1.86,3.57-3.51,3.35Z"/>
        <path class="cls-26" d="M239.27,66.34c-.19-1.63,1.34-3.45,3.42-3.45,1.95,0,3.39,1.53,3.37,3.5-.01,1.98-1.48,3.44-3.43,3.43-1.83-.01-3.52-1.52-3.36-3.47Z"/>
        <path class="cls-25" d="M378.5,39.79c.15,2.1-1.74,3.57-3.44,3.51-1.85-.07-3.44-1.59-3.46-3.46-.02-1.88,1.69-3.66,3.51-3.54,2.09.14,3.54,1.75,3.39,3.49Z"/>
        <path class="cls-32" d="M387.31,39.81c.16,1.98-1.56,3.52-3.45,3.48-1.91-.04-3.38-1.53-3.37-3.47.01-2.22,1.61-3.46,3.37-3.5,1.84-.05,3.61,1.42,3.45,3.5Z"/>
        <path class="cls-31" d="M313.3,52.07c-1.94.01-3.45-1.47-3.45-3.4,0-1.89,1.44-3.31,3.34-3.4,2.25-.1,3.58,1.85,3.58,3.41,0,1.73-1.63,3.6-3.47,3.39Z"/>
        <path class="cls-21" d="M313.32,54.06c1.93.01,3.44,1.5,3.45,3.42,0,1.68-1.26,3.5-3.51,3.48-1.92-.02-3.42-1.54-3.44-3.44-.03-1.93,1.72-3.66,3.51-3.46Z"/>
        <path class="cls-20" d="M251.51,25.6c-1.92,0-3.53-1.53-3.48-3.41.05-2.06,1.56-3.45,3.44-3.43,1.92.01,3.56,1.54,3.5,3.4-.06,1.82-1.37,3.44-3.47,3.45Z"/>
        <path class="cls-27" d="M366.16,69.81c-1.82-.02-3.43-1.68-3.41-3.52.02-1.89,1.69-3.48,3.6-3.43,1.85.04,3.45,1.68,3.42,3.51-.03,1.88-1.69,3.46-3.62,3.43Z"/>
        <path class="cls-39" d="M295.78,1.03c1.9.05,3.38,1.62,3.32,3.54-.06,1.93-1.69,3.44-3.63,3.37-1.87-.07-3.39-1.72-3.31-3.58.1-2.04,1.56-3.39,3.62-3.33Z"/>
        <path class="cls-38" d="M304.5,1.03c1.97-.08,3.52,1.7,3.43,3.56-.11,2.13-1.69,3.37-3.53,3.36-1.92-.02-3.46-1.64-3.42-3.59.03-1.89,1.59-3.36,3.53-3.33Z"/>
        <path class="cls-37" d="M351.99,39.88c.27,1.83-1.78,3.5-3.38,3.43-1.97-.09-3.45-1.51-3.45-3.54,0-1.85,1.25-3.32,3.32-3.43,1.98-.11,3.79,1.66,3.51,3.53Z"/>
        <path class="cls-36" d="M304.45,52.07c-1.72.28-3.5-1.67-3.43-3.4.08-1.93,1.5-3.32,3.48-3.38,2.2-.06,3.46,1.92,3.45,3.42-.02,1.69-1.62,3.62-3.49,3.36Z"/>
        <path class="cls-34" d="M300.98,66.27c.01-1.84,1.66-3.44,3.52-3.41,1.78.03,3.38,1.46,3.45,3.38.07,1.99-1.59,3.6-3.59,3.58-1.86-.02-3.39-1.63-3.37-3.54Z"/>
        <path class="cls-40" d="M396.12,39.75c0,2.04-1.37,3.52-3.3,3.53-1.97.02-3.59-1.54-3.55-3.47.04-1.9,1.28-3.4,3.43-3.48,1.8-.07,3.48,1.26,3.42,3.41Z"/>
        <path class="cls-22" d="M331.02,18.73c1.58-.1,3.48,1.32,3.41,3.48-.07,1.99-1.48,3.4-3.51,3.41-1.91,0-3.53-1.66-3.46-3.56.07-1.87,1.59-3.33,3.56-3.32Z"/>
        <path class="cls-24" d="M353.98,22.04c.01-1.88,1.48-3.26,3.41-3.32,1.77-.05,3.51,1.25,3.51,3.37,0,2.23-1.58,3.5-3.5,3.51-1.96.01-3.44-1.54-3.43-3.57Z"/>
        <path class="cls-23" d="M362.75,57.44c.04-1.92,1.71-3.42,3.75-3.37,1.76.05,3.33,1.72,3.28,3.5-.06,1.92-1.72,3.47-3.64,3.39-1.88-.08-3.43-1.69-3.39-3.53Z"/>
        <path class="cls-35" d="M260.26,52.07c-1.87-.01-3.44-1.49-3.41-3.33.03-2.26,1.92-3.53,3.43-3.46,2.02.09,3.45,1.44,3.49,3.36.04,1.99-1.72,3.65-3.51,3.43Z"/>
        <path class="cls-85" d="M295.68,54.09c1.93,0,3.41,1.49,3.39,3.47-.02,1.91-1.35,3.44-3.46,3.42-1.8-.01-3.33-1.11-3.38-3.49-.05-1.93,1.5-3.41,3.46-3.4Z"/>
        <path class="cls-83" d="M327.47,30.83c.05-1.91,1.66-3.29,3.68-3.3,1.51-.01,3.29,1.43,3.29,3.49,0,1.95-1.71,3.5-3.59,3.44-1.76-.06-3.56-1.64-3.38-3.63Z"/>
        <path class="cls-70" d="M265.78,39.87c-.25-1.61,1.27-3.46,3.35-3.49,1.91-.03,3.44,1.5,3.45,3.44.01,2.01-1.49,3.46-3.51,3.48-1.53.01-3.52-1.51-3.29-3.43Z"/>
        <path class="cls-73" d="M357.45,54.07c1.89,0,3.63,1.64,3.49,3.42-.17,2.24-1.51,3.38-3.46,3.47-1.93.09-3.42-1.53-3.52-3.51-.08-1.63,1.72-3.61,3.49-3.38Z"/>
        <path class="cls-71" d="M277.89,52.07c-1.71.2-3.45-1.64-3.37-3.47.06-1.61,1.42-3.34,3.43-3.33,1.93.01,3.47,1.51,3.49,3.39.02,1.92-1.76,3.68-3.55,3.42Z"/>
        <path class="cls-72" d="M330.94,45.25c1.93,0,3.56,1.49,3.5,3.38-.07,1.94-1.43,3.43-3.44,3.45-2.13.03-3.53-1.68-3.52-3.47.01-1.97,1.46-3.37,3.47-3.37Z"/>
        <path class="cls-84" d="M357.52,69.8c-2.01.02-3.53-1.47-3.54-3.46,0-1.9,1.55-3.48,3.42-3.49,1.94,0,3.51,1.56,3.54,3.54.03,1.76-1.61,3.38-3.42,3.4Z"/>
        <path class="cls-74" d="M351.99,4.44c.23,1.87-1.54,3.56-3.45,3.5-1.63-.05-3.39-1.24-3.39-3.5,0-1.94,1.47-3.39,3.43-3.44,1.77-.05,3.69,1.67,3.4,3.43Z"/>
        <path class="cls-75" d="M269.21,54.09c1.93.01,3.38,1.53,3.36,3.49-.02,1.66-1.27,3.42-3.49,3.41-1.85,0-3.46-1.53-3.33-3.65.12-1.87,1.5-3.27,3.46-3.25Z"/>
        <path class="cls-76" d="M339.73,52.07c-1.9,0-3.53-1.56-3.46-3.41.07-2.04,1.78-3.43,3.5-3.43,1.67,0,3.5,1.2,3.48,3.51-.01,2.1-1.79,3.49-3.52,3.33Z"/>
        <path class="cls-77" d="M322.07,54.06c2.01,0,3.5,1.47,3.51,3.48.01,1.87-1.6,3.46-3.48,3.44-1.91-.03-3.45-1.59-3.44-3.48.01-2,1.43-3.42,3.41-3.43Z"/>
        <path class="cls-86" d="M233.85,78.6c-1.95,0-3.44-1.46-3.46-3.39-.02-1.9,1.53-3.44,3.44-3.44,1.97,0,3.32,1.45,3.42,3.43.08,1.67-1.44,3.59-3.4,3.41Z"/>
        <path class="cls-78" d="M260.37,18.76c1.95.02,3.38,1.48,3.38,3.46,0,1.91-1.55,3.43-3.48,3.38-1.97-.05-3.4-1.47-3.4-3.48,0-2.09,1.73-3.46,3.5-3.36Z"/>
        <path class="cls-88" d="M265.78,30.96c0-1.94,1.41-3.39,3.31-3.4,2-.01,3.49,1.46,3.48,3.5,0,2-1.4,3.36-3.35,3.41-2.19.06-3.66-1.78-3.44-3.51Z"/>
        <path class="cls-87" d="M316.69,4.46c.15,2.13-1.73,3.48-3.36,3.49-1.97.01-3.51-1.51-3.52-3.5,0-1.88,1.56-3.37,3.47-3.43,1.76-.06,3.66,1.7,3.41,3.45Z"/>
        <path class="cls-79" d="M237.23,4.55c0,1.96-1.47,3.4-3.45,3.38-1.86-.01-3.39-1.54-3.39-3.39,0-2,1.52-3.49,3.51-3.51,1.8-.02,3.56,1.73,3.34,3.52Z"/>
        <path class="cls-89" d="M304.43,78.6c-1.92,0-3.44-1.52-3.47-3.42-.02-1.47,1.15-3.49,3.57-3.44,1.91.04,3.47,1.63,3.42,3.5-.05,1.91-1.58,3.37-3.52,3.37Z"/>
        <path class="cls-81" d="M330.92,54.07c1.63-.14,3.48,1.19,3.51,3.38.04,2.07-1.52,3.49-3.52,3.51-1.89.02-3.46-1.59-3.44-3.46.02-1.92,1.53-3.43,3.45-3.43Z"/>
        <path class="cls-80" d="M322.03,18.73c1.83-.18,3.49,1.52,3.53,3.32.04,2.18-1.74,3.54-3.31,3.56-2.02.03-3.57-1.45-3.58-3.43,0-2.03,1.36-3.44,3.36-3.45Z"/>
        <path class="cls-82" d="M378.5,30.99c0,1.97-1.47,3.52-3.39,3.46-2.11-.06-3.48-1.43-3.48-3.53,0-2.34,1.96-3.35,3.49-3.4,1.8-.06,3.65,1.83,3.38,3.47Z"/>
        <path class="cls-92" d="M351.99,66.33c.23,2.05-1.83,3.53-3.36,3.49-1.92-.05-3.45-1.5-3.48-3.42-.03-2.01,1.47-3.53,3.46-3.54,1.67,0,3.62,1.52,3.37,3.47Z"/>
        <path class="cls-99" d="M351.99,13.38c.23,1.76-1.68,3.49-3.42,3.41-1.9-.09-3.43-1.57-3.4-3.48.03-2.03,1.41-3.35,3.41-3.44,1.93-.09,3.71,1.8,3.42,3.51Z"/>
        <path class="cls-90" d="M325.53,66.35c.12,2.13-1.88,3.53-3.39,3.48-2.03-.07-3.5-1.53-3.48-3.53.03-1.9,1.59-3.44,3.48-3.43,1.92.01,3.38,1.52,3.38,3.49Z"/>
        <path class="cls-93" d="M357.51,78.6c-1.73.21-3.59-1.46-3.53-3.43.06-1.93,1.52-3.45,3.45-3.43,1.96.02,3.34,1.24,3.5,3.4.14,1.84-1.54,3.45-3.42,3.46Z"/>
        <path class="cls-96" d="M242.73,78.6c-1.96.18-3.54-1.69-3.48-3.33.08-2.02,1.36-3.44,3.34-3.48,2.02-.04,3.47,1.39,3.48,3.45,0,1.9-1.43,3.35-3.34,3.36Z"/>
        <path class="cls-91" d="M378.5,22.11c0,2.05-1.44,3.53-3.45,3.5-1.94-.03-3.48-1.56-3.41-3.48.08-2.16,1.49-3.37,3.44-3.42,1.82-.05,3.66,1.7,3.43,3.41Z"/>
        <path class="cls-94" d="M378.5,57.42c.2,1.76-1.29,3.5-3.31,3.53-2.05.03-3.49-1.28-3.56-3.44-.07-2.14,1.94-3.45,3.43-3.5,1.81-.05,3.68,1.77,3.44,3.4Z"/>
        <path class="cls-97" d="M295.68,18.76c1.87-.02,3.34,1.43,3.39,3.33.05,1.96-1.48,3.52-3.46,3.51-1.86,0-3.37-1.49-3.4-3.36-.04-2.09,1.65-3.57,3.47-3.49Z"/>
        <path class="cls-98" d="M322.12,52.07c-2.04,0-3.46-1.43-3.45-3.49.01-1.89,1.46-3.32,3.38-3.32,1.97,0,3.51,1.44,3.53,3.32.03,2.01-1.44,3.49-3.46,3.49Z"/>
        <path class="cls-95" d="M246.02,13.33c0,2-1.4,3.37-3.36,3.44-1.8.07-3.51-1.73-3.42-3.44.11-2.01,1.41-3.38,3.41-3.43,1.8-.05,3.56,1.5,3.36,3.43Z"/>
        <path class="cls-69" d="M325.58,30.93c0,1.98-1.56,3.57-3.49,3.53-2.25-.05-3.38-1.82-3.42-3.35-.06-2.17,1.78-3.67,3.53-3.58,1.85.1,3.38,1.56,3.38,3.4Z"/>
        <path class="cls-62" d="M295.65,78.6c-1.96,0-3.45-1.44-3.49-3.37-.03-1.95,1.53-3.51,3.5-3.49,1.94.02,3.4,1.49,3.42,3.45.02,1.9-1.49,3.41-3.44,3.41Z"/>
        <path class="cls-63" d="M316.7,75.19c0,2.01-1.4,3.34-3.39,3.44-1.54.07-3.53-1.35-3.5-3.52.02-1.58,1.31-3.39,3.51-3.39,1.92,0,3.39,1.51,3.38,3.47Z"/>
        <path class="cls-65" d="M269.17,18.76c1.75-.12,3.41,1.47,3.41,3.31,0,2.01-1.47,3.53-3.45,3.53-1.95,0-3.36-1.45-3.35-3.45,0-2,1.4-3.39,3.4-3.39Z"/>
        <path class="cls-60" d="M383.82,52.07c-1.9,0-3.33-1.46-3.34-3.38,0-2.02,1.47-3.43,3.52-3.45,1.73-.02,3.35,1.48,3.34,3.52-.01,1.62-1.58,3.53-3.52,3.31Z"/>
        <path class="cls-66" d="M351.99,75.12c.24,1.98-1.75,3.61-3.42,3.51-1.94-.12-3.41-1.5-3.41-3.46,0-1.93,1.49-3.43,3.42-3.45,1.96-.01,3.41,1.43,3.41,3.4Z"/>
        <path class="cls-61" d="M387.3,31.02c.12,2.04-1.49,3.38-3.39,3.43-1.84.05-3.41-1.52-3.42-3.33,0-2.12,1.44-3.6,3.49-3.58,1.96.03,3.33,1.46,3.32,3.48Z"/>
        <path class="cls-67" d="M246.02,4.57c.19,1.67-1.37,3.37-3.32,3.37-2.2,0-3.55-1.86-3.44-3.52.12-1.92,1.56-3.38,3.49-3.38,1.62,0,3.51,1.48,3.28,3.54Z"/>
        <path class="cls-64" d="M378.5,48.69c.17,1.62-1.35,3.52-3.51,3.4-1.84-.1-3.34-1.52-3.38-3.38-.03-1.87,1.53-3.39,3.42-3.46,2.03-.08,3.68,1.7,3.47,3.44Z"/>
        <path class="cls-68" d="M269.09,52.07c-1.99,0-3.32-1.4-3.31-3.45.01-1.99,1.41-3.28,3.44-3.34,1.66-.05,3.38,1.42,3.36,3.36-.03,2.04-1.44,3.44-3.49,3.43Z"/>
      </g>
      <g>
        <path class="cls-100" d="M0,78.98V.66h16.61c6.45,0,11.35,1.76,14.69,5.28,3.34,3.52,5,8.51,5,14.96v36.63c0,7.33-1.78,12.74-5.33,16.23-3.56,3.48-8.67,5.23-15.35,5.23H0ZM11.22,11.22v57.2h5.17c3.15,0,5.39-.79,6.71-2.36,1.32-1.58,1.98-4.05,1.98-7.43V20.9c0-3.08-.62-5.46-1.87-7.15-1.25-1.69-3.52-2.53-6.82-2.53h-5.17Z"/>
        <path class="cls-100" d="M46.86,78.98V.66h16.39c3.59,0,6.66.55,9.19,1.65s4.6,2.57,6.21,4.4c1.61,1.83,2.77,3.94,3.47,6.33.7,2.38,1.04,4.86,1.04,7.42v2.86c0,2.13-.17,3.92-.5,5.39-.33,1.47-.83,2.75-1.48,3.85-1.25,2.05-3.15,3.81-5.72,5.28,2.64,1.25,4.58,3.08,5.83,5.5,1.25,2.42,1.87,5.72,1.87,9.9v4.4c0,6.89-1.67,12.17-5,15.84-3.34,3.67-8.67,5.5-16.01,5.5h-15.29ZM58.08,11.22v21.56h5.06c3.74,0,6.25-.93,7.54-2.8,1.28-1.87,1.92-4.6,1.92-8.2s-.71-6.16-2.15-7.92c-1.43-1.76-4.02-2.64-7.75-2.64h-4.62ZM58.08,42.68v25.08h4.84c2.27,0,4.05-.33,5.33-.99,1.28-.66,2.26-1.58,2.92-2.75.66-1.17,1.06-2.57,1.21-4.18.15-1.61.22-3.37.22-5.28s-.11-3.7-.33-5.17c-.22-1.47-.66-2.71-1.32-3.74-.73-1.03-1.72-1.78-2.97-2.25-1.25-.48-2.9-.71-4.95-.71h-4.95Z"/>
        <path class="cls-100" d="M93.72,78.98V.66h11.22v33.55h13.86V.66h11.22v78.32h-11.22v-34.87h-13.86v34.87h-11.22Z"/>
        <path class="cls-100" d="M140.58,78.98V.66h16.61c6.45,0,11.35,1.76,14.69,5.28,3.34,3.52,5,8.51,5,14.96v36.63c0,7.33-1.78,12.74-5.33,16.23-3.56,3.48-8.67,5.23-15.34,5.23h-15.62ZM151.8,11.22v57.2h5.17c3.15,0,5.39-.79,6.71-2.36,1.32-1.58,1.98-4.05,1.98-7.43V20.9c0-3.08-.62-5.46-1.87-7.15-1.25-1.69-3.52-2.53-6.82-2.53h-5.17Z"/>
        <path class="cls-100" d="M223.74,23.21h-11.22v-2.53c0-2.57-.61-4.79-1.82-6.66s-3.25-2.8-6.1-2.8c-1.54,0-2.79.29-3.74.88-.95.59-1.72,1.32-2.31,2.2-.59.95-.99,2.04-1.21,3.25-.22,1.21-.33,2.48-.33,3.79,0,1.54.06,2.82.17,3.85.11,1.03.39,1.94.83,2.75.44.81,1.08,1.5,1.92,2.09.84.59,2,1.17,3.47,1.76l8.58,3.41c2.49.95,4.51,2.07,6.05,3.35,1.54,1.28,2.75,2.77,3.63,4.45.81,1.76,1.36,3.76,1.65,6,.29,2.24.44,4.79.44,7.65,0,3.3-.33,6.36-.99,9.19-.66,2.82-1.72,5.23-3.19,7.21-1.54,2.05-3.56,3.67-6.05,4.84-2.49,1.17-5.54,1.76-9.13,1.76-2.71,0-5.24-.48-7.59-1.43-2.35-.95-4.36-2.27-6.05-3.96-1.69-1.69-3.03-3.65-4.01-5.89-.99-2.24-1.49-4.67-1.49-7.31v-4.18h11.22v3.52c0,2.05.61,3.9,1.82,5.55,1.21,1.65,3.25,2.48,6.1,2.48,1.91,0,3.39-.27,4.46-.82,1.06-.55,1.89-1.34,2.48-2.37.59-1.03.93-2.25,1.04-3.69.11-1.43.17-3.02.17-4.79,0-2.05-.07-3.74-.22-5.06-.15-1.32-.44-2.38-.88-3.19-.51-.81-1.19-1.47-2.04-1.98-.84-.51-1.96-1.06-3.35-1.65l-8.03-3.3c-4.84-1.98-8.08-4.6-9.73-7.87-1.65-3.26-2.48-7.35-2.48-12.26,0-2.93.4-5.72,1.21-8.36.81-2.64,2.02-4.91,3.63-6.82,1.54-1.91,3.5-3.43,5.89-4.56,2.38-1.14,5.22-1.71,8.52-1.71,2.79,0,5.33.51,7.65,1.54,2.31,1.03,4.31,2.38,5.99,4.07,3.37,3.52,5.06,7.55,5.06,12.1v5.5Z"/>
      </g>
    </g>
  </g>
</svg>