<?xml version="1.0" encoding="UTF-8"?>
<svg id="Layer_2" data-name="Layer 2" xmlns="http://www.w3.org/2000/svg" viewBox="0 0 121.4 75.85">
  <defs>
    <style>
      .cls-1 {
        fill: #fff;
        stroke-width: 0px;
      }
    </style>
  </defs>
  <g id="Layer_6" data-name="Layer 6">
    <path class="cls-1" d="m33.04,26.69c.25-.38.54-.75.75-1.15,2.06-4.13,4.11-8.27,6.16-12.41,1.99-4.02,4-8.03,5.96-12.06C46.27.3,46.72,0,47.58,0c7.35.03,14.7.02,22.05.02,1.47,0,1.47.01,1.47,1.51,0,7.88,0,15.75.01,23.63,0,.42.19.84.3,1.25.29-.32.67-.6.86-.98,4.1-7.87,8.19-15.74,12.27-23.61.17-.32.38-.63.51-.97.26-.66.72-.85,1.4-.85,3.19.02,6.38,0,9.58,0,8.05,0,16.09,0,24.14,0,.35,0,.71.03,1.22.06-.17.43-.26.73-.41,1.01-5.48,10.71-10.98,21.4-16.46,32.11-6.37,12.45-12.73,24.91-19.09,37.37-.76,1.48-1.54,2.94-2.26,4.44-.31.63-.73.85-1.41.84-11.44-.01-22.88,0-34.32-.01-.32,0-.63-.06-1.17-.12,5.4-10.46,10.72-20.76,16.04-31.06-.1-.08-.2-.17-.31-.25-.3.32-.63.62-.9.96-4.15,5.24-8.9,9.87-14.26,13.86-7.8,5.8-16.43,9.89-25.72,12.66-6.39,1.9-12.92,3.09-19.55,3.78-.46.05-.92.06-1.5.09-.03-.48-.07-.89-.07-1.31C0,65.11,0,55.77,0,46.43c0-1.67,0-1.64,1.67-1.84,7.99-1.01,15.53-3.33,22.23-7.92,1.63-1.12,3.11-2.46,4.66-3.69-.04-.11-.08-.22-.12-.32-.33-.02-.67-.07-1-.07-8.68,0-17.36,0-26.04,0-1.39,0-1.39,0-1.39-1.35C0,21.33,0,11.42,0,1.52,0,.02.02,0,1.49,0c9.84,0,19.69,0,29.53,0,1.56,0,1.56,0,1.56,1.53,0,7.91,0,15.82,0,23.73,0,.42.05.83.08,1.25.13.05.25.11.38.16Z"/>
  </g>
</svg>