<?xml version="1.0" encoding="UTF-8"?>
<svg id="Layer_2" data-name="Layer 2" xmlns="http://www.w3.org/2000/svg" viewBox="0 0 239.43 239.6">
  <defs>
    <style>
      .cls-1 {
        fill: #fff;
        stroke-width: 0px;
      }
    </style>
  </defs>
  <g id="Layer_1-2" data-name="Layer 1">
    <path class="cls-1" d="M239.39,202.62c0,10.14-.1,20.28.04,30.42.06,4.68-1.94,6.55-6.59,6.53-20.11-.11-40.22-.15-60.33.03-4.84.04-6.71-2.27-6.73-6.55-.06-14.79,0-29.59.02-44.38,0-.33.07-.66.12-.99,1.19-7.98,17.09-21.85,25.15-21.87,13.3-.03,26.59-.07,39.89.02,7.35.05,8.43,1.23,8.45,8.38.02,9.48,0,18.95,0,28.43h-.03Z"/>
    <path class="cls-1" d="M.08,203.13c0-10.13.17-20.27-.07-30.4-.12-5.02,2.1-6.93,6.8-6.92,14.61.03,29.23-.07,43.84.12,2.16.03,4.81.86,6.35,2.28,5.22,4.84,10.27,9.92,14.89,15.33,1.42,1.66,1.76,4.66,1.79,7.05.16,13.79.13,27.58.06,41.36-.03,6.35-1.29,7.56-7.64,7.57-19.76.04-39.52.04-59.28,0-6.07,0-6.7-.69-6.73-7-.04-9.8-.01-19.6-.01-29.4h.02Z"/>
    <path class="cls-1" d="M202.7.11c9.97,0,19.94-.04,29.91.02,5.67.03,6.77,1.09,6.78,6.7.04,20.11.03,40.22-.04,60.33-.02,5.63-1.07,6.62-6.81,6.64-14.62.06-29.24.12-43.86-.05-1.97-.02-4.34-.84-5.81-2.12-4.25-3.69-8-7.95-12.21-11.7-3.97-3.52-5.14-7.72-5.05-12.89.23-12.96.02-25.93.09-38.89.03-7.1,1.08-8.06,8.1-8.07,9.64,0,19.27,0,28.91,0v.02Z"/>
    <path class="cls-1" d="M.05,120.06c0-9.97-.02-19.95,0-29.92.02-5.75,1.16-7.03,7.02-7.08,14.46-.1,28.91-.19,43.37.08,2.6.05,5.66,1.23,7.66,2.9,4.44,3.72,8.66,7.82,12.32,12.29,1.83,2.24,3.04,5.6,3.17,8.52.39,8.79.42,17.63-.06,26.41-.16,3.02-2.01,6.05-3.53,8.84-1.01,1.85-2.87,3.2-4.22,4.89-6.33,7.88-14.35,10.56-24.48,9.8-11.07-.83-22.25-.17-33.38-.2-7.22-.02-7.85-.71-7.86-8.1-.01-9.47,0-18.95,0-28.42Z"/>
    <path class="cls-1" d="M119.29,239.55c-9.96,0-19.93-.12-29.89.05-4.33.07-6.47-1.38-6.44-5.98.1-15.12.04-30.23.04-45.35,0-.66.02-1.34.14-1.99,1.06-5.95,17.37-20.31,23.44-20.4,8.8-.13,17.61-.18,26.4.09,2.34.07,5.16.82,6.86,2.3,5.13,4.44,10.01,9.23,14.57,14.25,1.38,1.52,1.94,4.27,1.97,6.46.18,14.78.06,29.57.16,44.35.03,4.47-1.99,6.26-6.36,6.21-10.3-.11-20.59-.04-30.89-.04,0,0,0,.01,0,.02Z"/>
    <path class="cls-1" d="M119.6.1c10.12,0,20.24.13,30.36-.06,4.72-.09,6.58,1.89,6.56,6.5-.09,14.94-.02,29.87-.03,44.81,0,.82-.05,1.67-.25,2.47-1.56,6.55-18.15,19.9-24.83,19.94-7.63.05-15.26-.04-22.9.03-4.88.04-8.89-1.35-12.39-5.09-14.89-15.89-13.06-8.99-13.19-31.93-.06-9.79-.06-19.59.04-29.38.06-6.26,1.13-7.27,7.25-7.29,9.79-.04,19.58-.01,29.37,0Z"/>
    <path class="cls-1" d="M239.41,119.98c0,9.81.04,19.62-.01,29.43-.03,5.82-1.31,7.17-6.96,7.19-14.46.05-28.92.05-43.38-.07-1.9-.02-4.31-.29-5.6-1.44-5.45-4.85-10.81-9.85-15.66-15.28-1.55-1.73-1.87-4.96-1.94-7.53-.23-8.47-.07-16.96-.11-25.44-.02-4.28,1.65-7.58,4.91-10.41,3.38-2.92,6.06-6.72,9.63-9.32,2.77-2.02,6.43-3.81,9.74-3.91,14.12-.43,28.25-.23,42.38-.16,6,.03,6.95,1.06,6.98,7.01.04,9.98.01,19.95.01,29.93Z"/>
    <path class="cls-1" d="M.05,44.57c0-6.98-.04-13.96.02-20.94.01-1.64-.25-3.87.66-4.82C6.69,12.61,12.85,6.6,19.19.79c.99-.91,3.18-.66,4.82-.66,14.12-.05,28.25.14,42.37-.12,4.92-.09,7.18,1.82,7.19,6.53.04,14.96.18,29.91-.15,44.86-.05,2.46-2.05,5.04-3.57,7.27-1.19,1.74-3.35,2.82-4.53,4.56-6.74,9.94-16.38,11.49-27.48,10.7-9.92-.7-19.93-.1-29.9-.16-6.82-.04-7.86-1.12-7.88-7.76-.02-7.15,0-14.3,0-21.44Z"/>
    <path class="cls-1" d="M101.66,119.42c0-9.68,8.01-17.61,17.85-17.65,10.3-.05,18.19,7.58,18.3,17.72.12,10.54-7.51,18.29-18.09,18.38-10.29.09-18.05-7.84-18.06-18.45Z"/>
  </g>
</svg>