<?xml version="1.0" encoding="UTF-8"?>
<svg id="Layer_2" xmlns="http://www.w3.org/2000/svg" viewBox="0 0 398.5 30.83">
  <defs>
    <style>
      .cls-1 {
        fill: #cccccb;
      }
    </style>
  </defs>
  <g id="Layer_6">
    <g>
      <path class="cls-1" d="M0,30.14V.64h8.92l7.38,14.32L23.5.64h8.92v29.5h-8.92v-15.44l-5.45,10.29h-3.65l-5.49-10.29v15.44H0Z"/>
      <path class="cls-1" d="M34.95,30.14L43.09.64h13.89l8.53,29.5h-10.51l-1.11-5.66h-7.63l-1.24,5.66h-10.08ZM47.17,19.21h5.7l-2.79-12.91-2.92,12.91Z"/>
      <path class="cls-1" d="M70.32,30.14V7.42h-6.65V.64h23.28v6.77h-6.65v22.73h-9.99Z"/>
      <path class="cls-1" d="M94.29,30.14V7.42h-6.65V.64h23.28v6.77h-6.65v22.73h-9.99Z"/>
      <path class="cls-1" d="M113.63,30.14V.64h9.65v11.11h9.13V.64h9.69v29.5h-9.69v-11.62h-9.13v11.62h-9.65Z"/>
      <path class="cls-1" d="M146.81,30.14V.64h20.71v6.52h-10.29v5.23h9.39v5.4h-9.39v5.62h10.29v6.73h-20.71Z"/>
      <path class="cls-1" d="M176.7,30.14l-6.69-29.5h9.65l2.79,18.39,2.87-13.38h9.99l2.92,13.38,2.79-18.39h9.65l-6.69,29.5h-9.99l-3.64-16.17-3.64,16.17h-9.99Z"/>
      <path class="cls-1" d="M226.65,30.14V7.42h-6.65V.64h23.28v6.77h-6.65v22.73h-9.99Z"/>
      <path class="cls-1" d="M247.36,30.4c-1.57,0-2.77-.42-3.6-1.27-.83-.84-1.24-1.88-1.24-3.11s.44-2.29,1.33-3.11c.89-.81,2.06-1.22,3.52-1.22s2.62.43,3.49,1.29,1.31,1.87,1.31,3.04c0,1.31-.41,2.37-1.22,3.17-.81.8-2.01,1.2-3.58,1.2Z"/>
      <path class="cls-1" d="M272.83,30.83c-1.8,0-3.63-.22-5.49-.66s-3.43-1.04-4.72-1.78l1.54-6.99c1.66.89,3.21,1.47,4.65,1.74,1.44.27,2.78.41,4.01.41,1.14,0,2.01-.19,2.59-.56.58-.37.88-.87.88-1.5,0-.57-.33-1.02-.99-1.35-.66-.33-1.51-.64-2.55-.92-1.04-.29-2.15-.62-3.32-1.01-1.17-.39-2.28-.9-3.32-1.54-1.04-.64-1.89-1.5-2.55-2.57-.66-1.07-.99-2.42-.99-4.05,0-2.06.5-3.84,1.5-5.34,1-1.5,2.43-2.66,4.29-3.47,1.86-.81,4.04-1.22,6.56-1.22,1.69,0,3.34.22,4.95.66,1.62.44,2.91,1.04,3.88,1.78l-1.46,6.3c-1.46-.6-2.77-1.04-3.92-1.31-1.16-.27-2.25-.41-3.28-.41-1.2,0-2.12.17-2.74.51-.63.34-.94.8-.94,1.37s.33.99.99,1.33c.66.34,1.5.67,2.53.99,1.03.31,2.13.67,3.3,1.07,1.17.4,2.27.93,3.3,1.59,1.03.66,1.87,1.52,2.53,2.57.66,1.06.99,2.39.99,3.99,0,3.32-1.08,5.87-3.24,7.68-2.16,1.8-5.15,2.7-8.98,2.7Z"/>
      <path class="cls-1" d="M287.96,30.14V.64h8.92l7.38,14.32,7.2-14.32h8.92v29.5h-8.92v-15.44l-5.45,10.29h-3.64l-5.49-10.29v15.44h-8.92Z"/>
      <path class="cls-1" d="M322.91,30.14l8.15-29.5h13.89l8.53,29.5h-10.5l-1.11-5.66h-7.63l-1.24,5.66h-10.08ZM335.13,19.21h5.7l-2.79-12.91-2.92,12.91Z"/>
      <path class="cls-1" d="M355.8,30.14V.64h9.26v22.73h10.46l-.43,6.77h-19.29Z"/>
      <path class="cls-1" d="M378.78,30.14V.64h9.26v22.73h10.46l-.43,6.77h-19.29Z"/>
    </g>
  </g>
</svg>