<?xml version="1.0" encoding="UTF-8"?>
<svg id="Layer_2" xmlns="http://www.w3.org/2000/svg" viewBox="0 0 320.75 320.75">
  <defs>
    <style>
      .cls-1 {
        fill: #202123;
      }
    </style>
  </defs>
  <g id="dropout">
    <g>
      <path class="cls-1" d="M175.91,272.33c-.8.1-1.4.48-1.79,1.14-.39.66-.54,1.47-.44,2.43l5.03-1.79c-.53-1.36-1.47-1.95-2.8-1.78Z"/>
      <path class="cls-1" d="M270.99,193.76c-.26.76-.18,1.47.24,2.11.42.64,1.08,1.13,1.99,1.46l.61-5.31c-1.45-.12-2.4.46-2.83,1.73Z"/>
      <path class="cls-1" d="M199.36,271.46c-.31-.84-.88-1.47-1.7-1.87s-1.64-.48-2.45-.22c-.9.28-1.57.84-2,1.67-.43.83-.51,1.68-.24,2.56.28.9.84,1.56,1.68,1.98.84.42,1.69.49,2.57.22.86-.27,1.5-.8,1.91-1.6.42-.8.52-1.63.3-2.47l-.08-.26Z"/>
      <polygon class="cls-1" points="172.98 226.12 172.98 223.17 171.04 226.12 172.98 226.12"/>
      <path class="cls-1" d="M279.62,179c.93.14,1.77-.07,2.52-.64.75-.57,1.19-1.3,1.33-2.21.14-.89-.06-1.7-.6-2.42-.54-.73-1.23-1.18-2.09-1.36l-.27-.04c-.89-.09-1.7.14-2.42.7-.72.56-1.15,1.26-1.28,2.1-.14.93.06,1.78.62,2.53.55.75,1.29,1.2,2.2,1.34Z"/>
      <path class="cls-1" d="M155.68,222.9c-.49,0-.88.25-1.17.74-.29.49-.44,1.14-.44,1.93s.15,1.43.46,1.93c.3.5.69.75,1.16.75.3,0,.57-.12.81-.35.24-.23.43-.55.57-.96.14-.41.21-.87.21-1.37,0-.79-.15-1.43-.45-1.92-.3-.5-.68-.75-1.15-.75Z"/>
      <path class="cls-1" d="M160.38,246.38c47.42,0,86-38.58,86-86s-38.58-86-86-86-86,38.58-86,86,38.58,86,86,86ZM149.85,228.43v2.18h-6.51v-2.1c1.17-1.05,2.06-1.95,2.66-2.69.6-.74.9-1.35.9-1.84,0-.32-.1-.56-.29-.73-.19-.17-.46-.25-.78-.25-.62,0-1.26.19-1.92.58l-.73-2.22c.55-.28,1.09-.49,1.62-.63.53-.14,1.09-.21,1.68-.21.7,0,1.31.14,1.83.41.52.27.92.65,1.2,1.12.28.47.42,1.01.42,1.62,0,.91-.3,1.75-.91,2.53-.61.78-1.52,1.52-2.75,2.23h3.6ZM159.76,228.22c-.4.79-.95,1.4-1.67,1.84-.71.44-1.51.66-2.41.66s-1.7-.22-2.41-.66c-.71-.44-1.27-1.05-1.67-1.84-.4-.78-.6-1.67-.6-2.66s.2-1.87.6-2.65c.4-.78.96-1.39,1.67-1.84.71-.44,1.52-.66,2.41-.66s1.68.22,2.4.66c.71.44,1.27,1.06,1.67,1.84.4.79.6,1.67.6,2.64s-.2,1.87-.6,2.66ZM167.92,228.43v2.18h-6.51v-2.1c1.17-1.05,2.06-1.95,2.66-2.69.6-.74.9-1.35.9-1.84,0-.32-.1-.56-.29-.73-.19-.17-.46-.25-.78-.25-.62,0-1.26.19-1.93.58l-.73-2.22c.55-.28,1.09-.49,1.62-.63.53-.14,1.09-.21,1.68-.21.7,0,1.31.14,1.83.41.52.27.92.65,1.2,1.12.28.47.42,1.01.42,1.62,0,.91-.3,1.75-.91,2.53-.61.78-1.52,1.52-2.75,2.23h3.6ZM177.59,228.19h-1.43v2.42h-3.18v-2.43h-4.13v-2.09l3.97-5.46h3.34v5.49h1.43v2.07ZM221.29,210.45h-95.14c-2.77,0-5.01-2.24-5.01-5.01v-16.26h10.01v11.25h31.69v.05h17.88v-.05h30.55v-.63c0-2.77,2.24-5.01,5.01-5.01s5.01,2.24,5.01,5.01v10.64ZM155.16,199.23v-32.57h10.02v32.57h-10.02ZM166.43,187.92v-10.02h23.16v-.63c0-2.77,2.24-5.01,5.01-5.01s5.01,2.24,5.01,5.01v10.64h-33.18ZM221.29,166.01c0,2.77-2.24,5.01-5.01,5.01s-5.01-2.24-5.01-5.01v-.63h-46.1s-10.02.01-10.02.01h0s-24-.01-24-.01v11.25h-10.01v-16.26c0-2.77,2.24-5.01,5.01-5.01h95.14v10.64ZM166.43,142.85v-10.02h33.18v10.64c0,2.77-2.24,5.01-5.01,5.01s-5.01-2.24-5.01-5.01v-.63h-23.16ZM172.2,97.66c.31-.28.73-.43,1.25-.43s.92.15,1.23.45c.31.3.47.66.47,1.09,0,.48-.15.85-.44,1.13-.29.28-.71.42-1.26.42s-.96-.15-1.26-.44c-.3-.29-.46-.66-.46-1.11s.16-.83.47-1.11ZM163.56,89.77h7.89v2.31h-2.17v8.15h-3.54v-8.15h-2.18v-2.31ZM155.74,90.4c.73-.57,1.73-.86,2.97-.86.65,0,1.29.07,1.92.21.63.14,1.19.34,1.67.6l-.82,2.3c-.57-.19-1.06-.33-1.48-.42-.42-.09-.83-.13-1.22-.13-.67,0-1,.18-1,.55,0,.18.11.34.33.46.22.13.67.29,1.35.48,1.06.28,1.87.72,2.42,1.3.55.58.82,1.28.82,2.09,0,1.13-.37,1.99-1.1,2.59-.73.6-1.81.9-3.24.9s-2.64-.26-3.62-.79l.76-2.36c1.04.38,1.98.56,2.8.56.45,0,.77-.05.98-.16.21-.11.31-.27.31-.48,0-.14-.06-.27-.17-.37-.11-.11-.33-.23-.67-.36s-.84-.29-1.51-.49c-.82-.24-1.46-.64-1.92-1.19-.46-.55-.68-1.19-.68-1.91,0-1.12.37-1.96,1.1-2.53ZM146.06,89.77h7.35v2.31h-3.65v1.9h3.33v1.92h-3.33v2.02h3.65v2.31h-7.35v-10.46ZM99.46,115.31c0-2.77,2.24-5.01,5.01-5.01h116.82v5.01c0,2.77-2.24,5.01-5.01,5.01h-51.06v33.79h-10.02v-33.79h-45.73v.63c0,2.77-2.24,5.01-5.01,5.01s-5.01-2.24-5.01-5.01v-5.63ZM99.46,137.84c0-2.77,2.24-5.01,5.01-5.01h49.43v10.02h-44.42v35.05h11.66s10.01,0,10.01,0h0s22.74,0,22.74,0v10.02h-22.74s-10.01,0-10.01,0h0s-16.67,0-16.67,0c-2.77,0-5.01-2.24-5.01-5.01v-45.07Z"/>
      <path class="cls-1" d="M164.36,17.4C85.52,15.2,19.59,77.55,17.4,156.39c-2.2,78.84,60.16,144.77,139,146.96,78.84,2.2,144.77-60.16,146.96-139,2.2-78.84-60.16-144.77-139-146.96ZM208.67,52.95c.97-1.98,3.37-2.8,5.35-1.82,14.54,7.15,27.34,17.01,38.07,29.3,1.45,1.66,1.28,4.19-.38,5.64-.76.66-1.7.99-2.63.99-1.12,0-2.22-.46-3.02-1.37-10.02-11.49-21.99-20.7-35.57-27.38-1.98-.98-2.8-3.37-1.82-5.35ZM180.41,45.27c.24-.72.86-1.25,1.62-1.36l2.46-.36,1.1-2.23c.34-.68,1.03-1.11,1.79-1.11s1.46.43,1.79,1.11l1.1,2.23,2.46.36c.75.11,1.38.64,1.62,1.36s.04,1.52-.51,2.05l-1.78,1.74.42,2.45c.13.75-.18,1.51-.79,1.96-.35.25-.76.38-1.18.38-.32,0-.64-.08-.93-.23l-2.2-1.16-2.2,1.16c-.67.35-1.49.3-2.11-.15-.62-.45-.92-1.21-.79-1.96l.42-2.45-1.78-1.74c-.54-.53-.74-1.33-.51-2.05ZM153.41,41.27c.24-.72.86-1.25,1.61-1.36l2.46-.36,1.1-2.23c.34-.68,1.03-1.11,1.79-1.11s1.46.43,1.79,1.11l1.1,2.23,2.46.36c.75.11,1.38.64,1.62,1.36s.04,1.52-.51,2.05l-1.78,1.74.42,2.45c.13.75-.18,1.51-.79,1.96-.35.25-.76.38-1.18.38-.32,0-.64-.08-.93-.23l-2.2-1.16-2.2,1.16c-.67.35-1.49.29-2.11-.15-.62-.45-.92-1.21-.8-1.96l.42-2.45-1.78-1.74c-.55-.53-.74-1.33-.51-2.05ZM126.41,45.27c.24-.72.86-1.25,1.61-1.36l2.46-.36,1.1-2.23c.34-.68,1.03-1.11,1.79-1.11s1.46.43,1.79,1.11l1.1,2.23,2.46.36c.75.11,1.38.64,1.61,1.36.23.72.04,1.52-.51,2.05l-1.78,1.74.42,2.45c.13.75-.18,1.51-.8,1.96-.35.25-.76.38-1.18.38-.32,0-.64-.08-.93-.23l-2.2-1.16-2.2,1.16c-.67.35-1.49.29-2.11-.15-.62-.45-.92-1.21-.8-1.96l.42-2.45-1.78-1.74c-.55-.53-.74-1.33-.51-2.05ZM68.66,80.42c10.72-12.29,23.53-22.15,38.07-29.3,1.98-.98,4.38-.16,5.35,1.82.98,1.98.16,4.38-1.82,5.35-13.58,6.68-25.55,15.89-35.57,27.38-.79.91-1.9,1.37-3.02,1.37-.93,0-1.87-.32-2.63-.99-1.66-1.45-1.84-3.98-.38-5.64ZM160.38,66.38c51.83,0,94,42.17,94,94s-42.17,94-94,94-94-42.17-94-94,42.17-94,94-94ZM42.23,103.16l16.65,6.96,1.86-4.44,4.72,1.97-6.74,16.12-4.72-1.97,1.86-4.44-16.65-6.96,3.02-7.24ZM33.13,131.69l8.91,1.95c.94.21,1.71.16,2.3-.13.59-.29.97-.8,1.13-1.53.12-.53.06-1.08-.17-1.66-.23-.58-.63-1.1-1.19-1.55-.57-.46-1.25-.78-2.07-.95l-7.69-1.69,1.52-6.94,21.67,4.75-.5,7.16-9.6-2.11c1.06.74,1.79,1.66,2.2,2.77.41,1.11.46,2.36.16,3.74-.46,2.1-1.57,3.59-3.34,4.45-1.76.87-3.97,1.01-6.62.43l-8.22-1.8,1.51-6.9ZM30.54,152.4c.08-1.86.52-3.5,1.33-4.92.81-1.42,1.89-2.5,3.23-3.25,1.34-.75,2.85-1.1,4.51-1.03,1.7.07,3.2.55,4.49,1.43,1.29.88,2.26,2.05,2.92,3.49.66,1.44.95,3.03.88,4.75-.07,1.66-.49,3.06-1.27,4.21-.78,1.15-1.8,1.99-3.07,2.52-1.27.53-2.68.77-4.22.7-.4-.02-.69-.05-.87-.1l-.9-10.14c-.8.24-1.38.65-1.75,1.24-.37.59-.58,1.38-.62,2.37-.06,1.52.26,3.19.98,4.99l-4.54.66c-.83-2.12-1.2-4.43-1.1-6.92ZM32.54,181.59c-.38-2.21-.19-4.31.55-6.29.74-1.98,1.94-3.65,3.59-5.01,1.65-1.36,3.58-2.23,5.79-2.61,2.26-.38,4.38-.22,6.37.49,1.99.71,3.65,1.86,4.98,3.46,1.33,1.59,2.18,3.5,2.56,5.71.2,1.19.26,2.39.17,3.59-.09,1.2-.33,2.25-.73,3.16l-5.3-.02c.33-1.69.38-3.18.16-4.47-.3-1.77-1.05-3.04-2.24-3.82s-2.75-1-4.67-.67c-1.88.32-3.26,1.07-4.14,2.26-.88,1.19-1.17,2.67-.86,4.47.12.69.29,1.32.53,1.89.23.57.6,1.26,1.1,2.07l-5.09,1.82c-1.46-1.73-2.38-3.74-2.76-6.02ZM37.91,200.18c-.63-1.78-.84-3.48-.64-5.11.21-1.63.79-3.05,1.75-4.27s2.25-2.1,3.86-2.67c1.61-.57,3.17-.68,4.68-.34,1.52.34,2.86,1.09,4.02,2.23,1.17,1.14,2.07,2.61,2.7,4.38.64,1.8.86,3.51.66,5.14-.2,1.63-.77,3.04-1.73,4.24-.96,1.2-2.24,2.08-3.85,2.65-1.63.58-3.2.7-4.71.37-1.51-.33-2.86-1.07-4.04-2.21s-2.09-2.61-2.73-4.41ZM56.35,234.59l7.05-4.59c.96-.62,1.58-1.26,1.85-1.91.27-.65.22-1.26-.16-1.85-.42-.64-1.05-1.01-1.89-1.12-.85-.11-1.65.09-2.42.59l-7.16,4.67-3.84-5.9,7.05-4.59c.96-.62,1.58-1.26,1.85-1.91.27-.65.22-1.27-.18-1.87-.42-.64-1.04-1.01-1.88-1.1-.84-.1-1.64.11-2.42.61l-7.16,4.67-3.88-5.95,13.94-9.08,3.69,5.67-2.88,1.87c1.53-.08,2.82.11,3.89.58,1.07.47,1.97,1.27,2.71,2.4.72,1.11,1.07,2.25,1.05,3.43-.02,1.18-.37,2.28-1.04,3.31,2.83-.13,5,.95,6.49,3.25.71,1.09,1.04,2.23.99,3.43-.05,1.2-.48,2.38-1.28,3.55s-1.95,2.24-3.44,3.2l-7.05,4.59-3.88-5.95ZM88.72,265.92l-5.42-4.58,5.43-6.43c.74-.87,1.15-1.66,1.22-2.36.08-.7-.15-1.27-.68-1.72-.58-.49-1.29-.67-2.13-.53-.84.14-1.56.56-2.15,1.27l-5.52,6.53-5.37-4.54,5.43-6.43c.74-.87,1.15-1.66,1.22-2.36.08-.7-.16-1.28-.71-1.74-.58-.49-1.29-.66-2.12-.51s-1.54.58-2.14,1.28l-5.52,6.53-5.42-4.58,10.73-12.7,5.17,4.37-2.22,2.62c1.44-.52,2.74-.71,3.89-.57,1.16.14,2.25.65,3.28,1.52,1.01.85,1.68,1.85,1.99,2.99s.3,2.29-.04,3.47c2.68-.94,5.06-.53,7.15,1.24.99.84,1.64,1.84,1.94,3,.3,1.16.23,2.42-.21,3.77-.44,1.35-1.23,2.7-2.37,4.06l-5.43,6.43ZM111.45,272.93c-1.32.8-2.8,1.2-4.44,1.19-1.64,0-3.31-.44-5.02-1.3-1.68-.85-3.02-1.93-3.99-3.26-.98-1.32-1.54-2.75-1.68-4.29-.14-1.54.17-3.07.94-4.6.77-1.52,1.82-2.68,3.15-3.48,1.33-.8,2.82-1.19,4.45-1.17,1.64.02,3.3.45,4.98,1.3,1.7.86,3.05,1.94,4.03,3.26.98,1.31,1.54,2.73,1.68,4.26.14,1.53-.18,3.05-.95,4.57-.78,1.54-1.83,2.72-3.15,3.52ZM136.47,276.03l-2.32,8.09-6.79-1.95,2.52-8.77c.27-.93.27-1.7.01-2.31-.26-.61-.74-1.02-1.45-1.22-.52-.15-1.07-.13-1.66.06-.59.19-1.13.56-1.63,1.09-.49.54-.85,1.2-1.08,2l-2.17,7.57-6.83-1.96,4.59-15.98,6.5,1.87-.95,3.3c1.97-2.14,4.31-2.83,7.03-2.04,2.07.59,3.48,1.8,4.23,3.61.75,1.81.75,4.03,0,6.64ZM161.36,286.74l-8.03-.54-1.28-9.03-2.38,8.78-7.76-.52-2.56-17.08,6.85.46,1.18,11.04,3.05-10.76,5.78.39,1.6,11.34,2.67-11.06,5.51.37-4.63,16.59ZM177.8,285.49c-1.85.23-3.54.07-5.07-.5-1.53-.56-2.78-1.45-3.74-2.65-.97-1.2-1.55-2.63-1.76-4.27-.21-1.69,0-3.25.67-4.66s1.64-2.57,2.96-3.46c1.31-.89,2.83-1.44,4.54-1.66,1.65-.21,3.1-.02,4.36.55,1.26.58,2.26,1.45,2.99,2.61.73,1.16,1.2,2.51,1.39,4.05.05.4.06.69.04.88l-9.86,2.56c.37.75.87,1.25,1.51,1.52s1.46.34,2.44.22c1.51-.19,3.1-.79,4.76-1.79l1.4,4.37c-1.96,1.17-4.17,1.92-6.64,2.23ZM201.91,279.62l-.93-2.99c-.39,2.5-1.81,4.13-4.25,4.89-1.39.44-2.81.47-4.25.11-1.44-.36-2.73-1.06-3.85-2.11s-1.93-2.35-2.42-3.92c-.48-1.54-.55-3.05-.22-4.53.34-1.48,1-2.77,2-3.85,1-1.09,2.19-1.85,3.56-2.28,1.11-.35,2.24-.36,3.39-.04s2.16,1.03,3.04,2.12l-1.17-3.73,6.75-2.11,5.1,16.32-6.75,2.11ZM218.52,272.94c-1.71.84-3.3.95-4.77.33-1.47-.62-2.66-1.87-3.57-3.74l-6.91-14.12,5.92-4.06,7.15,14.6c.28.57.61.91,1.01,1.03.4.12.94.01,1.62-.33.5-.25.94-.61,1.3-1.09l2.28,4.13c-1.02,1.35-2.36,2.43-4.03,3.25ZM233.33,263.94c-.63.65-1.3,1.2-2,1.65-1.67,1.06-3.27,1.4-4.8,1.03-1.54-.37-2.84-1.4-3.91-3.08l-3.52-5.54-1.82,1.15-2.24-3.53,2.25-1.42-.76-7.05,2.87-1.82,3.41,5.37,3.3-2.09,2.24,3.53-3.3,2.09,3.06,4.83c.3.47.69.75,1.16.82.47.07.98-.06,1.53-.41.51-.32.9-.73,1.18-1.22l2.75,3.84c-.29.58-.76,1.2-1.39,1.86ZM248.24,252.1l-6.03-6.84c-.64-.72-1.28-1.14-1.94-1.25-.65-.11-1.26.08-1.81.57-.4.36-.68.84-.84,1.44-.16.6-.14,1.26.04,1.96s.55,1.37,1.1,1.99l5.21,5.91-5.33,4.7-14.67-16.64,4.64-5.48,6.5,7.37c-.42-1.22-.46-2.4-.13-3.54.33-1.14,1.02-2.18,2.08-3.11,1.62-1.42,3.39-1.96,5.33-1.62,1.93.34,3.8,1.54,5.59,3.57l5.56,6.31-5.3,4.67ZM268.2,229.75c-1.3,1.83-2.92,3.18-4.85,4.05s-3.96,1.21-6.08,1c-2.13-.2-4.1-.96-5.93-2.26-1.87-1.33-3.25-2.95-4.15-4.85-.9-1.91-1.26-3.9-1.07-5.96.19-2.07.94-4.02,2.24-5.84.7-.99,1.51-1.87,2.43-2.65.91-.78,1.83-1.35,2.75-1.72l3.72,3.77c-1.43.96-2.52,1.98-3.28,3.04-1.04,1.46-1.42,2.89-1.13,4.28s1.23,2.65,2.82,3.79c1.55,1.11,3.06,1.55,4.52,1.34,1.46-.21,2.72-1.06,3.77-2.54.4-.57.73-1.14.97-1.71.24-.57.47-1.32.68-2.24l4.88,2.32c-.2,2.25-.97,4.32-2.31,6.21ZM283.65,197.84c-.6,1.76-1.49,3.21-2.67,4.33-1.18,1.13-2.52,1.86-4.03,2.2s-3.04.24-4.61-.3c-1.61-.55-2.91-1.44-3.9-2.65-.98-1.21-1.59-2.61-1.81-4.18-.22-1.57-.05-3.17.51-4.81.54-1.57,1.34-2.8,2.41-3.67,1.07-.88,2.29-1.39,3.66-1.54,1.37-.15,2.78.03,4.25.53.38.13.65.25.81.35l-2.03,9.98c.83,0,1.51-.23,2.03-.69s.95-1.16,1.27-2.09c.49-1.44.66-3.13.49-5.06l4.54.66c.2,2.27-.11,4.59-.92,6.94ZM288.96,173.62l-3.09-.47c2.07,1.45,2.91,3.44,2.53,5.97-.22,1.44-.81,2.73-1.77,3.87s-2.15,1.98-3.59,2.53c-1.44.55-2.96.71-4.58.46-1.6-.24-2.99-.84-4.17-1.8-1.18-.95-2.04-2.12-2.58-3.49-.54-1.38-.7-2.77-.48-4.19.18-1.15.66-2.17,1.46-3.06.79-.89,1.87-1.49,3.24-1.8l-3.86-.59,1.07-6.99,16.9,2.59-1.07,6.99ZM290.25,154.09c.03,1.98-.51,3.52-1.62,4.64-1.11,1.12-2.67,1.69-4.67,1.73l-6.56.11.04,2.15-4.17.07-.04-2.66-6.41-3.03-.06-3.4,6.36-.1-.06-3.9,4.17-.07.06,3.9,5.72-.09c.56,0,1-.2,1.3-.56.31-.36.46-.87.45-1.52,0-.61-.15-1.15-.43-1.64l4.71-.35c.35.56.63,1.27.86,2.16.23.88.35,1.74.36,2.57ZM264.48,148.2c-.73-.68-1.16-1.52-1.27-2.5-.12-1.02.11-1.95.7-2.77.58-.82,1.33-1.29,2.25-1.39.98-.11,1.84.17,2.57.86.73.68,1.16,1.53,1.27,2.53.12,1.05-.11,1.97-.68,2.77-.57.8-1.34,1.26-2.3,1.37-.96.11-1.8-.18-2.54-.86ZM288.67,137.85c.29.77.49,1.58.58,2.42.22,1.87-.22,3.4-1.3,4.59-1.08,1.19-2.66,1.9-4.73,2.14l-10.3,1.19-.82-7.09,10-1.15c.51-.06.89-.24,1.14-.55.25-.31.34-.69.29-1.14-.05-.45-.24-.89-.56-1.32l4.61-.9c.44.45.8,1.05,1.09,1.82ZM287.26,129.74l-15.06,9.4-1.85-7.59,9.19-4.92-10.41-.05-1.46-5.98,17.65,1.19,1.94,7.95ZM263.22,108.09c.22-1.37.78-2.56,1.71-3.58.92-1.02,2.1-1.83,3.52-2.43.37-.16.65-.25.83-.28l5.12,8.8c.62-.55.97-1.18,1.06-1.87s-.06-1.49-.45-2.41c-.59-1.41-1.59-2.78-3-4.11l3.83-2.52c1.66,1.57,2.97,3.5,3.93,5.8.72,1.72,1.02,3.39.88,5.01-.13,1.63-.65,3.06-1.54,4.32-.9,1.25-2.11,2.2-3.64,2.85-1.57.66-3.13.86-4.67.61-1.54-.25-2.92-.89-4.13-1.92-1.21-1.03-2.15-2.33-2.82-3.93-.64-1.53-.86-2.98-.64-4.35ZM263.67,201.95l5.33,1.62c-.97,1.9-1.47,3.4-1.52,4.5s.38,1.87,1.25,2.32l7.8,3.97-3.22,6.33-14.82-7.55,3.22-6.33,3.06,1.56c-.95-1.06-1.5-2.13-1.67-3.21-.17-1.08.02-2.15.56-3.21Z"/>
      <path class="cls-1" d="M164.84.06C76.45-2.4,2.53,67.51.06,155.91c-2.46,88.4,67.45,162.32,155.85,164.78s162.32-67.45,164.78-155.85C323.15,76.45,253.24,2.53,164.84.06ZM311.35,164.58c-2.32,83.25-71.93,149.09-155.18,146.77C72.92,309.03,7.08,239.42,9.4,156.17,11.72,72.92,81.33,7.08,164.58,9.4c83.25,2.32,149.09,71.93,146.77,155.18Z"/>
      <path class="cls-1" d="M43.84,152.71c.03-.81-.24-1.46-.83-1.95s-1.36-.77-2.32-.84l.93,5.26c1.43-.3,2.17-1.12,2.22-2.47Z"/>
      <path class="cls-1" d="M47.21,200.31c1.02-.36,1.75-.94,2.19-1.72.45-.79.52-1.62.21-2.49s-.88-1.47-1.73-1.8c-.84-.33-1.77-.32-2.79.04s-1.75.94-2.19,1.72c-.45.79-.52,1.62-.21,2.48s.88,1.47,1.73,1.8c.84.33,1.77.32,2.79-.04Z"/>
      <path class="cls-1" d="M107.63,261.78c-.82-.42-1.65-.45-2.49-.11-.84.34-1.5,1-1.99,1.96s-.62,1.88-.39,2.76c.22.88.75,1.52,1.57,1.94.82.41,1.65.45,2.49.11.84-.34,1.5-1,1.99-1.96.48-.96.61-1.88.39-2.76-.22-.88-.75-1.53-1.57-1.94Z"/>
      <path class="cls-1" d="M269.2,112.27c.74.2,1.56.12,2.46-.23l-3.08-4.37c-1.16.88-1.49,1.94-.96,3.18.31.74.84,1.22,1.58,1.42Z"/>
    </g>
  </g>
</svg>