<?xml version="1.0" encoding="UTF-8"?>
<svg id="Layer_1" data-name="Layer 1" xmlns="http://www.w3.org/2000/svg" version="1.1" viewBox="0 0 48 48">
  <defs>
    <style>
      .cls-1 {
        fill: none;
        stroke: #5bdeb8;
      }

      .cls-2 {
        fill: #5bdeb8;
        stroke-width: 0px;
      }
    </style>
  </defs>
  <path class="cls-2" d="M36,33.2h-1.2V13c0-.2,0-.4-.2-.5-.1-.1-.3-.2-.5-.2h-7c-.2,0-.4,0-.5.2-.1.1-.2.3-.2.5v5.2h-6.2c-.2,0-.4,0-.5.2-.1.1-.2.3-.2.5v5.2h-5.2c-.2,0-.4,0-.5.2-.1.1-.2.3-.2.5v8.2h-1.2c-.2,0-.4,0-.5.2-.1.1-.2.3-.2.5s0,.4.2.5c.1.1.3.2.5.2h24c.2,0,.4,0,.5-.2.1-.1.2-.3.2-.5s0-.4-.2-.5c-.1-.1-.3-.2-.5-.2ZM27.8,13.8h5.5v19.5h-5.5V13.8ZM20.8,19.8h5.5v13.5h-5.5v-13.5ZM14.8,25.8h4.5v7.5h-4.5v-7.5Z"/>
  <path class="cls-1" d="M24,.5h0c13,0,23.5,10.5,23.5,23.5h0c0,13-10.5,23.5-23.5,23.5h0C11,47.5.5,37,.5,24h0C.5,11,11,.5,24,.5Z"/>
</svg>