<?xml version="1.0" encoding="UTF-8"?>
<svg id="Layer_1" data-name="Layer 1" xmlns="http://www.w3.org/2000/svg" version="1.1" viewBox="0 0 48 48">
  <defs>
    <style>
      .cls-1 {
        fill: none;
        stroke: #5bdeb8;
      }

      .cls-2 {
        fill: #5bdeb8;
        stroke-width: 0px;
      }
    </style>
  </defs>
  <path class="cls-2" d="M34.7,22.8c0-.1,0-.2-.2-.3,0,0-.2-.2-.3-.2l-7.4-2.8,1.9-9.4c0-.2,0-.3,0-.5,0-.1-.2-.3-.3-.3-.1,0-.3,0-.5,0-.2,0-.3.1-.4.2l-14,15c0,0-.1.2-.2.3,0,.1,0,.2,0,.4,0,.1,0,.2.2.3,0,0,.2.2.3.2l7.4,2.8-1.9,9.4c0,.2,0,.3,0,.5,0,.1.2.3.3.3.1,0,.2,0,.3,0,.1,0,.2,0,.3,0,0,0,.2-.1.2-.2l14-15c0,0,.1-.2.2-.3,0-.1,0-.2,0-.4ZM21.2,35.6l1.5-7.4c0-.2,0-.4,0-.5,0-.2-.2-.3-.4-.3l-6.9-2.6,11.4-12.2-1.5,7.4c0,.2,0,.4,0,.5,0,.2.2.3.4.3l6.9,2.6-11.4,12.2Z"/>
  <path class="cls-1" d="M24,.5h0c13,0,23.5,10.5,23.5,23.5h0c0,13-10.5,23.5-23.5,23.5h0C11,47.5.5,37,.5,24h0C.5,11,11,.5,24,.5Z"/>
</svg>