<?xml version="1.0" encoding="UTF-8"?>
<svg id="Layer_1" data-name="Layer 1" xmlns="http://www.w3.org/2000/svg" version="1.1" viewBox="0 0 48 48">
  <defs>
    <style>
      .cls-1 {
        fill: none;
        stroke: #5bdeb8;
      }

      .cls-2 {
        fill: #5bdeb8;
        stroke-width: 0px;
      }
    </style>
  </defs>
  <path class="cls-2" d="M36.1,21c-1.4-.8-3.3-1.3-5.3-1.6v-.9c0-1.5-1.2-2.9-3.4-3.9-2-.9-4.6-1.4-7.4-1.4s-5.4.5-7.4,1.4c-2.2,1-3.4,2.4-3.4,3.9v5c0,1.5,1.2,2.9,3.4,3.9,1.3.6,2.9,1,4.6,1.2v.9c0,1.5,1.2,2.9,3.4,3.9,2,.9,4.6,1.4,7.4,1.4s5.4-.5,7.4-1.4c2.2-1,3.4-2.4,3.4-3.9v-5c0-1.3-1-2.6-2.7-3.5ZM35.4,22.3c1.2.7,1.9,1.5,1.9,2.2,0,1.8-3.8,3.8-9.2,3.8-.9,0-1.8,0-2.7-.2.7-.2,1.4-.4,2-.7,2.2-1,3.4-2.4,3.4-3.9v-2.6c1.8.2,3.4.7,4.6,1.4ZM21.5,27.2c-.5,0-1,0-1.5,0s-1.3,0-1.9,0c0,0,0,0,0,0-.4,0-.9,0-1.3-.2v-3.5c1.1.2,2.2.2,3.2.2,1.1,0,2.2,0,3.2-.2v3.5c-.5,0-1.1.2-1.7.2h0ZM29.2,21.2v2.3c0,1.2-1.7,2.5-4.5,3.2v-3.5c.9-.2,1.8-.5,2.6-.9.7-.3,1.3-.7,1.9-1.1ZM20,14.8c5.5,0,9.2,2,9.2,3.8s-3.8,3.8-9.2,3.8-9.2-2-9.2-3.8,3.8-3.8,9.2-3.8ZM10.8,23.5v-2.3c.6.5,1.2.8,1.9,1.1.8.4,1.7.7,2.6.9v3.5c-2.8-.7-4.5-2-4.5-3.2ZM18.8,29.5v-.8c.4,0,.8,0,1.2,0s1,0,1.5,0c.6.2,1.2.4,1.8.5v3.5c-2.8-.7-4.5-2-4.5-3.2ZM24.8,33v-3.5c1.1.2,2.2.2,3.2.2,1.1,0,2.2,0,3.2-.2v3.5c-2.2.3-4.3.3-6.5,0ZM32.8,32.7v-3.5c.9-.2,1.8-.5,2.6-.9.7-.3,1.3-.7,1.9-1.1v2.3c0,1.2-1.7,2.5-4.5,3.2Z"/>
  <path class="cls-1" d="M24,.5h0c13,0,23.5,10.5,23.5,23.5h0c0,13-10.5,23.5-23.5,23.5h0C11,47.5.5,37,.5,24h0C.5,11,11,.5,24,.5Z"/>
</svg>