<?xml version="1.0" encoding="UTF-8"?>
<svg id="Layer_1" data-name="Layer 1" xmlns="http://www.w3.org/2000/svg" version="1.1" viewBox="0 0 48 48">
  <defs>
    <style>
      .cls-1 {
        fill: none;
        stroke: #5bdeb8;
      }

      .cls-2 {
        fill: #5bdeb8;
        stroke-width: 0px;
      }
    </style>
  </defs>
  <path class="cls-2" d="M38.3,17.7c-.2-.2-.4-.3-.7-.3-.2,0-.5,0-.7.1l-6.5,3.2-5.4-8.9c-.1-.2-.3-.3-.5-.4-.2-.1-.4-.2-.6-.2s-.4,0-.6.2c-.2.1-.3.3-.5.4l-5.4,8.9-6.5-3.2c-.2-.1-.5-.2-.7-.1-.2,0-.5.1-.7.3-.2.2-.3.4-.4.6,0,.2,0,.5,0,.7l4.6,14.2c0,.1,0,.2.2.3,0,0,.2.1.3.2.1,0,.2,0,.3,0,.1,0,.2,0,.3-.1,0,0,.8-.5,2.3-.9,1.4-.4,3.7-.9,6.6-.9s5.2.5,6.6.9c1.5.5,2.3.9,2.3.9,0,0,.2,0,.3.1.1,0,.2,0,.3,0,.1,0,.2-.1.3-.2,0,0,.1-.2.2-.3l4.6-14.2c0-.2,0-.5,0-.7,0-.2-.2-.5-.4-.6ZM32.9,31.9c-1.4-.6-4.4-1.7-8.9-1.7s-7.5,1.1-8.9,1.7l-4.2-12.8,6.2,3.1c.3.1.6.2.9,0,.3,0,.6-.3.7-.6l5.3-8.8,5.3,8.8c.2.3.4.5.7.6s.6,0,.9,0l6.2-3.1-4.2,12.8ZM29.7,27.6c0,.2-.1.3-.3.4-.1.1-.3.2-.5.2,0,0,0,0-.1,0-3.2-.6-6.5-.6-9.7,0-.2,0-.4,0-.6-.1-.2-.1-.3-.3-.3-.5,0-.2,0-.4.1-.6.1-.2.3-.3.5-.3,3.4-.6,6.9-.6,10.3,0,.2,0,.4.1.5.3.1.2.2.4.1.6Z"/>
  <path class="cls-1" d="M24,.5h0c13,0,23.5,10.5,23.5,23.5h0c0,13-10.5,23.5-23.5,23.5h0C11,47.5.5,37,.5,24h0C.5,11,11,.5,24,.5Z"/>
</svg>